<?xml version="1.0" encoding="UTF-8"?>
<svg version="1.1" xmlns="http://www.w3.org/2000/svg" width="474" height="355">
<path d="M0 0 C156.42 0 312.84 0 474 0 C474 117.15 474 234.3 474 355 C317.58 355 161.16 355 0 355 C0 237.85 0 120.7 0 0 Z " fill="#FCFCFC" transform="translate(0,0)"/>
<path d="M0 0 C44.88 0 89.76 0 136 0 C137.24990866 2.49981732 137.14723137 4.23134831 137.17700195 7.02880859 C137.19625481 8.60086563 137.19625481 8.60086563 137.21589661 10.2046814 C137.22328354 11.34112091 137.23067047 12.47756042 137.23828125 13.6484375 C137.246353 14.81251129 137.25442474 15.97658508 137.26274109 17.17593384 C137.27658918 19.64233914 137.28730807 22.10876366 137.29516602 24.57519531 C137.31239773 28.35258097 137.35628111 32.12909594 137.40039062 35.90625 C137.41051553 38.29947271 137.41903226 40.69270288 137.42578125 43.0859375 C137.44328934 44.21832855 137.46079742 45.3507196 137.47883606 46.51742554 C137.47444771 48.09893906 137.47444771 48.09893906 137.4699707 49.71240234 C137.47583694 50.63902679 137.48170319 51.56565125 137.48774719 52.52035522 C136.84671225 55.77929545 135.55799148 56.94705969 133 59 C129.59241763 60.13586079 126.90713239 60.16903273 123.31298828 60.22460938 C122.30025345 60.24169449 122.30025345 60.24169449 121.26705933 60.25912476 C114.22564651 60.36949956 107.18320826 60.41714683 100.14111328 60.45996094 C96.80009825 60.48226585 93.46019513 60.52408065 90.11962891 60.58300781 C86.08303776 60.65406649 82.04749557 60.69078626 78.01031113 60.70307922 C76.47363379 60.71348136 74.93698833 60.73591017 73.4006691 60.77067566 C61.34589066 61.02943093 61.34589066 61.02943093 57.99409485 58.46574402 C56.65014648 56.5847168 56.65014648 56.5847168 55 53 C52.98104329 50.93985676 52.98104329 50.93985676 50.9375 49.3125 C48.73608119 47.47108765 46.69359651 45.68531533 44.6875 43.625 C42.99077259 41.75789029 42.99077259 41.75789029 40 41 C38.4921875 39.46875 38.4921875 39.46875 36.875 37.5 C31.69459722 31.40155115 26.1230603 25.71942169 20 20.5625 C17 18 17 18 16 16 C15.195625 15.54625 14.39125 15.0925 13.5625 14.625 C10.77118071 12.85489509 10.38466372 11.86163835 9 9 C7.15028304 7.94978897 7.15028304 7.94978897 5 7 C2.25 5.0625 2.25 5.0625 0 3 C0 2.01 0 1.02 0 0 Z " fill="#1278CB" transform="translate(136,177)"/>
<path d="M0 0 C54 0 54 0 59 4 C59.62145996 7.15626526 59.62145996 7.15626526 59.61523438 10.92407227 C59.62078339 11.612341 59.6263324 12.30060974 59.63204956 13.00973511 C59.64383791 15.27933907 59.61958553 17.54694274 59.59375 19.81640625 C59.59203877 21.39533904 59.59210471 22.97427467 59.59387207 24.5532074 C59.59221939 27.85956055 59.57353012 31.16523521 59.54199219 34.47143555 C59.50228154 38.71090358 59.49795079 42.94948437 59.50545502 47.18910313 C59.50852312 50.44821818 59.49641058 53.70713345 59.47932434 56.96619987 C59.47229051 58.52950729 59.46917027 60.09283734 59.47001648 61.65616035 C59.46822027 63.83963148 59.44685705 66.0220355 59.41992188 68.20532227 C59.41150269 69.44790298 59.4030835 70.6904837 59.39440918 71.97071838 C59 75 59 75 57.66125488 76.79966736 C56.13358852 77.90347619 54.5681794 78.95454707 53 80 C52.690625 80.66 52.38125 81.32 52.0625 82 C51 84 51 84 49.09960938 84.92358398 C46.79377265 86.10572749 45.85426306 87.14628808 44.34375 89.22265625 C43.87839844 89.84333984 43.41304688 90.46402344 42.93359375 91.10351562 C41.97600198 92.41205043 41.02027812 93.72195419 40.06640625 95.03320312 C39.60105469 95.65259766 39.13570313 96.27199219 38.65625 96.91015625 C38.24181641 97.47871338 37.82738281 98.04727051 37.40039062 98.63305664 C35.68648174 100.30603011 34.33114528 100.60992417 32 101 C32 101.66 32 102.32 32 103 C31.34 103 30.68 103 30 103 C29.7525 103.5775 29.505 104.155 29.25 104.75 C27.81700012 107.32939979 26.21575324 109.06121592 24 111 C23.34 111 22.68 111 22 111 C21.731875 111.598125 21.46375 112.19625 21.1875 112.8125 C19.99427577 115.01054464 18.75321129 116.24678871 17 118 C16.54625 118.804375 16.0925 119.60875 15.625 120.4375 C14 123 14 123 11.625 124.8125 C8.58351348 127.3470721 7.1369631 129.92368244 5.30859375 133.390625 C4.66083984 134.18726563 4.66083984 134.18726563 4 135 C2.68 135 1.36 135 0 135 C0 90.45 0 45.9 0 0 Z " fill="#1178CB" transform="translate(280,95)"/>
<path d="M0 0 C0.66 0 1.32 0 2 0 C2 44.22 2 88.44 2 134 C-16.15 134 -34.3 134 -53 134 C-57.49371809 129.50628191 -57.50229142 129.04993475 -57.51757812 123.09179688 C-57.5245874 122.40513443 -57.53159668 121.71847198 -57.53881836 121.01100159 C-57.55639013 118.74650349 -57.54477995 116.48326028 -57.53125 114.21875 C-57.53394519 112.64220948 -57.53782783 111.06567058 -57.54284668 109.48913574 C-57.54874056 106.18709466 -57.54018278 102.88548677 -57.52148438 99.58349609 C-57.49869431 95.3529894 -57.51181807 91.12349772 -57.53577423 86.89302826 C-57.55023551 83.63816697 -57.54562483 80.38354593 -57.53526306 77.12867737 C-57.53259666 75.56897359 -57.53586254 74.00924792 -57.54518127 72.4495697 C-57.55535302 70.26852738 -57.53984041 68.08912353 -57.51757812 65.90820312 C-57.51439575 64.66784302 -57.51121338 63.42748291 -57.50793457 62.14953613 C-56.90996422 58.44171756 -55.97182582 57.22709247 -53 55 C-52.34 55 -51.68 55 -51 55 C-51 54.34 -51 53.68 -51 53 C-50.34 53 -49.68 53 -49 53 C-48.773125 52.443125 -48.54625 51.88625 -48.3125 51.3125 C-46.63283282 48.35308639 -44.43248148 46.37591214 -42 44 C-41.0935705 42.9045152 -40.19753541 41.80034038 -39.3125 40.6875 C-38.549375 39.800625 -37.78625 38.91375 -37 38 C-36.34 38 -35.68 38 -35 38 C-35 37.34 -35 36.68 -35 36 C-33.68 36 -32.36 36 -31 36 C-30.75507813 35.44570312 -30.51015625 34.89140625 -30.2578125 34.3203125 C-28.74796208 31.53506049 -26.90832867 29.30507573 -24.875 26.875 C-21.81036371 23.20233987 -18.84113024 19.48809325 -15.9375 15.6875 C-12.89979826 11.85550898 -9.77215468 9.07921822 -5.7578125 6.31640625 C-3.39692505 4.54836387 -1.78183546 2.33009252 0 0 Z " fill="#1178CB" transform="translate(187,35)"/>
<path d="M0 0 C8.98848674 -0.1626158 17.97646267 -0.28678181 26.9661026 -0.3626852 C31.14101841 -0.3991267 35.3149236 -0.44850555 39.48925781 -0.52807617 C43.52235249 -0.60446818 47.55447894 -0.64605854 51.58824158 -0.6641407 C53.12246434 -0.67701611 54.65663758 -0.7021602 56.19044495 -0.7401104 C69.70319252 -1.06097148 69.70319252 -1.06097148 74.83398438 3.37866211 C75.9209803 4.5573479 76.98054129 5.76243615 78 7 C79.36125 8.299375 79.36125 8.299375 80.75 9.625 C83 12 83 12 85.125 14.75 C86.87431597 17.25052455 86.87431597 17.25052455 90 18 C90 18.66 90 19.32 90 20 C91.32 20.66 92.64 21.32 94 22 C94 22.66 94 23.32 94 24 C94.54140625 24.2165625 95.0828125 24.433125 95.640625 24.65625 C98.81645344 26.46499997 101.20728081 28.91723799 103.75 31.5 C104.25660156 31.99886719 104.76320313 32.49773438 105.28515625 33.01171875 C109 36.74658861 109 36.74658861 109 39 C109.53753906 39.20882812 110.07507813 39.41765625 110.62890625 39.6328125 C113.91440484 41.52725156 116.33281582 44.16300673 118.9375 46.875 C121.81952752 49.8549077 124.61043487 52.69447945 127.87890625 55.2578125 C128.57886719 55.83273438 129.27882813 56.40765625 130 57 C130 57.66 130 58.32 130 59 C112.67622648 59.0233285 95.35245784 59.04097893 78.02867222 59.05181217 C69.98549946 59.05697523 61.94233643 59.06401812 53.89916992 59.07543945 C46.8912704 59.08538598 39.88337792 59.09185335 32.87547153 59.09408849 C29.16256808 59.09539566 25.4496848 59.09848184 21.7367878 59.10573006 C17.59868589 59.11374332 13.46061939 59.11399116 9.32250977 59.11352539 C7.46243034 59.1189183 7.46243034 59.1189183 5.56477356 59.12442017 C3.88408783 59.12235817 3.88408783 59.12235817 2.16944885 59.12025452 C1.18958291 59.12117631 0.20971697 59.1220981 -0.79984188 59.12304783 C-3 59 -3 59 -4 58 C-4.0935919 56.28134591 -4.11744611 54.55884256 -4.11352539 52.83764648 C-4.11344986 51.73658066 -4.11337433 50.63551483 -4.11329651 49.50108337 C-4.10813522 48.3031868 -4.10297394 47.10529022 -4.09765625 45.87109375 C-4.0962413 44.65172623 -4.09482635 43.4323587 -4.09336853 42.17604065 C-4.08774967 38.2631693 -4.07519396 34.35035419 -4.0625 30.4375 C-4.05748743 27.79231853 -4.0529241 25.14713617 -4.04882812 22.50195312 C-4.03777411 16.00128274 -4.02101764 9.50064539 -4 3 C-2.68 2.67 -1.36 2.34 0 2 C0 1.34 0 0.68 0 0 Z " fill="#1177CB" transform="translate(202,28)"/>
<path d="M0 0 C13.16671134 -1.20611096 13.16671134 -1.20611096 17.2265625 1.46484375 C20.29974608 5.44422249 21.89248252 9.96368383 23.30859375 14.74609375 C24.93910264 20.0613685 27.53195115 25.02848022 29.9296875 30.03125 C36.77635459 44.3562189 36.77635459 44.3562189 39 52 C39.66 52 40.32 52 41 52 C44.57076746 58.8952751 47.47222927 65.36114634 49 73 C44.05 73 39.1 73 34 73 C31.69 68.38 29.38 63.76 27 59 C7.695 58.505 7.695 58.505 -12 58 C-12.99 61.63 -13.98 65.26 -15 69 C-15.99 70.32 -16.98 71.64 -18 73 C-20.71229503 73.29642569 -22.99739732 73.38061189 -25.6875 73.25 C-26.38939453 73.23195313 -27.09128906 73.21390625 -27.81445312 73.1953125 C-29.54355436 73.14826213 -31.27195205 73.07651873 -33 73 C-32.45958616 69.10902038 -31.4080317 67.05379458 -29 64 C-28.29972257 62.48228846 -27.65552672 60.93773994 -27.0625 59.375 C-26.72863281 58.50875 -26.39476562 57.6425 -26.05078125 56.75 C-25.53064453 55.38875 -25.53064453 55.38875 -25 54 C-24.25307766 52.12377186 -23.50321108 50.24871238 -22.75 48.375 C-22.41484375 47.53710938 -22.0796875 46.69921875 -21.734375 45.8359375 C-21.49203125 45.23007812 -21.2496875 44.62421875 -21 44 C-20.34 44 -19.68 44 -19 44 C-18.896875 42.989375 -18.79375 41.97875 -18.6875 40.9375 C-17.45117624 33.85673664 -14.22342403 28.08410429 -10.0625 22.3125 C-7.89614492 18.83320245 -6.47416251 15.4274726 -5.015625 11.61328125 C-3.48640239 7.67847384 -1.74506584 3.84285775 0 0 Z " fill="#262523" transform="translate(234,260)"/>
<path d="M0 0 C0.97484848 0.00222061 1.94969696 0.00444122 2.9540863 0.00672913 C4.05515213 0.00680466 5.15621796 0.00688019 6.29064941 0.00695801 C7.48854599 0.01211929 8.68644257 0.01728058 9.92063904 0.02259827 C11.14000656 0.02401321 12.35937408 0.02542816 13.61569214 0.02688599 C17.52856349 0.03250485 21.4413786 0.04506055 25.35423279 0.05775452 C27.99941426 0.06276709 30.64459662 0.06733041 33.28977966 0.07142639 C39.79045005 0.08248041 46.2910874 0.09923688 52.79173279 0.12025452 C52.79173279 1.44025452 52.79173279 2.76025452 52.79173279 4.12025452 C52.13173279 4.12025452 51.47173279 4.12025452 50.79173279 4.12025452 C50.52360779 4.86275452 50.25548279 5.60525452 49.97923279 6.37025452 C47.89085006 11.20650925 47.89085006 11.20650925 45.79173279 13.12025452 C42.56222446 13.69975164 39.36390471 13.58388692 36.09251404 13.51087952 C35.14232895 13.50521973 34.19214386 13.49955994 33.21316528 13.49372864 C30.17634335 13.47132599 27.14069848 13.42112222 24.10423279 13.37025452 C22.04630711 13.35019455 19.98836295 13.33194291 17.93040466 13.31556702 C12.88372672 13.27144839 7.83792935 13.20239382 2.79173279 13.12025452 C2.93199562 15.43309907 3.07908837 17.74553042 3.22923279 20.05775452 C3.31044373 21.34552795 3.39165466 22.63330139 3.47532654 23.96009827 C3.44092467 26.98049408 3.44092467 26.98049408 4.79173279 28.12025452 C7.50810167 28.2311384 10.20329618 28.28190776 12.92063904 28.29603577 C14.61270848 28.31925507 16.30476578 28.34337323 17.99681091 28.36830139 C20.66721966 28.40326783 23.33718859 28.43266827 26.00779724 28.44618225 C28.5834591 28.46177197 31.15782464 28.50207327 33.73313904 28.54603577 C34.51991531 28.54412735 35.30669159 28.54221893 36.11730957 28.54025269 C42.38458672 28.67679058 47.77558577 30.27849559 52.42375183 34.65791321 C56.79915572 39.60289153 56.5724622 45.25463544 56.47923279 51.55775452 C56.50694763 52.55613342 56.53466248 53.55451233 56.56321716 54.58314514 C56.54374586 60.50631403 55.85340358 64.98707805 51.77441406 69.47927856 C45.58510532 74.60189052 35.00469799 73.38748051 27.44017029 73.31556702 C26.30012543 73.31273712 25.16008057 73.30990723 23.98548889 73.30699158 C20.37912565 73.29588384 16.77301973 73.27079684 13.16673279 73.24525452 C10.70710098 73.23521256 8.24746525 73.22608884 5.78782654 73.21791077 C-0.21095773 73.19597539 -6.20959408 73.16259267 -12.20826721 73.12025452 C-10.20826721 69.12025452 -8.20826721 65.12025452 -6.20826721 61.12025452 C-5.66147308 61.11216766 -5.11467896 61.10408081 -4.55131531 61.0957489 C1.12626393 61.00986683 6.80348739 60.91037126 12.48069763 60.8028717 C14.60107969 60.7645261 16.72152805 60.72968319 18.84202576 60.69837952 C21.88539877 60.65284986 24.92831311 60.59483612 27.97142029 60.53431702 C29.39960587 60.5169902 29.39960587 60.5169902 30.85664368 60.49931335 C31.7374057 60.47944366 32.61816772 60.45957397 33.52561951 60.43910217 C34.30283356 60.4257785 35.08004761 60.41245483 35.8808136 60.39872742 C38.03062749 60.27985876 38.03062749 60.27985876 39.79173279 58.12025452 C40.03551162 54.76281339 40.03551162 54.76281339 39.91673279 50.99525452 C39.89868591 49.71392639 39.88063904 48.43259827 39.86204529 47.11244202 C39.83884216 46.12502014 39.81563904 45.13759827 39.79173279 44.12025452 C36.68620512 42.56749068 33.37909414 42.92131729 29.96751404 42.87416077 C28.36529546 42.8412014 26.76308205 42.80799013 25.16087341 42.77455139 C22.63755612 42.72730193 20.11425654 42.68291127 17.59080505 42.64344788 C15.15364479 42.60345517 12.71692602 42.55195722 10.28001404 42.49916077 C9.53496109 42.49074661 8.78990814 42.48233246 8.02227783 42.47366333 C1.05957106 42.31132183 -5.16911089 41.2993874 -10.20826721 36.12025452 C-14.48256352 29.48772576 -13.85072128 21.76381063 -13.20826721 14.12025452 C-12.47664502 11.16012793 -11.55546838 8.87079023 -10.20826721 6.12025452 C-9.54826721 6.12025452 -8.88826721 6.12025452 -8.20826721 6.12025452 C-8.20826721 5.46025452 -8.20826721 4.80025452 -8.20826721 4.12025452 C-6.57194829 3.07133213 -4.90340858 2.07118748 -3.20826721 1.12025452 C-2.20826721 0.12025452 -2.20826721 0.12025452 0 0 Z " fill="#22211F" transform="translate(304.20826721191406,259.87974548339844)"/>
<path d="M0 0 C20.79 0 41.58 0 63 0 C62.67 1.65 62.34 3.3 62 5 C61.01 5 60.02 5 59 5 C58.690625 5.969375 58.38125 6.93875 58.0625 7.9375 C57 11 57 11 56 12 C52.97022196 12.08871273 49.96332978 12.1151935 46.93359375 12.09765625 C46.02497086 12.0962413 45.11634796 12.09482635 44.18019104 12.09336853 C41.26592779 12.08775193 38.35174019 12.07519665 35.4375 12.0625 C33.46679798 12.05748714 31.49609476 12.05292386 29.52539062 12.04882812 C24.68356441 12.03777711 19.84179505 12.02050138 15 12 C15 17.61 15 23.22 15 29 C28.2 29 41.4 29 55 29 C55 32.96 55 36.92 55 41 C41.8 41 28.6 41 15 41 C15.33 46.94 15.66 52.88 16 59 C29.86 59.33 43.72 59.66 58 60 C58.66 61.65 59.32 63.3 60 65 C60.66 65 61.32 65 62 65 C62.495 68.465 62.495 68.465 63 72 C42.21 72 21.42 72 0 72 C0 48.24 0 24.48 0 0 Z " fill="#232220" transform="translate(374,261)"/>
<path d="M0 0 C4.62 0 9.24 0 14 0 C14 9.57 14 19.14 14 29 C27.53 29 41.06 29 55 29 C55 19.43 55 9.86 55 0 C59.62 0 64.24 0 69 0 C69 23.76 69 47.52 69 72 C64.38 72 59.76 72 55 72 C55 61.77 55 51.54 55 41 C41.47 41 27.94 41 14 41 C14 51.23 14 61.46 14 72 C9.38 72 4.76 72 0 72 C0 48.24 0 24.48 0 0 Z " fill="#242322" transform="translate(122,261)"/>
<path d="M0 0 C1.5910833 0.00022659 1.5910833 0.00022659 3.21430969 0.00045776 C4.91456551 0.01594162 4.91456551 0.01594162 6.64916992 0.03173828 C7.81848557 0.03456818 8.98780121 0.03739807 10.19255066 0.04031372 C13.92168475 0.05149516 17.65057735 0.07659644 21.37963867 0.10205078 C23.91023416 0.1120832 26.44083341 0.12120859 28.97143555 0.12939453 C35.17008544 0.15142786 41.3685948 0.18488544 47.56713867 0.22705078 C48.56713867 3.22705078 48.56713867 3.22705078 47.56713867 6.22705078 C46.90713867 6.22705078 46.24713867 6.22705078 45.56713867 6.22705078 C44.90713867 7.54705078 44.24713867 8.86705078 43.56713867 10.22705078 C42.90713867 10.22705078 42.24713867 10.22705078 41.56713867 10.22705078 C41.23713867 11.21705078 40.90713867 12.20705078 40.56713867 13.22705078 C39.381604 13.23115967 38.19606934 13.23526855 36.97460938 13.23950195 C32.56661795 13.26131067 28.15951696 13.31561819 23.75195312 13.37963867 C21.8461156 13.40280355 19.94015034 13.41721085 18.03417969 13.42260742 C15.29045144 13.4319082 12.54872804 13.47292149 9.80541992 13.52001953 C8.95627518 13.51608688 8.10713043 13.51215424 7.23225403 13.50810242 C3.12043005 13.60900655 1.0326565 13.92237533 -2.47973633 16.22119141 C-5.12479534 20.29193723 -5.0733974 23.27608539 -4.92114258 28.02783203 C-4.91406784 28.864207 -4.9069931 29.70058197 -4.89970398 30.56230164 C-4.87181118 33.2223113 -4.80908614 35.88018217 -4.74536133 38.53955078 C-4.72027167 40.34746299 -4.69745966 42.15540835 -4.67700195 43.96337891 C-4.62200175 48.38542151 -4.53576775 52.80587409 -4.43286133 57.22705078 C1.20231105 60.06945423 5.73417206 60.69103255 12.00073242 60.73876953 C12.87866959 60.75672073 13.75660675 60.77467194 14.66114807 60.79316711 C17.44226396 60.84698757 20.22321105 60.88107442 23.00463867 60.91455078 C24.89984431 60.94774886 26.79502776 60.98224081 28.69018555 61.01806641 C33.31571422 61.10269753 37.94119529 61.16964278 42.56713867 61.22705078 C43.23800987 62.85031948 43.90370896 64.47572656 44.56713867 66.10205078 C44.93838867 67.00697266 45.30963867 67.91189453 45.69213867 68.84423828 C46.56713867 71.22705078 46.56713867 71.22705078 46.56713867 73.22705078 C39.30809289 73.30336282 32.0491513 73.35576062 24.78979492 73.3918457 C22.32230768 73.4068953 19.85484702 73.42733969 17.38745117 73.45336914 C13.83269676 73.48992004 10.27829728 73.50681596 6.72338867 73.52001953 C5.07916931 73.54324532 5.07916931 73.54324532 3.4017334 73.56694031 C-2.93473312 73.56832025 -7.689057 72.97281646 -13.43286133 70.22705078 C-15.30786133 68.25439453 -15.30786133 68.25439453 -16.43286133 66.16455078 C-17.02067383 65.12621094 -17.02067383 65.12621094 -17.62036133 64.06689453 C-18.43286133 62.22705078 -18.43286133 62.22705078 -18.43286133 60.22705078 C-19.09286133 60.22705078 -19.75286133 60.22705078 -20.43286133 60.22705078 C-21.57003221 57.95270902 -21.55952517 56.70122123 -21.56225586 54.17626953 C-21.56540802 53.34200439 -21.56856018 52.50773926 -21.57180786 51.64819336 C-21.56877151 50.29504028 -21.56877151 50.29504028 -21.56567383 48.91455078 C-21.56710892 47.52755981 -21.56710892 47.52755981 -21.568573 46.11254883 C-21.56925416 44.15559827 -21.56740433 42.19864545 -21.56323242 40.24169922 C-21.55788328 37.23936915 -21.56317958 34.23718868 -21.56958008 31.23486328 C-21.56891929 29.33642545 -21.5676381 27.43798771 -21.56567383 25.53955078 C-21.56769806 24.63744873 -21.56972229 23.73534668 -21.57180786 22.8059082 C-21.5686557 21.97164307 -21.56550354 21.13737793 -21.56225586 20.27783203 C-21.56146027 19.54218018 -21.56066467 18.80652832 -21.55984497 18.04858398 C-21.43286133 16.22705078 -21.43286133 16.22705078 -20.43286133 14.22705078 C-19.77286133 14.22705078 -19.11286133 14.22705078 -18.43286133 14.22705078 C-18.41223633 13.54642578 -18.39161133 12.86580078 -18.37036133 12.16455078 C-16.97404395 7.78942299 -14.01522478 5.02665371 -10.43286133 2.22705078 C-6.81856163 0.51403954 -3.98522748 -0.01902257 0 0 Z " fill="#1E1D1B" transform="translate(63.432861328125,259.77294921875)"/>
<path d="M0 0 C0.66 0 1.32 0 2 0 C2 44.22 2 88.44 2 134 C-16.15 134 -34.3 134 -53 134 C-57.49371809 129.50628191 -57.50229142 129.04993475 -57.51757812 123.09179688 C-57.5245874 122.40513443 -57.53159668 121.71847198 -57.53881836 121.01100159 C-57.55639013 118.74650349 -57.54477995 116.48326028 -57.53125 114.21875 C-57.53394519 112.64220948 -57.53782783 111.06567058 -57.54284668 109.48913574 C-57.54874056 106.18709466 -57.54018278 102.88548677 -57.52148438 99.58349609 C-57.49869431 95.3529894 -57.51181807 91.12349772 -57.53577423 86.89302826 C-57.55023551 83.63816697 -57.54562483 80.38354593 -57.53526306 77.12867737 C-57.53259666 75.56897359 -57.53586254 74.00924792 -57.54518127 72.4495697 C-57.55535302 70.26852738 -57.53984041 68.08912353 -57.51757812 65.90820312 C-57.51439575 64.66784302 -57.51121338 63.42748291 -57.50793457 62.14953613 C-56.90996422 58.44171756 -55.97182582 57.22709247 -53 55 C-52.34 55 -51.68 55 -51 55 C-51 54.34 -51 53.68 -51 53 C-50.34 53 -49.68 53 -49 53 C-48.773125 52.443125 -48.54625 51.88625 -48.3125 51.3125 C-46.63283282 48.35308639 -44.43248148 46.37591214 -42 44 C-41.0935705 42.9045152 -40.19753541 41.80034038 -39.3125 40.6875 C-38.549375 39.800625 -37.78625 38.91375 -37 38 C-36.34 38 -35.68 38 -35 38 C-35 37.34 -35 36.68 -35 36 C-34.34 36 -33.68 36 -33 36 C-33.33 37.32 -33.66 38.64 -34 40 C-34.66 40 -35.32 40 -36 40 C-36.0825 40.9075 -36.165 41.815 -36.25 42.75 C-37.10926551 46.47348388 -38.27989974 47.44990601 -41 50 C-41.7872678 52.1381966 -41.7872678 52.1381966 -42 54 C-43.65 53.67 -45.3 53.34 -47 53 C-47.6814823 54.89179203 -47.6814823 54.89179203 -48 57 C-47.34 57.66 -46.68 58.32 -46 59 C-47.98 58.67 -49.96 58.34 -52 58 C-51.16666667 60.16666667 -51.16666667 60.16666667 -49 61 C-50.32 61.66 -51.64 62.32 -53 63 C-53.02314265 71.44040261 -53.04092492 79.88079202 -53.05181217 88.32121849 C-53.05703678 92.2401987 -53.0641268 96.15915726 -53.07543945 100.078125 C-53.08628329 103.85822386 -53.09228002 107.63830186 -53.09487724 111.41841507 C-53.09672878 112.86254836 -53.10034424 114.30668047 -53.10573006 115.7508049 C-53.1129602 117.76924277 -53.11340823 119.78770153 -53.11352539 121.80615234 C-53.115746 122.95642914 -53.11796661 124.10670593 -53.12025452 125.2918396 C-53.18552097 127.96820459 -53.18552097 127.96820459 -52 130 C-39.625 129.505 -39.625 129.505 -27 129 C-26.67 128.34 -26.34 127.68 -26 127 C-21.38 127 -16.76 127 -12 127 C-11.67 127.99 -11.34 128.98 -11 130 C-7.7 130 -4.4 130 -1 130 C-1 90.07 -1 50.14 -1 9 C-0.34 9 0.32 9 1 9 C0.505 6.03 0.505 6.03 0 3 C-0.99 3.66 -1.98 4.32 -3 5 C-1.125 1.125 -1.125 1.125 0 0 Z " fill="#2D80C5" transform="translate(187,35)"/>
<path d="M0 0 C0.495 3.465 0.495 3.465 1 7 C0.17491943 6.18958252 -0.65016113 5.37916504 -1.50024414 4.54418945 C-7.46916447 0.31720204 -14.9899097 1.27213924 -21.99609375 1.29296875 C-23.55552593 1.27984106 -25.11494115 1.26453355 -26.67433167 1.24714661 C-30.75964383 1.20740816 -34.84451006 1.19711346 -38.92999268 1.19311523 C-43.10645988 1.18376258 -47.28266737 1.14633583 -51.45898438 1.11132812 C-59.63932786 1.04686609 -67.81941441 1.01353285 -76 1 C-76 1.66 -76 2.32 -76 3 C-76.99 3.33 -77.98 3.66 -79 4 C-79 22.15 -79 40.3 -79 59 C-13.165 59.495 -13.165 59.495 54 60 C53.01 58.02 53.01 58.02 52 56 C52.99 56.33 53.98 56.66 55 57 C55 58.32 55 59.64 55 61 C37.30234606 61.02333631 19.6046961 61.04098278 1.90703011 61.05181217 C-6.30986927 61.05697357 -14.5267591 61.0640133 -22.74365234 61.07543945 C-29.90354866 61.08539105 -37.06343807 61.09185457 -44.22334111 61.09408849 C-48.0162009 61.09539479 -51.80904091 61.09847554 -55.60189438 61.10573006 C-59.16899976 61.11249776 -62.73607714 61.11461542 -66.30318832 61.11310768 C-68.24226996 61.11351565 -70.18134852 61.11890696 -72.12042236 61.12442017 C-73.26749664 61.1230455 -74.41457092 61.12167084 -75.59640503 61.12025452 C-76.59747221 61.12117631 -77.59853939 61.1220981 -78.62994194 61.12304783 C-81 61 -81 61 -83 60 C-83.40729228 57.67843403 -83.74438677 55.3431213 -84 53 C-84.99 53 -85.98 53 -87 53 C-87 82.37 -87 111.74 -87 142 C-87.66 142 -88.32 142 -89 142 C-89 97.78 -89 53.56 -89 8 C-89.66 7.67 -90.32 7.34 -91 7 C-89.88625 6.5875 -88.7725 6.175 -87.625 5.75 C-84.32656983 4.36188309 -83.43172752 3.30398658 -82 0 C-78.45454239 -1.32218661 -74.77479261 -1.17255835 -71.03173828 -1.23706055 C-70.33853485 -1.25017273 -69.64533142 -1.26328491 -68.93112183 -1.27679443 C-66.64424083 -1.31850196 -64.35732542 -1.35307221 -62.0703125 -1.38671875 C-60.47614363 -1.41238991 -58.88197658 -1.43817383 -57.28781128 -1.46406555 C-53.94728736 -1.51699091 -50.60673067 -1.56591752 -47.26611328 -1.61254883 C-42.99333867 -1.67288326 -38.72093008 -1.74713325 -34.44844246 -1.82492352 C-31.15592543 -1.88263463 -27.86331841 -1.93087768 -24.57061386 -1.976511 C-22.99576325 -1.99985412 -21.42095901 -2.02658905 -19.84622574 -2.05682945 C-17.63984729 -2.09818172 -15.43366832 -2.12624394 -13.22705078 -2.15112305 C-11.973367 -2.17031296 -10.71968323 -2.18950287 -9.42800903 -2.20927429 C-5.94970973 -1.99692986 -3.23531413 -1.25760085 0 0 Z " fill="#D7ECF7" transform="translate(278,27)"/>
<path d="M0 0 C2.4375 0.8125 2.4375 0.8125 5 2 C6.3066568 5.91997041 6.18421613 9.66486383 6.1875 13.75 C6.19974609 14.53632813 6.21199219 15.32265625 6.22460938 16.1328125 C6.24114724 22.77000886 5.63318163 28.88611757 1 34 C-5.91351201 36.77474641 -14.0361808 36.26485744 -21.3515625 36.1953125 C-22.49160736 36.1924826 -23.63165222 36.18965271 -24.8062439 36.18673706 C-28.41260714 36.17562932 -32.01871305 36.15054232 -35.625 36.125 C-38.08463181 36.11495804 -40.54426754 36.10583433 -43.00390625 36.09765625 C-49.00269052 36.07572087 -55.00132686 36.04233815 -61 36 C-59 32 -57 28 -55 24 C-54.42814972 23.99191315 -53.85629944 23.98382629 -53.26712036 23.97549438 C-47.33003001 23.88962052 -41.39328019 23.79012527 -35.45654297 23.68261719 C-33.2391531 23.64426866 -31.02169976 23.60942629 -28.80419922 23.578125 C-25.62183911 23.53260174 -22.43991818 23.47458681 -19.2578125 23.4140625 C-18.26194122 23.40251129 -17.26606995 23.39096008 -16.24002075 23.37905884 C-14.85881546 23.3492543 -14.85881546 23.3492543 -13.44970703 23.31884766 C-12.23059128 23.29886215 -12.23059128 23.29886215 -10.98684692 23.2784729 C-8.76959942 23.17100919 -8.76959942 23.17100919 -7 21 C-6.65389528 18.23992437 -6.55749203 15.5051318 -6.44140625 12.7265625 C-5.94440001 9.65655935 -4.85021685 8.42228947 -3 6 C-3.495 4.515 -3.495 4.515 -4 3 C-2.35 3 -0.7 3 1 3 C0.505 1.515 0.505 1.515 0 0 Z " fill="#242322" transform="translate(353,297)"/>
<path d="M0 0 C0 0.66 0 1.32 0 2 C-0.84304688 2.06058594 -1.68609375 2.12117187 -2.5546875 2.18359375 C-3.65039062 2.26738281 -4.74609375 2.35117188 -5.875 2.4375 C-6.96554687 2.51871094 -8.05609375 2.59992188 -9.1796875 2.68359375 C-11.94728971 2.83001703 -11.94728971 2.83001703 -14 4 C-16.90811566 4.0986272 -19.79229937 4.13627099 -22.70068359 4.12939453 C-24.05210701 4.13202301 -24.05210701 4.13202301 -25.43083191 4.13470459 C-28.42005316 4.13911893 -31.40921561 4.13618608 -34.3984375 4.1328125 C-36.47107962 4.13348578 -38.54372167 4.134456 -40.61636353 4.13571167 C-44.96592967 4.13718817 -49.3154753 4.13503604 -53.66503906 4.13037109 C-59.24271469 4.12468094 -64.82034213 4.1279486 -70.39801598 4.13394356 C-74.68049482 4.1375565 -78.96296224 4.13640708 -83.24544144 4.13381577 C-85.30195751 4.13314816 -87.35847461 4.13396913 -89.41498947 4.13629532 C-92.29019671 4.13883303 -95.16532592 4.13496504 -98.04052734 4.12939453 C-98.89262283 4.13141876 -99.74471832 4.13344299 -100.62263489 4.13552856 C-101.80032188 4.13129883 -101.80032188 4.13129883 -103.00180054 4.12698364 C-103.68132971 4.12660662 -104.36085888 4.12622959 -105.06097984 4.12584114 C-107.13940126 3.99095295 -108.9984059 3.56277035 -111 3 C-111 3.66 -111 4.32 -111 5 C-74.7 5 -38.4 5 -1 5 C-0.505 6.485 -0.505 6.485 0 8 C-0.69867188 8.06058594 -1.39734375 8.12117187 -2.1171875 8.18359375 C-3.02726562 8.26738281 -3.93734375 8.35117188 -4.875 8.4375 C-5.77992188 8.51871094 -6.68484375 8.59992188 -7.6171875 8.68359375 C-10.01110861 8.86989285 -10.01110861 8.86989285 -12 10 C-13.40192061 10.09382343 -14.80820034 10.12629554 -16.21325684 10.12698364 C-17.09660202 10.12980347 -17.9799472 10.13262329 -18.89006042 10.13552856 C-19.86155533 10.13350433 -20.83305023 10.1314801 -21.83398438 10.12939453 C-22.85518875 10.13114685 -23.87639313 10.13289917 -24.92854309 10.13470459 C-28.31696249 10.13911951 -31.70533004 10.13618636 -35.09375 10.1328125 C-37.44022634 10.13348564 -39.78670261 10.13445575 -42.13317871 10.13571167 C-47.0560777 10.13718816 -51.97895858 10.13503565 -56.90185547 10.13037109 C-63.22407218 10.12467384 -69.54624645 10.12795311 -75.86846161 10.13394356 C-80.71531496 10.13755049 -85.56215819 10.13640997 -90.40901184 10.13381577 C-92.74070745 10.13314686 -95.07240396 10.13397364 -97.40409851 10.13629532 C-100.6580958 10.13882399 -103.91202354 10.13497817 -107.16601562 10.12939453 C-108.62325798 10.13243088 -108.62325798 10.13243088 -110.10993958 10.13552856 C-110.99328476 10.13270874 -111.87662994 10.12988892 -112.78674316 10.12698364 C-113.55660805 10.12660662 -114.32647293 10.12622959 -115.11966705 10.12584114 C-117 10 -117 10 -119 9 C-119.103125 8.195625 -119.20625 7.39125 -119.3125 6.5625 C-119.6528125 5.2940625 -119.6528125 5.2940625 -120 4 C-122.47636012 2.62533375 -122.47636012 2.62533375 -125 2 C-125 1.34 -125 0.68 -125 0 C-109.14504135 -0.15387979 -93.29003964 -0.30191366 -77.43496227 -0.4429636 C-70.07339317 -0.50859031 -62.71185103 -0.57613924 -55.3503418 -0.64819336 C-48.93502122 -0.71098138 -42.51967936 -0.77018319 -36.10428602 -0.82505554 C-32.70652309 -0.85424326 -29.30879822 -0.88524234 -25.91109276 -0.92053413 C-22.12068479 -0.95900417 -18.33027348 -0.99113544 -14.53979492 -1.02172852 C-13.40979065 -1.03467453 -12.27978638 -1.04762054 -11.11553955 -1.06095886 C-9.56956337 -1.0715181 -9.56956337 -1.0715181 -7.99235535 -1.08229065 C-7.09545077 -1.09058679 -6.1985462 -1.09888292 -5.2744627 -1.10743046 C-3 -1 -3 -1 0 0 Z " fill="#0E78CD" transform="translate(268,180)"/>
<path d="M0 0 C44.88 0 89.76 0 136 0 C137.24990866 2.49981732 137.14723137 4.23134831 137.17700195 7.02880859 C137.19625481 8.60086563 137.19625481 8.60086563 137.21589661 10.2046814 C137.22328354 11.34112091 137.23067047 12.47756042 137.23828125 13.6484375 C137.246353 14.81251129 137.25442474 15.97658508 137.26274109 17.17593384 C137.27658918 19.64233914 137.28730807 22.10876366 137.29516602 24.57519531 C137.31239773 28.35258097 137.35628111 32.12909594 137.40039062 35.90625 C137.41051553 38.29947271 137.41903226 40.69270288 137.42578125 43.0859375 C137.44328934 44.21832855 137.46079742 45.3507196 137.47883606 46.51742554 C137.47444771 48.09893906 137.47444771 48.09893906 137.4699707 49.71240234 C137.47583694 50.63902679 137.48170319 51.56565125 137.48774719 52.52035522 C136.84671225 55.77929545 135.55799148 56.94705969 133 59 C129.58425542 60.13858153 126.90011532 60.16203657 123.29711914 60.20874023 C122.28197487 60.22341591 122.28197487 60.22341591 121.24632263 60.23838806 C119.00928707 60.26827641 116.77231076 60.28970461 114.53515625 60.30859375 C113.77062071 60.31516558 113.00608517 60.3217374 112.21838188 60.32850838 C108.17433394 60.36106737 104.13031205 60.385531 100.08618164 60.4050293 C96.73846285 60.42286881 93.39158226 60.45773388 90.04418945 60.50756836 C86.00115307 60.56768569 81.95889594 60.59849178 77.91543388 60.60820198 C76.37517662 60.61676908 74.83494091 60.63561854 73.29493904 60.6649456 C71.13978957 60.70378987 68.98769072 60.7049074 66.83227539 60.69702148 C65.60666397 60.70732895 64.38105255 60.71763641 63.11830139 60.72825623 C60 60 60 60 57.57298279 56.95643616 C57.05389847 55.98081223 56.53481415 55.00518829 56 54 C59.875 55.875 59.875 55.875 61 57 C63.20867831 57.09432985 65.42041521 57.11742431 67.63110352 57.11352539 C68.32375305 57.11367142 69.01640259 57.11381744 69.7300415 57.1139679 C72.02969446 57.11326874 74.32926737 57.10547628 76.62890625 57.09765625 C78.21931412 57.09579208 79.80972257 57.09436817 81.40013123 57.09336853 C85.5939593 57.08954329 89.78775295 57.07971295 93.98156738 57.06866455 C98.25788914 57.05845057 102.53421644 57.05387094 106.81054688 57.04882812 C115.20704708 57.03809069 123.60351926 57.02101419 132 57 C132 56.01 132 55.02 132 54 C132.66 54 133.32 54 134 54 C134 36.84 134 19.68 134 2 C91.1 2 48.2 2 4 2 C6.475 5.465 6.475 5.465 9 9 C5.55862568 7.4705003 2.7777867 5.54630448 0 3 C0 2.01 0 1.02 0 0 Z " fill="#76ABD2" transform="translate(136,177)"/>
<path d="M0 0 C54 0 54 0 59 4 C59.60800171 7.16299438 59.60800171 7.16299438 59.58349609 10.93994141 C59.58583252 11.62981644 59.58816895 12.31969147 59.59057617 13.0304718 C59.59218783 15.30494522 59.55819644 17.57737777 59.5234375 19.8515625 C59.51664702 21.4328844 59.51192546 23.01421643 59.50918579 24.59555054 C59.49851445 27.90612232 59.47183166 31.21601775 59.43212891 34.52636719 C59.3811787 38.77469722 59.35610655 43.02263922 59.34119225 47.27123451 C59.32641918 51.31889788 59.30118829 55.36646971 59.2734375 59.4140625 C59.26607134 60.57623732 59.26607134 60.57623732 59.25855637 61.76189041 C59.24231417 63.94764473 59.21891124 66.13319069 59.19287109 68.31884766 C59.18001068 69.56364899 59.16715027 70.80845032 59.15390015 72.0909729 C59 75 59 75 58 77 C57.34 77 56.68 77 56 77 C56.00222061 76.11716843 56.00444122 75.23433685 56.00672913 74.32475281 C56.02675356 66.01106707 56.04198515 57.69738941 56.05181217 49.38368511 C56.05703414 45.10937663 56.06411938 40.83508805 56.07543945 36.56079102 C56.08629265 32.43704342 56.09228202 28.31331499 56.09487724 24.18955421 C56.09672709 22.61506664 56.1003393 21.04058013 56.10573006 19.46610069 C56.11297274 17.26342871 56.11398957 15.06083624 56.11352539 12.8581543 C56.115746 11.60350876 56.11796661 10.34886322 56.12025452 9.05619812 C56.14047838 5.95696253 56.14047838 5.95696253 55 3 C37.51 2.67 20.02 2.34 2 2 C2.33 43.58 2.66 85.16 3 128 C4.32 128 5.64 128 7 128 C7.061875 127.21625 7.12375 126.4325 7.1875 125.625 C8 123 8 123 10.375 121.6875 C13 121 13 121 16 121 C15.55269531 121.3403125 15.10539062 121.680625 14.64453125 122.03125 C10.41171768 125.42472101 7.72578506 128.63065737 5.23828125 133.4609375 C4.82964844 133.96882812 4.42101562 134.47671875 4 135 C2.68 135 1.36 135 0 135 C0 90.45 0 45.9 0 0 Z " fill="#3984BE" transform="translate(280,95)"/>
<path d="M0 0 C8.98848674 -0.1626158 17.97646267 -0.28678181 26.9661026 -0.3626852 C31.14101841 -0.3991267 35.3149236 -0.44850555 39.48925781 -0.52807617 C43.52235249 -0.60446818 47.55447894 -0.64605854 51.58824158 -0.6641407 C53.12246434 -0.67701611 54.65663758 -0.7021602 56.19044495 -0.7401104 C69.70387238 -1.06098763 69.70387238 -1.06098763 75.00585938 3.54272461 C76.8157959 5.49278259 76.8157959 5.49278259 78 7 C77.01 7 76.02 7 75 7 C74.41812927 6.35125916 73.83625854 5.70251831 73.23675537 5.03411865 C70.18747194 2.26108214 68.29250046 2.48388686 64.21191406 2.45410156 C63.53833359 2.44376389 62.86475311 2.43342621 62.17076111 2.42277527 C59.95213803 2.39335994 57.7344277 2.39184849 55.515625 2.390625 C53.9743272 2.37564234 52.43304546 2.35891501 50.89178467 2.34051514 C46.84103659 2.2968383 42.79050507 2.27684202 38.73956299 2.26177979 C34.60358879 2.24220973 30.46784851 2.20023967 26.33203125 2.16015625 C18.22141537 2.08485064 10.11089134 2.03456156 2 2 C2 2.66 2 3.32 2 4 C0.35 4 -1.3 4 -3 4 C-3 21.49 -3 38.98 -3 57 C38.58 56.67 80.16 56.34 123 56 C122.01 54.02 122.01 54.02 121 52 C119.515 51.505 119.515 51.505 118 51 C117.67 49.35 117.34 47.7 117 46 C117.65355469 46.56267578 117.65355469 46.56267578 118.3203125 47.13671875 C119.21363281 47.90435547 119.21363281 47.90435547 120.125 48.6875 C120.75792969 49.23277344 121.39085937 49.77804688 122.04296875 50.33984375 C123.81640213 51.8442533 125.62132079 53.29792354 127.4375 54.75 C128.283125 55.4925 129.12875 56.235 130 57 C130 57.66 130 58.32 130 59 C112.67622648 59.0233285 95.35245784 59.04097893 78.02867222 59.05181217 C69.98549946 59.05697523 61.94233643 59.06401812 53.89916992 59.07543945 C46.8912704 59.08538598 39.88337792 59.09185335 32.87547153 59.09408849 C29.16256808 59.09539566 25.4496848 59.09848184 21.7367878 59.10573006 C17.59868589 59.11374332 13.46061939 59.11399116 9.32250977 59.11352539 C7.46243034 59.1189183 7.46243034 59.1189183 5.56477356 59.12442017 C3.88408783 59.12235817 3.88408783 59.12235817 2.16944885 59.12025452 C1.18958291 59.12117631 0.20971697 59.1220981 -0.79984188 59.12304783 C-3 59 -3 59 -4 58 C-4.0935919 56.28134591 -4.11744611 54.55884256 -4.11352539 52.83764648 C-4.11344986 51.73658066 -4.11337433 50.63551483 -4.11329651 49.50108337 C-4.10813522 48.3031868 -4.10297394 47.10529022 -4.09765625 45.87109375 C-4.0962413 44.65172623 -4.09482635 43.4323587 -4.09336853 42.17604065 C-4.08774967 38.2631693 -4.07519396 34.35035419 -4.0625 30.4375 C-4.05748743 27.79231853 -4.0529241 25.14713617 -4.04882812 22.50195312 C-4.03777411 16.00128274 -4.02101764 9.50064539 -4 3 C-2.68 2.67 -1.36 2.34 0 2 C0 1.34 0 0.68 0 0 Z " fill="#488DBF" transform="translate(202,28)"/>
<path d="M0 0 C20.79 0 41.58 0 63 0 C62.67 1.65 62.34 3.3 62 5 C61.505 3.02 61.505 3.02 61 1 C41.53 1 22.06 1 2 1 C2 23.44 2 45.88 2 69 C20.48 68.67 38.96 68.34 58 68 C58.33 67.34 58.66 66.68 59 66 C56.525 66.495 56.525 66.495 54 67 C54 66.01 54 65.02 54 64 C54.66 64 55.32 64 56 64 C56 63.01 56 62.02 56 61 C54.14483765 61.00785522 54.14483765 61.00785522 52.25219727 61.01586914 C47.68075275 61.03391561 43.10931141 61.04543071 38.5378418 61.05493164 C36.55606559 61.05997267 34.57429311 61.06680538 32.5925293 61.07543945 C29.75047891 61.08751515 26.90847753 61.09323045 24.06640625 61.09765625 C22.72891075 61.10539818 22.72891075 61.10539818 21.36439514 61.11329651 C19.24259399 61.11349177 17.1208922 61.0621003 15 61 C14 60 14 60 13.88647461 58.14233398 C13.89171143 57.35157471 13.89694824 56.56081543 13.90234375 55.74609375 C13.90556641 54.89208984 13.90878906 54.03808594 13.91210938 53.15820312 C13.92048828 52.26037109 13.92886719 51.36253906 13.9375 50.4375 C13.94201172 49.53580078 13.94652344 48.63410156 13.95117188 47.70507812 C13.96299775 45.46998686 13.9794778 43.23502563 14 41 C14.33 41 14.66 41 15 41 C15.33 46.94 15.66 52.88 16 59 C29.86 59.33 43.72 59.66 58 60 C58.66 61.65 59.32 63.3 60 65 C60.66 65 61.32 65 62 65 C62.495 68.465 62.495 68.465 63 72 C42.21 72 21.42 72 0 72 C0 48.24 0 24.48 0 0 Z " fill="#434240" transform="translate(374,261)"/>
<path d="M0 0 C0.99 0 1.98 0 3 0 C3.05067793 7.33232678 3.08572428 14.66460844 3.10986328 21.99707031 C3.11992561 24.49187915 3.13357679 26.98667618 3.15087891 29.48144531 C3.17511668 33.06578484 3.18648082 36.64996853 3.1953125 40.234375 C3.20563507 41.35116638 3.21595764 42.46795776 3.22659302 43.61859131 C3.22674408 44.65936829 3.22689514 45.70014526 3.22705078 46.77246094 C3.231492 47.68735291 3.23593323 48.60224487 3.24050903 49.54486084 C2.98635175 52.13932269 2.31398098 53.76969393 1 56 C-8.06692076 56.20947169 -17.13299617 56.36891226 -26.20181751 56.46630955 C-30.41398504 56.5130811 -34.62448531 56.57640543 -38.83569336 56.67895508 C-42.90776873 56.77748447 -46.97825157 56.83070793 -51.05142784 56.85389519 C-52.59722635 56.87039555 -54.14294756 56.90261781 -55.68805885 56.95157051 C-65.33442028 57.24474945 -71.50149355 56.22317669 -78.88456726 49.32847595 C-80.73432734 47.29242831 -82.41061385 45.24275523 -84 43 C-82.02 42.505 -82.02 42.505 -80 42 C-79.7525 42.78375 -79.505 43.5675 -79.25 44.375 C-77.76880562 47.4855082 -77.02705226 47.61620468 -74 49 C-73.27222855 49.83391769 -72.54445709 50.66783539 -71.79463196 51.52702332 C-68.3039844 54.61590591 -66.69906289 54.60968065 -62.09838867 54.56762695 C-61.42466217 54.56835709 -60.75093567 54.56908722 -60.05679321 54.56983948 C-57.84301556 54.56637235 -55.63137597 54.52755972 -53.41796875 54.48828125 C-51.87812957 54.47894984 -50.3382755 54.47183527 -48.79841614 54.46684265 C-44.7554896 54.44779819 -40.71346848 54.39872094 -36.67089844 54.34332275 C-32.54179125 54.29207425 -28.41253703 54.26931675 -24.28320312 54.24414062 C-16.18838767 54.19059836 -8.09430662 54.10531812 0 54 C-0.495 49.545 -0.495 49.545 -1 45 C-0.34 45 0.32 45 1 45 C0.67 32.46 0.34 19.92 0 7 C-3.32175293 7.01047363 -6.64350586 7.02094727 -10.06591797 7.03173828 C-21.01827663 7.06481869 -31.97063745 7.0869459 -42.92303276 7.10362434 C-49.56606556 7.11407935 -56.20904735 7.1282698 -62.85205078 7.15087891 C-69.2581139 7.17254614 -75.66412784 7.18455568 -82.07022476 7.18975449 C-84.51915385 7.19346127 -86.96808012 7.20069925 -89.41698837 7.21146011 C-92.83648329 7.22589367 -96.25577269 7.22798136 -99.67529297 7.22705078 C-100.69668365 7.23424133 -101.71807434 7.24143188 -102.77041626 7.24884033 C-104.16287567 7.24471634 -104.16287567 7.24471634 -105.58346558 7.24050903 C-106.39279982 7.24235262 -107.20213406 7.24419621 -108.03599358 7.24609566 C-110 7 -110 7 -112 5 C-110.125 3.9375 -110.125 3.9375 -108 3 C-107.34 3.33 -106.68 3.66 -106 4 C-103.08133416 4.09863048 -100.18651211 4.1362707 -97.26757812 4.12939453 C-95.91133583 4.13202301 -95.91133583 4.13202301 -94.5276947 4.13470459 C-91.52886047 4.13911803 -88.53008487 4.13618689 -85.53125 4.1328125 C-83.45381662 4.13348568 -81.37638331 4.13445583 -79.2989502 4.13571167 C-74.94099173 4.13718795 -70.58305374 4.1350363 -66.22509766 4.13037109 C-60.62928895 4.12467385 -55.0335282 4.12795323 -49.43772125 4.13394356 C-45.14674516 4.13755103 -40.85578051 4.13640972 -36.56480408 4.13381577 C-34.5010528 4.13314701 -32.43730049 4.13397312 -30.37355042 4.13629532 C-27.49314611 4.13882488 -24.61282031 4.13497692 -21.73242188 4.12939453 C-20.87313583 4.13141876 -20.01384979 4.13344299 -19.12852478 4.13552856 C-14.93055014 4.23588564 -14.93055014 4.23588564 -11 3 C-8.95944995 2.92934383 -6.91665743 2.91578024 -4.875 2.9375 C-3.77929688 2.94652344 -2.68359375 2.95554688 -1.5546875 2.96484375 C-0.29011719 2.98224609 -0.29011719 2.98224609 1 3 C0.505 1.515 0.505 1.515 0 0 Z " fill="#1975BD" transform="translate(267,179)"/>
<path d="M0 0 C0.66 0 1.32 0 2 0 C2.33 1.65 2.66 3.3 3 5 C3.66 5 4.32 5 5 5 C5.67031719 6.9570868 6.33614683 8.91571113 7 10.875 C7.37125 11.96554687 7.7425 13.05609375 8.125 14.1796875 C9 17 9 17 9 19 C9.99 19.33 10.98 19.66 12 20 C13.6757874 23.35157479 14.25252887 26.26264434 15 30 C6.09 30 -2.82 30 -12 30 C-12 25.47800155 -11.69111939 23.65106106 -10 19.6875 C-9.62875 18.80449219 -9.2575 17.92148437 -8.875 17.01171875 C-8.58625 16.34785156 -8.2975 15.68398438 -8 15 C-7.01 15 -6.02 15 -5 15 C-4.83564453 14.00419922 -4.83564453 14.00419922 -4.66796875 12.98828125 C-3.01176471 3.76470588 -3.01176471 3.76470588 0 0 Z " fill="#F8F8F7" transform="translate(241,277)"/>
<path d="M0 0 C0.33 0 0.66 0 1 0 C1.06058594 0.92683594 1.12117188 1.85367187 1.18359375 2.80859375 C1.26738281 4.00613281 1.35117187 5.20367187 1.4375 6.4375 C1.51871094 7.63246094 1.59992188 8.82742188 1.68359375 10.05859375 C1.67656114 12.88570244 1.67656114 12.88570244 3 14 C5.71636889 14.11088388 8.41156339 14.16165325 11.12890625 14.17578125 C12.82097569 14.19900056 14.51303299 14.22311871 16.20507812 14.24804688 C18.87548687 14.28301331 21.5454558 14.31241375 24.21606445 14.32592773 C26.79172631 14.34151746 29.36609185 14.38181876 31.94140625 14.42578125 C32.72818253 14.42387283 33.5149588 14.42196442 34.32557678 14.41999817 C40.60643315 14.5568319 45.95509239 16.18015742 50.64364624 20.52215576 C55.1979382 25.5701889 54.57182014 31.51035014 54.3125 37.9375 C54.28994141 39.00291016 54.26738281 40.06832031 54.24414062 41.16601562 C54.18555756 43.77882022 54.10358677 46.38865733 54 49 C53.01 49.495 53.01 49.495 52 50 C52 41.75 52 33.5 52 25 C50.68 24.67 49.36 24.34 48 24 C48 24.66 48 25.32 48 26 C47.01 26.33 46.02 26.66 45 27 C44.34 26.67 43.68 26.34 43 26 C43 26.66 43 27.32 43 28 C43.99 28.33 44.98 28.66 46 29 C45.0409375 29.6496875 45.0409375 29.6496875 44.0625 30.3125 C41.26972297 33.9515731 41.47471222 36.94924092 41.37109375 41.44140625 C40.94867749 44.35385521 40.27057476 45.21124482 38 47 C37.01 46.505 37.01 46.505 36 46 C36.66 45.34 37.32 44.68 38 44 C38.24377883 40.64255888 38.24377883 40.64255888 38.125 36.875 C38.10695313 35.59367187 38.08890625 34.31234375 38.0703125 32.9921875 C38.04710937 32.00476563 38.02390625 31.01734375 38 30 C34.83538385 28.41769192 31.40920633 28.75842187 27.9296875 28.68359375 C27.13345978 28.66281265 26.33723206 28.64203156 25.51687622 28.62062073 C22.96967315 28.55515851 20.42236575 28.49625585 17.875 28.4375 C16.14972873 28.3943116 14.42446807 28.35069721 12.69921875 28.30664062 C8.46625315 28.19948055 4.23318247 28.09820377 0 28 C0 27.67 0 27.34 0 27 C10.23 27 20.46 27 31 27 C30.67 24.03 30.34 21.06 30 18 C30.66 17.67 31.32 17.34 32 17 C31.10692139 16.98541748 30.21384277 16.97083496 29.29370117 16.95581055 C25.97782722 16.89472923 22.66278101 16.82057522 19.34741211 16.73754883 C17.91295372 16.70430999 16.47836487 16.67627465 15.04370117 16.65356445 C12.98039193 16.61999729 10.91827697 16.56768587 8.85546875 16.51171875 C7.61434326 16.48553467 6.37321777 16.45935059 5.09448242 16.43237305 C2 16 2 16 0.09204102 14.64819336 C-1.59609851 12.1003217 -1.32251249 9.88426821 -1.25 6.875 C-1.23453125 5.79992187 -1.2190625 4.72484375 -1.203125 3.6171875 C-1 1 -1 1 0 0 Z " fill="#41403E" transform="translate(306,274)"/>
<path d="M0 0 C0.66 0 1.32 0 2 0 C1.67 1.32 1.34 2.64 1 4 C0.34 4 -0.32 4 -1 4 C-1.0825 4.9075 -1.165 5.815 -1.25 6.75 C-2.10926551 10.47348388 -3.27989974 11.44990601 -6 14 C-6.7872678 16.1381966 -6.7872678 16.1381966 -7 18 C-8.65 17.67 -10.3 17.34 -12 17 C-12.6814823 18.89179203 -12.6814823 18.89179203 -13 21 C-12.34 21.66 -11.68 22.32 -11 23 C-12.98 22.67 -14.96 22.34 -17 22 C-16.16666667 24.16666667 -16.16666667 24.16666667 -14 25 C-15.98 25.99 -15.98 25.99 -18 27 C-18.00808685 27.79291443 -18.01617371 28.58582886 -18.02450562 29.402771 C-18.10246606 36.87747147 -18.18976099 44.35197715 -18.28752708 51.82644272 C-18.33746005 55.66908919 -18.38379023 59.51170857 -18.421875 63.35449219 C-18.4587659 67.06341688 -18.50513596 70.77211329 -18.55806351 74.48084259 C-18.57658729 75.89536787 -18.59170272 77.30994205 -18.60334396 78.72454071 C-18.62024013 80.70675762 -18.65040923 82.68884792 -18.68115234 84.67089844 C-18.69447601 85.79896912 -18.70779968 86.92703979 -18.7215271 88.08929443 C-18.99229737 90.91948912 -19.53225544 92.5972224 -21 95 C-22.87517349 93.12482651 -22.15727089 89.93181888 -22.17700195 87.43237305 C-22.18357315 86.74614868 -22.19014435 86.05992432 -22.19691467 85.35290527 C-22.21669209 83.07250877 -22.22832062 80.79217828 -22.23828125 78.51171875 C-22.24235678 77.7343165 -22.2464323 76.95691425 -22.25063133 76.15595436 C-22.27151202 72.04057707 -22.28580447 67.92523331 -22.29516602 63.80981445 C-22.30622886 59.55579511 -22.34062102 55.30229911 -22.38033772 51.04846478 C-22.40647034 47.78079753 -22.41485488 44.5132555 -22.41844749 41.24549294 C-22.42332297 39.6773812 -22.43496433 38.10927542 -22.45348549 36.54126549 C-22.47780502 34.34569141 -22.4769259 32.15147776 -22.4699707 29.95581055 C-22.47583694 28.70640182 -22.48170319 27.4569931 -22.48774719 26.16972351 C-21.91350682 22.43790663 -20.99059509 21.23372993 -18 19 C-17.34 19 -16.68 19 -16 19 C-16 18.34 -16 17.68 -16 17 C-15.34 17 -14.68 17 -14 17 C-13.773125 16.443125 -13.54625 15.88625 -13.3125 15.3125 C-11.63283282 12.35308639 -9.43248148 10.37591214 -7 8 C-6.0935705 6.9045152 -5.19753541 5.80034038 -4.3125 4.6875 C-3.549375 3.800625 -2.78625 2.91375 -2 2 C-1.34 2 -0.68 2 0 2 C0 1.34 0 0.68 0 0 Z " fill="#4491CD" transform="translate(152,71)"/>
<path d="M0 0 C0.99261337 0.00222061 1.98522675 0.00444122 3.00791931 0.00672913 C4.12900589 0.00680466 5.25009247 0.00688019 6.40515137 0.00695801 C8.2348069 0.01469994 8.2348069 0.01469994 10.10142517 0.02259827 C11.96377052 0.02472069 11.96377052 0.02472069 13.86373901 0.02688599 C17.16982383 0.03154861 20.47584039 0.04053955 23.78190613 0.05158997 C27.15338042 0.06180625 30.52486175 0.06638407 33.89634705 0.07142639 C40.51550667 0.08248056 47.13463385 0.09923715 53.75376892 0.12025452 C53.75376892 0.45025452 53.75376892 0.78025452 53.75376892 1.12025452 C35.93376892 1.12025452 18.11376892 1.12025452 -0.24623108 1.12025452 C-0.24623108 45.67025452 -0.24623108 90.22025452 -0.24623108 136.12025452 C0.41376892 136.45025452 1.07376892 136.78025452 1.75376892 137.12025452 C0.76376892 137.45025452 -0.22623108 137.78025452 -1.24623108 138.12025452 C-2.20209496 134.8901618 -2.38446759 131.95935598 -2.41117859 128.59677124 C-2.42241257 127.47363525 -2.43364655 126.35049927 -2.44522095 125.19332886 C-2.45254745 123.96563278 -2.45987396 122.73793671 -2.46742249 121.47303772 C-2.47892838 120.17683502 -2.49043427 118.88063232 -2.50228882 117.54515076 C-2.53357083 113.99380627 -2.55871626 110.44244281 -2.58248568 106.89104104 C-2.60291433 103.92840605 -2.62644955 100.96579921 -2.65002286 98.00318784 C-2.70559699 91.0187187 -2.75633534 84.03422619 -2.80384827 77.04969788 C-2.8529957 69.83437068 -2.90929845 62.61912514 -2.96926939 55.40388042 C-3.02052733 49.21362725 -3.06788078 43.02335319 -3.11195695 36.83304471 C-3.13830633 33.13360279 -3.16604704 29.43418505 -3.19733047 25.73478127 C-3.23190696 21.61630949 -3.25830214 17.49782551 -3.28382874 13.37928772 C-3.2952037 12.14551895 -3.30657867 10.91175018 -3.31829834 9.64059448 C-3.32668983 7.96857971 -3.32668983 7.96857971 -3.33525085 6.26278687 C-3.34224817 5.2881162 -3.34924549 4.31344553 -3.35645485 3.30923939 C-3.20550115 0.31138007 -2.99813609 0.1605086 0 0 Z " fill="#DAF2FD" transform="translate(280.24623107910156,93.87974548339844)"/>
<path d="M0 0 C1.31742187 0.02707031 2.63484375 0.05414063 3.9921875 0.08203125 C7.24643587 0.15277578 10.49739748 0.25145939 13.75 0.375 C13.585 1.468125 13.42 2.56125 13.25 3.6875 C12.68281816 7.25025873 12.68281816 7.25025873 12.75 10.375 C0.87 10.375 -11.01 10.375 -23.25 10.375 C-22.59 9.055 -21.93 7.735 -21.25 6.375 C-20.26 6.375 -19.27 6.375 -18.25 6.375 C-17.82203125 5.39273437 -17.3940625 4.41046875 -16.953125 3.3984375 C-13.55484319 -2.10677903 -5.61721197 -0.21690224 0 0 Z " fill="#1C1B19" transform="translate(324.25,290.625)"/>
<path d="M0 0 C1.5910833 0.00022659 1.5910833 0.00022659 3.21430969 0.00045776 C4.91456551 0.01594162 4.91456551 0.01594162 6.64916992 0.03173828 C7.81848557 0.03456818 8.98780121 0.03739807 10.19255066 0.04031372 C13.92168475 0.05149516 17.65057735 0.07659644 21.37963867 0.10205078 C23.91023416 0.1120832 26.44083341 0.12120859 28.97143555 0.12939453 C35.17008544 0.15142786 41.3685948 0.18488544 47.56713867 0.22705078 C48.56713867 3.22705078 48.56713867 3.22705078 47.56713867 6.22705078 C46.90713867 6.22705078 46.24713867 6.22705078 45.56713867 6.22705078 C44.90713867 7.54705078 44.24713867 8.86705078 43.56713867 10.22705078 C43.56713867 7.6059137 43.88006312 5.71769966 44.56713867 3.22705078 C38.60807595 3.20219427 32.64904392 3.18411701 26.68994141 3.17211914 C24.66584751 3.1671134 22.64175719 3.16030682 20.61767578 3.15161133 C17.69587315 3.13938019 14.77411863 3.13378473 11.85229492 3.12939453 C10.95817398 3.12423325 10.06405304 3.11907196 9.14283752 3.11375427 C-0.58381295 2.4554405 -0.58381295 2.4554405 -8.99815369 5.76963806 C-9.47160721 6.25058426 -9.94506073 6.73153046 -10.43286133 7.22705078 C-11.42286133 7.22705078 -12.41286133 7.22705078 -13.43286133 7.22705078 C-13.43286133 8.21705078 -13.43286133 9.20705078 -13.43286133 10.22705078 C-14.42286133 10.22705078 -15.41286133 10.22705078 -16.43286133 10.22705078 C-16.76286133 12.86705078 -17.09286133 15.50705078 -17.43286133 18.22705078 C-18.09286133 18.22705078 -18.75286133 18.22705078 -19.43286133 18.22705078 C-19.10286133 32.08705078 -18.77286133 45.94705078 -18.43286133 60.22705078 C-19.09286133 60.22705078 -19.75286133 60.22705078 -20.43286133 60.22705078 C-21.57003221 57.95270902 -21.55952517 56.70122123 -21.56225586 54.17626953 C-21.56540802 53.34200439 -21.56856018 52.50773926 -21.57180786 51.64819336 C-21.56877151 50.29504028 -21.56877151 50.29504028 -21.56567383 48.91455078 C-21.56710892 47.52755981 -21.56710892 47.52755981 -21.568573 46.11254883 C-21.56925416 44.15559827 -21.56740433 42.19864545 -21.56323242 40.24169922 C-21.55788328 37.23936915 -21.56317958 34.23718868 -21.56958008 31.23486328 C-21.56891929 29.33642545 -21.5676381 27.43798771 -21.56567383 25.53955078 C-21.56769806 24.63744873 -21.56972229 23.73534668 -21.57180786 22.8059082 C-21.5686557 21.97164307 -21.56550354 21.13737793 -21.56225586 20.27783203 C-21.56146027 19.54218018 -21.56066467 18.80652832 -21.55984497 18.04858398 C-21.43286133 16.22705078 -21.43286133 16.22705078 -20.43286133 14.22705078 C-19.77286133 14.22705078 -19.11286133 14.22705078 -18.43286133 14.22705078 C-18.41223633 13.54642578 -18.39161133 12.86580078 -18.37036133 12.16455078 C-16.97404395 7.78942299 -14.01522478 5.02665371 -10.43286133 2.22705078 C-6.81856163 0.51403954 -3.98522748 -0.01902257 0 0 Z " fill="#6F6E6C" transform="translate(63.432861328125,259.77294921875)"/>
<path d="M0 0 C13.2 0 26.4 0 40 0 C44 10 44 10 44 12 C36.74095422 12.07631204 29.48201263 12.12870984 22.22265625 12.16479492 C19.75516901 12.17984452 17.28770835 12.2002889 14.8203125 12.22631836 C11.26555809 12.26286926 7.71115861 12.27976518 4.15625 12.29296875 C2.51203064 12.31619453 2.51203064 12.31619453 0.83459473 12.33988953 C-5.49095596 12.3412671 -10.27733621 11.77793924 -16 9 C-17.5 6.8125 -17.5 6.8125 -18 5 C-12.25 3.875 -12.25 3.875 -10 5 C-9.67 6.32 -9.34 7.64 -9 9 C6.84 9 22.68 9 39 9 C39 6.36 39 3.72 39 1 C26.13 1 13.26 1 0 1 C0 0.67 0 0.34 0 0 Z " fill="#201F1D" transform="translate(66,321)"/>
<path d="M0 0 C0.97040726 0.00888245 1.94081451 0.01776489 2.94062805 0.0269165 C4.04154282 0.02721863 5.14245758 0.02752075 6.2767334 0.02783203 C7.4643074 0.04847717 8.65188141 0.06912231 9.8754425 0.09039307 C11.70024895 0.09888275 11.70024895 0.09888275 13.56192017 0.10754395 C17.4545852 0.12996772 21.34633605 0.18017793 25.23872375 0.23101807 C27.87477819 0.25107518 30.51084702 0.26932731 33.14692688 0.28570557 C39.61533873 0.32985234 46.08321595 0.39682519 52.55122375 0.48101807 C52.55122375 1.80101807 52.55122375 3.12101807 52.55122375 4.48101807 C51.89122375 4.48101807 51.23122375 4.48101807 50.55122375 4.48101807 C50.28309875 5.22351807 50.01497375 5.96601807 49.73872375 6.73101807 C47.65034103 11.5672728 47.65034103 11.5672728 45.55122375 13.48101807 C42.32171543 14.06051519 39.12339567 13.94465047 35.852005 13.87164307 C34.90181992 13.86598328 33.95163483 13.86032349 32.97265625 13.85449219 C29.93583432 13.83208954 26.90018944 13.78188577 23.86372375 13.73101807 C21.80579808 13.7109581 19.74785392 13.69270646 17.68989563 13.67633057 C12.64321769 13.63221194 7.59742032 13.56315737 2.55122375 13.48101807 C2.55122375 12.82101807 2.55122375 12.16101807 2.55122375 11.48101807 C16.74122375 11.15101807 30.93122375 10.82101807 45.55122375 10.48101807 C46.21122375 7.84101807 46.87122375 5.20101807 47.55122375 2.48101807 C41.12817347 2.59963149 34.7052664 2.72390377 28.28242493 2.85333252 C26.09918667 2.89654093 23.91591768 2.93822546 21.73262024 2.97833252 C18.58742529 3.03637781 15.44238301 3.09997227 12.2973175 3.16461182 C10.84222023 3.18968056 10.84222023 3.18968056 9.35772705 3.21525574 C4.33372229 3.3241237 -0.49291084 3.63956902 -5.44877625 4.48101807 C-3.85770742 1.78407616 -3.14504733 0.617788 0 0 Z " fill="#636361" transform="translate(304.4487762451172,259.51898193359375)"/>
<path d="M0 0 C17.82 0 35.64 0 54 0 C54 0.33 54 0.66 54 1 C36.51 1 19.02 1 1 1 C1 44.56 1 88.12 1 133 C1.66 133 2.32 133 3 133 C3 131.35 3 129.7 3 128 C4.32 128 5.64 128 7 128 C7.061875 127.21625 7.12375 126.4325 7.1875 125.625 C8 123 8 123 10.375 121.6875 C13 121 13 121 16 121 C15.55269531 121.3403125 15.10539062 121.680625 14.64453125 122.03125 C10.41171768 125.42472101 7.72578506 128.63065737 5.23828125 133.4609375 C4.82964844 133.96882812 4.42101562 134.47671875 4 135 C2.68 135 1.36 135 0 135 C0 90.45 0 45.9 0 0 Z " fill="#7DB1DB" transform="translate(280,95)"/>
<path d="M0 0 C0.33 0 0.66 0 1 0 C1.33 39.6 1.66 79.2 2 120 C4.64 119.67 7.28 119.34 10 119 C10.33 117.35 10.66 115.7 11 114 C12.32 114 13.64 114 15 114 C14.9175 113.2575 14.835 112.515 14.75 111.75 C15 109 15 109 16.5625 106.75 C19.67334017 104.51657629 22.22741269 104.29019902 26 104 C24.71937515 105.7074998 23.38232443 107.37373596 22 109 C21.34 109 20.68 109 20 109 C19.7525 109.556875 19.505 110.11375 19.25 110.6875 C16.97579403 114.89478104 14.14619394 118.53819735 10 121 C8.68 121 7.36 121 6 121 C5.67 122.65 5.34 124.3 5 126 C3.68 126 2.36 126 1 126 C0.505 127.98 0.505 127.98 0 130 C0 87.1 0 44.2 0 0 Z " fill="#156FB6" transform="translate(282,97)"/>
<path d="M0 0 C8.98848674 -0.1626158 17.97646267 -0.28678181 26.9661026 -0.3626852 C31.14101841 -0.3991267 35.3149236 -0.44850555 39.48925781 -0.52807617 C43.52235249 -0.60446818 47.55447894 -0.64605854 51.58824158 -0.6641407 C53.12246434 -0.67701611 54.65663758 -0.7021602 56.19044495 -0.7401104 C69.70387238 -1.06098763 69.70387238 -1.06098763 75.00585938 3.54272461 C76.8157959 5.49278259 76.8157959 5.49278259 78 7 C77.01 7 76.02 7 75 7 C74.41812927 6.35125916 73.83625854 5.70251831 73.23675537 5.03411865 C70.18747194 2.26108214 68.29250046 2.48388686 64.21191406 2.45410156 C63.53833359 2.44376389 62.86475311 2.43342621 62.17076111 2.42277527 C59.95213803 2.39335994 57.7344277 2.39184849 55.515625 2.390625 C53.9743272 2.37564234 52.43304546 2.35891501 50.89178467 2.34051514 C46.84103659 2.2968383 42.79050507 2.27684202 38.73956299 2.26177979 C34.60358879 2.24220973 30.46784851 2.20023967 26.33203125 2.16015625 C18.22141537 2.08485064 10.11089134 2.03456156 2 2 C2 2.66 2 3.32 2 4 C0.35 4 -1.3 4 -3 4 C-3 21.82 -3 39.64 -3 58 C-3.33 58 -3.66 58 -4 58 C-4 39.85 -4 21.7 -4 3 C-2.68 2.67 -1.36 2.34 0 2 C0 1.34 0 0.68 0 0 Z " fill="#65A3CF" transform="translate(202,28)"/>
<path d="M0 0 C0.33 0 0.66 0 1 0 C1.01030746 0.59690643 1.02061493 1.19381287 1.03123474 1.80880737 C1.13917388 8.00530229 1.25378188 14.20164807 1.37231445 20.39794922 C1.41570376 22.71237069 1.45737584 25.026825 1.49731445 27.34130859 C1.55492032 30.66253573 1.61864251 33.98359692 1.68359375 37.3046875 C1.70030624 38.34430634 1.71701874 39.38392517 1.73423767 40.45504761 C1.75418289 41.41589264 1.77412811 42.37673767 1.79467773 43.36669922 C1.81022202 44.21497284 1.8257663 45.06324646 1.84178162 45.93722534 C1.87429958 48.06318305 1.87429958 48.06318305 3 50 C8.63805645 51.47968928 14.54393614 51.13309152 20.32958984 51.11352539 C21.46188019 51.11367142 22.59417053 51.11381744 23.76077271 51.1139679 C27.49418062 51.1132726 31.22753832 51.1054981 34.9609375 51.09765625 C37.55311048 51.09579071 40.14528382 51.09436745 42.73745728 51.09336853 C48.85714608 51.08994371 54.97681424 51.08206643 61.09649527 51.07201904 C68.06626956 51.06082538 75.03604472 51.05533926 82.00582576 51.05032361 C96.3372268 51.03988291 110.66861276 51.02230377 125 51 C125.495 50.01 125.495 50.01 126 49 C126 49.99 126 50.98 126 52 C122.53894329 52.78357041 119.35089856 53.12393655 115.80509949 53.12025452 C114.78011353 53.12162918 113.75512756 53.12300385 112.69908142 53.12442017 C111.58561844 53.12082489 110.47215546 53.11722961 109.32495117 53.11352539 C107.55358292 53.11374443 107.55358292 53.11374443 105.74642944 53.1139679 C102.51747225 53.11339153 99.28855866 53.10838389 96.05961013 53.10139394 C92.68169454 53.09513323 89.30377804 53.09455445 85.92585754 53.09336853 C79.53343373 53.09026322 73.14102706 53.08206063 66.74861079 53.07201904 C58.75493653 53.05973527 50.76125947 53.05426905 42.76757812 53.04882812 C28.5117054 53.03909475 14.25587008 53.01906148 0 53 C0 35.51 0 18.02 0 0 Z " fill="#1874BD" transform="translate(199,32)"/>
<path d="M0 0 C0.33 0 0.66 0 1 0 C1 21.12 1 42.24 1 64 C2.32 64 3.64 64 5 64 C5 64.99 5 65.98 5 67 C0.25 66.25 0.25 66.25 -2 64 C-2.25396729 61.41918945 -2.25396729 61.41918945 -2.25878906 58.11328125 C-2.26509338 56.87860107 -2.27139771 55.6439209 -2.27789307 54.37182617 C-2.27431338 53.018716 -2.27021145 51.66560713 -2.265625 50.3125 C-2.26697175 48.93009371 -2.26891236 47.54768787 -2.27142334 46.1652832 C-2.27437418 43.26671849 -2.27007836 40.36827697 -2.26074219 37.46972656 C-2.24934755 33.75039363 -2.25590725 30.03134932 -2.26788712 26.31202698 C-2.27510688 23.45704973 -2.27281728 20.60214115 -2.26763153 17.74716187 C-2.26629535 16.37559983 -2.26794166 15.00403161 -2.27259064 13.63247681 C-2.27765748 11.7172253 -2.26856831 9.80195199 -2.25878906 7.88671875 C-2.25719788 6.79576904 -2.25560669 5.70481934 -2.25396729 4.58081055 C-2 2 -2 2 0 0 Z " fill="#1676C1" transform="translate(137,96)"/>
<path d="M0 0 C0.495 1.485 0.495 1.485 1 3 C0.67 3.66 0.34 4.32 0 5 C-1.73286255 5.02187378 -1.73286255 5.02187378 -3.50073242 5.04418945 C-7.79677912 5.10226822 -12.09230694 5.1795005 -16.38793945 5.26245117 C-18.2452755 5.29565549 -20.10271137 5.32370141 -21.96020508 5.34643555 C-24.63405798 5.38006442 -27.30699993 5.43238374 -29.98046875 5.48828125 C-30.80773972 5.49467117 -31.63501068 5.5010611 -32.48735046 5.50764465 C-38.83403231 5.63064086 -38.83403231 5.63064086 -44 9 C-44.46645471 12.03546866 -44.60829721 14.50510653 -44.5234375 17.53515625 C-44.51873444 18.36961777 -44.51403137 19.20407928 -44.50918579 20.06382751 C-44.48782423 22.73088892 -44.43119817 25.39596906 -44.375 28.0625 C-44.35849561 29.86261153 -44.34414683 31.66274421 -44.33203125 33.46289062 C-44.73808717 41.47574791 -44.73808717 41.47574791 -43 49 C-44.32 48.34 -45.64 47.68 -47 47 C-47.14877685 41.69820338 -47.25741519 36.39763197 -47.32958984 31.09423828 C-47.35968749 29.29193954 -47.40057677 27.48978638 -47.45263672 25.68798828 C-47.52576815 23.09110563 -47.55952439 20.49616509 -47.5859375 17.8984375 C-47.61690521 17.0982016 -47.64787292 16.2979657 -47.67977905 15.47348022 C-47.68222779 11.36509807 -47.2616876 8.67740442 -44.546875 5.49414062 C-40.6006945 2.11272951 -36.67739708 2.14129375 -31.6640625 2.1953125 C-30.34503433 2.17475296 -30.34503433 2.17475296 -28.99935913 2.15377808 C-26.2073814 2.11656743 -23.4171899 2.12018671 -20.625 2.125 C-18.72523272 2.10686689 -16.82548895 2.08606227 -14.92578125 2.0625 C-10.28355604 2.01073297 -5.64249795 1.99556348 -1 2 C-0.67 1.34 -0.34 0.68 0 0 Z " fill="#C1C1C0" transform="translate(105,270)"/>
<path d="M0 0 C41.25 0 82.5 0 125 0 C125 0.33 125 0.66 125 1 C84.74 1 44.48 1 3 1 C4.39195915 3.7839183 6.15575779 3.97898997 9 5 C9 6.65 9 8.3 9 10 C7.86800647 9.0919838 6.74467637 8.17316174 5.625 7.25 C4.99851563 6.73953125 4.37203125 6.2290625 3.7265625 5.703125 C2 4 2 4 0 0 Z " fill="#166FB6" transform="translate(140,179)"/>
<path d="M0 0 C8.82341435 -0.20937291 17.64596227 -0.3688622 26.47132683 -0.46630955 C30.57032441 -0.51310274 34.66761171 -0.57646627 38.765625 -0.67895508 C42.72747472 -0.77740806 46.68768972 -0.83069175 50.6506691 -0.85389519 C52.15543462 -0.87040922 53.66011969 -0.90265943 55.16418076 -0.95157051 C62.98572728 -1.19559358 68.82040517 -0.98235407 75.00439453 4.36743164 C79 8.41131158 79 8.41131158 79 12 C78.34 12 77.68 12 77 12 C77 11.34 77 10.68 77 10 C76.01 10 75.02 10 74 10 C72.98133771 8.34467377 71.98189187 6.67739862 71 5 C70.01 4.67 69.02 4.34 68 4 C68 3.34 68 2.68 68 2 C67.22183426 2.00222061 66.44366852 2.00444122 65.641922 2.00672913 C58.30012394 2.02678548 50.95833921 2.0420014 43.61652088 2.05181217 C39.84223573 2.05702557 36.06797327 2.06409517 32.29370117 2.07543945 C28.6497494 2.0863232 25.00581942 2.09228847 21.36185265 2.09487724 C19.97322942 2.0967216 18.58460735 2.10032316 17.19599342 2.10573006 C15.24761752 2.11301321 13.29921959 2.11340868 11.35083008 2.11352539 C10.2427449 2.115746 9.13465973 2.11796661 7.99299622 2.12025452 C5.21252142 2.00853882 2.70416282 1.63378418 0 1 C0 0.67 0 0.34 0 0 Z " fill="#1176BC" transform="translate(204,30)"/>
<path d="M0 0 C2.4375 0.625 2.4375 0.625 5 2 C6.21560006 6.74527212 6.11587095 11.52098057 6.0625 16.38671875 C6.05431174 18.05248999 6.04617579 19.71826148 6.03808594 21.3840332 C6.02551336 23.15185635 6.0128157 24.9196786 6 26.6875 C5.89278587 41.61833082 5.89278587 41.61833082 6.359375 56.5390625 C6.42253906 57.78341064 6.48570312 59.02775879 6.55078125 60.30981445 C6.68080634 62.59592959 6.82844872 64.88113031 6.99609375 67.16479492 C7.05410156 68.16873291 7.11210937 69.1726709 7.171875 70.20703125 C7.2347168 71.0678833 7.29755859 71.92873535 7.36230469 72.81567383 C7 75 7 75 5.12597656 76.74487305 C3 78 3 78 0.8125 78.875 C-1.28891703 79.89809093 -1.28891703 79.89809093 -1.75 82.625 C-1.8325 83.40875 -1.915 84.1925 -2 85 C-2.804375 85.12375 -3.60875 85.2475 -4.4375 85.375 C-5.7059375 85.684375 -5.7059375 85.684375 -7 86 C-7.495 86.99 -7.495 86.99 -8 88 C-8.66 87.67 -9.32 87.34 -10 87 C-6.25 83.125 -6.25 83.125 -4 82 C-3.319375 80.7625 -3.319375 80.7625 -2.625 79.5 C-1 77 -1 77 3 76 C3.33 51.91 3.66 27.82 4 3 C2.68 2.34 1.36 1.68 0 1 C0 0.67 0 0.34 0 0 Z " fill="#B4DBF3" transform="translate(335,96)"/>
<path d="M0 0 C3.05075084 -0.266487 5.89626179 -0.34757146 8.9453125 -0.29296875 C9.8303244 -0.28872391 10.7153363 -0.28447906 11.62716675 -0.28010559 C14.46008445 -0.26328259 17.29229652 -0.22562425 20.125 -0.1875 C22.04295849 -0.17245782 23.96092811 -0.15876861 25.87890625 -0.14648438 C30.58621031 -0.11336727 35.29298544 -0.06156055 40 0 C40 0.66 40 1.32 40 2 C40.99 1.34 41.98 0.68 43 0 C45.6875 -0.125 45.6875 -0.125 48 0 C48 0.99 48 1.98 48 3 C31.5 3 15 3 -2 3 C-1.34 2.01 -0.68 1.02 0 0 Z " fill="#1B1B19" transform="translate(296,329)"/>
<path d="M0 0 C0 0.99 0 1.98 0 3 C-1.18553467 3.00410889 -2.37106934 3.00821777 -3.5925293 3.01245117 C-8.00052072 3.03425989 -12.40762172 3.08856741 -16.81518555 3.15258789 C-18.72102307 3.17575277 -20.62698833 3.19016007 -22.53295898 3.19555664 C-25.27668723 3.20485741 -28.01841063 3.24587071 -30.76171875 3.29296875 C-31.61086349 3.2890361 -32.46000824 3.28510345 -33.33488464 3.28105164 C-37.46181168 3.3823264 -39.52486542 3.6833456 -43.03320312 6.02148438 C-45.53736751 9.81378893 -45.72977421 12.95857245 -45.70703125 17.36328125 C-45.72971321 18.55125557 -45.72971321 18.55125557 -45.75285339 19.76322937 C-45.7956638 22.27994403 -45.80456132 24.79545782 -45.8125 27.3125 C-45.83564969 29.02412032 -45.86101603 30.73571219 -45.88867188 32.44726562 C-45.9514577 36.63161625 -45.98384499 40.81522004 -46 45 C-46.33 45 -46.66 45 -47 45 C-47.04954105 39.82219834 -47.08578636 34.64453554 -47.10986328 29.46655273 C-47.11990351 27.70611161 -47.13353844 25.94568709 -47.15087891 24.18530273 C-47.17521436 21.65083715 -47.18650296 19.11659261 -47.1953125 16.58203125 C-47.20563507 15.79850784 -47.21595764 15.01498444 -47.22659302 14.2077179 C-47.22743604 10.07586908 -47.21819188 6.56301756 -45 3 C-40.6953993 0.2951895 -35.69136416 0.65299716 -30.76171875 0.5859375 C-29.88095169 0.56657135 -29.00018463 0.5472052 -28.09272766 0.5272522 C-25.29108234 0.46767149 -22.48939544 0.42115735 -19.6875 0.375 C-17.78318562 0.33680041 -15.87888815 0.29774753 -13.97460938 0.2578125 C-9.31654428 0.16198767 -4.65839832 0.0778774 0 0 Z " fill="#474645" transform="translate(104,270)"/>
<path d="M0 0 C0.66 0 1.32 0 2 0 C2 1.32 2 2.64 2 4 C-19.45 4 -40.9 4 -63 4 C-63 3.34 -63 2.68 -63 2 C-42.21 2 -21.42 2 0 2 C0 1.34 0 0.68 0 0 Z " fill="#C8C7C6" transform="translate(437,331)"/>
<path d="M0 0 C0.99 0.33 1.98 0.66 3 1 C3.144375 1.639375 3.28875 2.27875 3.4375 2.9375 C3.623125 3.618125 3.80875 4.29875 4 5 C5.31403276 5.70394612 6.6520257 6.36345658 8 7 C8.73415634 7.83487946 9.46831268 8.66975891 10.22471619 9.52993774 C13.64194192 12.57134211 15.14455712 12.61474638 19.65454102 12.58349609 C20.30233521 12.58583252 20.95012939 12.58816895 21.61755371 12.59057617 C23.74717319 12.59218397 25.87459617 12.55823374 28.00390625 12.5234375 C29.48932616 12.51664318 30.97475689 12.51192393 32.46018982 12.50918579 C36.36347923 12.49579594 40.26585454 12.45153418 44.16882324 12.40161133 C47.35365545 12.36620445 50.5383956 12.35312993 53.72338963 12.34119225 C57.52528562 12.32638886 61.32708524 12.30119072 65.12890625 12.2734375 C65.85255434 12.26852673 66.57620243 12.26361595 67.32177925 12.25855637 C69.37290971 12.24223833 71.42382502 12.21883267 73.47485352 12.19287109 C75.22428001 12.17358047 75.22428001 12.17358047 77.00904846 12.15390015 C79.51910718 12.02474446 81.60966317 11.7325525 84 11 C83.67 11.99 83.34 12.98 83 14 C73.93307924 14.20947169 64.86700383 14.36891226 55.79818249 14.46630955 C51.58601496 14.5130811 47.37551469 14.57640543 43.16430664 14.67895508 C39.09223127 14.77748447 35.02174843 14.83070793 30.94857216 14.85389519 C29.40277365 14.87039555 27.85705244 14.90261781 26.31194115 14.95157051 C16.66557972 15.24474945 10.49850645 14.22317669 3.11543274 7.32847595 C1.26567266 5.29242831 -0.41061385 3.24275523 -2 1 C-1.34 0.67 -0.68 0.34 0 0 Z " fill="#2779B7" transform="translate(185,221)"/>
<path d="M0 0 C0.9806543 0.15992432 1.96130859 0.31984863 2.97167969 0.48461914 C7.13616899 1.077485 11.25197004 1.1869856 15.453125 1.24609375 C17.05729796 1.27899155 18.66146449 1.31220378 20.265625 1.34570312 C22.76949224 1.39330423 25.27332618 1.43786278 27.77734375 1.47680664 C30.21118447 1.51643724 32.64454714 1.56794958 35.078125 1.62109375 C35.82813782 1.6295079 36.57815063 1.63792206 37.35089111 1.64659119 C41.08803038 1.73570294 42.8130984 1.87539893 46 4 C46.29296875 7.2578125 46.29296875 7.2578125 46.1875 11.125 C46.14689453 13.04699219 46.14689453 13.04699219 46.10546875 15.0078125 C46.07066406 15.99523437 46.03585937 16.98265625 46 18 C45.01 18.495 45.01 18.495 44 19 C44 14.05 44 9.1 44 4 C42.21384277 4.0314209 42.21384277 4.0314209 40.39160156 4.06347656 C35.97115111 4.13590962 31.55075304 4.18181172 27.12988281 4.21972656 C25.21703265 4.23983452 23.30424389 4.26712507 21.39160156 4.30175781 C18.64112189 4.35031249 15.89145523 4.37297658 13.140625 4.390625 C12.28631897 4.41127014 11.43201294 4.43191528 10.55181885 4.45318604 C4.57847304 4.45544041 4.57847304 4.45544041 1.42871094 1.97558594 C0.95723633 1.32364258 0.48576172 0.67169922 0 0 Z " fill="#B6B5B3" transform="translate(299,300)"/>
<path d="M0 0 C12.87 0 25.74 0 39 0 C36.09502845 2.90497155 33.04600694 2.3544517 29.1484375 2.4140625 C28.37440582 2.43342865 27.60037415 2.4527948 26.80288696 2.4727478 C24.32703725 2.5325983 21.85114117 2.57895011 19.375 2.625 C17.69789623 2.66317482 16.02081216 2.70222625 14.34375 2.7421875 C10.22932647 2.83830409 6.11481114 2.92231439 2 3 C0.02 6.96 -1.96 10.92 -4 15 C-4.66 14.67 -5.32 14.34 -6 14 C-5.34 13.01 -4.68 12.02 -4 11 C-3.43879149 9.4935982 -2.92001028 7.97092271 -2.4375 6.4375 C-1.72381407 4.18550657 -1.05677648 2.11355296 0 0 Z " fill="#CECDCB" transform="translate(222,318)"/>
<path d="M0 0 C0.33 0.66 0.66 1.32 1 2 C0.67 2.66 0.34 3.32 0 4 C1.32 4 2.64 4 4 4 C3.46930939 7.82097239 2.50298434 10.06171403 0 13 C-1.9375 12.625 -1.9375 12.625 -4 12 C-4.33 11.34 -4.66 10.68 -5 10 C-5.99 10 -6.98 10 -8 10 C-8.33 11.65 -8.66 13.3 -9 15 C-10.98 15.66 -12.96 16.32 -15 17 C-13.00950468 14.32610129 -11.00718962 11.66138476 -9 9 C-8.319375 8.0925 -7.63875 7.185 -6.9375 6.25 C-4.83606112 3.80961937 -2.57185781 1.92889336 0 0 Z " fill="#1376BF" transform="translate(172,52)"/>
<path d="M0 0 C0.33 0 0.66 0 1 0 C1 17.49 1 34.98 1 53 C1.66 53 2.32 53 3 53 C3 51.35 3 49.7 3 48 C4.32 48 5.64 48 7 48 C7.061875 47.21625 7.12375 46.4325 7.1875 45.625 C8 43 8 43 10.375 41.6875 C13 41 13 41 16 41 C15.55269531 41.3403125 15.10539062 41.680625 14.64453125 42.03125 C10.41171768 45.42472101 7.72578506 48.63065737 5.23828125 53.4609375 C4.82964844 53.96882813 4.42101562 54.47671875 4 55 C2.68 55 1.36 55 0 55 C0 36.85 0 18.7 0 0 Z " fill="#79ABD1" transform="translate(280,175)"/>
<path d="M0 0 C-1.28965176 1.37562854 -2.62689293 2.70766393 -4 4 C-4.66 4 -5.32 4 -6 4 C-6.2475 4.556875 -6.495 5.11375 -6.75 5.6875 C-9.02420597 9.89478104 -11.85380606 13.53819735 -16 16 C-17.32 16 -18.64 16 -20 16 C-20.33 17.65 -20.66 19.3 -21 21 C-22.32 21 -23.64 21 -25 21 C-25 19.02 -25 17.04 -25 15 C-20.545 14.505 -20.545 14.505 -16 14 C-15.67 12.35 -15.34 10.7 -15 9 C-13.68 9 -12.36 9 -11 9 C-11.12375 7.88625 -11.12375 7.88625 -11.25 6.75 C-11 4 -11 4 -9.1875 1.75 C-5.87933848 -0.89652922 -3.9340521 -1.22091272 0 0 Z " fill="#1476C1" transform="translate(308,202)"/>
<path d="M0 0 C0.33 0 0.66 0 1 0 C1.33 15.18 1.66 30.36 2 46 C1.34 46 0.68 46 0 46 C-1.13717088 43.72565824 -1.12666384 42.47417045 -1.12939453 39.94921875 C-1.13254669 39.11495361 -1.13569885 38.28068848 -1.13894653 37.42114258 C-1.13591019 36.0679895 -1.13591019 36.0679895 -1.1328125 34.6875 C-1.13424759 33.30050903 -1.13424759 33.30050903 -1.13571167 31.88549805 C-1.13639283 29.92854749 -1.134543 27.97159467 -1.13037109 26.01464844 C-1.12502195 23.01231836 -1.13031825 20.0101379 -1.13671875 17.0078125 C-1.13605796 15.10937467 -1.13477677 13.21093693 -1.1328125 11.3125 C-1.13483673 10.41039795 -1.13686096 9.5082959 -1.13894653 8.57885742 C-1.13579437 7.74459229 -1.13264221 6.91032715 -1.12939453 6.05078125 C-1.12859894 5.31512939 -1.12780334 4.57947754 -1.12698364 3.8215332 C-1 2 -1 2 0 0 Z " fill="#ACACAC" transform="translate(43,274)"/>
<path d="M0 0 C0.33333333 1.33333333 0.66666667 2.66666667 1 4 C3.91725834 4.97241945 5.88803439 5.15167819 8.93041992 5.20532227 C10.43163643 5.2352401 10.43163643 5.2352401 11.96318054 5.26576233 C13.04138565 5.28247482 14.11959076 5.29918732 15.23046875 5.31640625 C16.88880486 5.3475779 16.88880486 5.3475779 18.5806427 5.37937927 C22.1161979 5.44482332 25.65182806 5.50373603 29.1875 5.5625 C31.58269008 5.6056901 33.97787255 5.64930454 36.37304688 5.69335938 C42.24861842 5.80049948 48.12426472 5.90227557 54 6 C54 6.33 54 6.66 54 7 C46.74095422 7.07631204 39.48201263 7.12870984 32.22265625 7.16479492 C29.75516901 7.17984452 27.28770835 7.2002889 24.8203125 7.22631836 C21.26555809 7.26286926 17.71115861 7.27976518 14.15625 7.29296875 C12.51203064 7.31619453 12.51203064 7.31619453 10.83459473 7.33988953 C4.50904404 7.3412671 -0.27733621 6.77793924 -6 4 C-7.5 1.8125 -7.5 1.8125 -8 0 C-4.71303767 -0.79953138 -3.28976808 -1.09658936 0 0 Z " fill="#4D4C4A" transform="translate(56,326)"/>
<path d="M0 0 C0.66 0 1.32 0 2 0 C0.90867955 4.5991362 -0.23090416 8.57726041 -2 13 C5.26 13 12.52 13 20 13 C20.33 11.68 20.66 10.36 21 9 C23 11 23 11 23 15 C14.09 15 5.18 15 -4 15 C-4 10.47800155 -3.69111939 8.65106106 -2 4.6875 C-1.62875 3.80449219 -1.2575 2.92148437 -0.875 2.01171875 C-0.58625 1.34785156 -0.2975 0.68398438 0 0 Z " fill="#A3A2A0" transform="translate(233,292)"/>
<path d="M0 0 C-1.62668231 3.6930085 -3.91312407 6.61629195 -6.4375 9.75 C-7.21996094 10.73484375 -8.00242187 11.7196875 -8.80859375 12.734375 C-9.53175781 13.48203125 -10.25492187 14.2296875 -11 15 C-11.99 15 -12.98 15 -14 15 C-14 15.66 -14 16.32 -14 17 C-14.66 17 -15.32 17 -16 17 C-16.33 17.99 -16.66 18.98 -17 20 C-17.33 18.68 -17.66 17.36 -18 16 C-17.01 16 -16.02 16 -15 16 C-14.79503906 15.37351563 -14.59007812 14.74703125 -14.37890625 14.1015625 C-14.10949219 13.28429687 -13.84007812 12.46703125 -13.5625 11.625 C-13.29566406 10.81289062 -13.02882813 10.00078125 -12.75390625 9.1640625 C-12 7 -12 7 -11 5 C-7.9375 4.375 -7.9375 4.375 -5 4 C-5 3.01 -5 2.02 -5 1 C-3 0 -3 0 0 0 Z " fill="#2A7BB9" transform="translate(326,181)"/>
<path d="M0 0 C24.42 0 48.84 0 74 0 C74.495 0.99 74.495 0.99 75 2 C51.24 1.67 27.48 1.34 3 1 C3 1.66 3 2.32 3 3 C2.01 3 1.02 3 0 3 C0 2.01 0 1.02 0 0 Z " fill="#CAEAFD" transform="translate(199,27)"/>
<path d="M0 0 C1.32 0 2.64 0 4 0 C4 22.44 4 44.88 4 68 C3.67 68 3.34 68 3 68 C2.67 48.53 2.34 29.06 2 9 C1.67 9 1.34 9 1 9 C0.67 6.03 0.34 3.06 0 0 Z " fill="#171614" transform="translate(186,262)"/>
<path d="M0 0 C0.33 0 0.66 0 1 0 C1.02313993 9.22270478 1.04092354 18.44539961 1.05181217 27.66812706 C1.05703738 31.95031126 1.06412848 36.23247564 1.07543945 40.51464844 C1.08628117 44.64487529 1.09227957 48.77508305 1.09487724 52.90532303 C1.09672917 54.4834282 1.10034535 56.06153229 1.10573006 57.63962936 C1.11295752 59.84489984 1.11399022 62.05009074 1.11352539 64.25537109 C1.115746 65.51223724 1.11796661 66.76910339 1.12025452 68.0640564 C1 71 1 71 0 73 C-0.66 73 -1.32 73 -2 73 C-1.75885216 71.97317863 -1.75885216 71.97317863 -1.51283264 70.9256134 C-0.93639306 67.6371344 -0.83804124 64.52917512 -0.79467773 61.19018555 C-0.78477814 60.52621262 -0.77487854 59.86223969 -0.76467896 59.17814636 C-0.73325574 56.99770595 -0.70838301 54.81724381 -0.68359375 52.63671875 C-0.66300762 51.11928258 -0.64201073 49.60185193 -0.62062073 48.08442688 C-0.56557127 44.10115037 -0.51608688 40.11782359 -0.46777344 36.13446045 C-0.41743293 32.06550653 -0.36181253 27.99662514 -0.30664062 23.92773438 C-0.19926869 15.95188433 -0.09777767 7.9759734 0 0 Z " fill="#65A2CC" transform="translate(338,99)"/>
<path d="M0 0 C0.99 0.33 1.98 0.66 3 1 C3 23.44 3 45.88 3 69 C2.67 69 2.34 69 2 69 C1.98969254 68.17980881 1.97938507 67.35961761 1.96876526 66.51457214 C1.87083511 58.78945856 1.76832704 51.06442579 1.66066074 43.33944225 C1.60546885 39.36784315 1.55205482 35.39623663 1.50268555 31.42456055 C1.45498692 27.59252318 1.40264211 23.76057501 1.34705925 19.92864418 C1.32666062 18.46582571 1.30794342 17.0029828 1.29092598 15.54012108 C1.26682673 13.49304745 1.23677992 11.44614184 1.20532227 9.39916992 C1.18977798 8.23334885 1.1742337 7.06752777 1.15821838 5.86637878 C1.12225371 2.92765899 1.12225371 2.92765899 0 0 Z " fill="#2B7EBF" transform="translate(335,98)"/>
<path d="M0 0 C0.66 0.33 1.32 0.66 2 1 C1.36191406 1.69867188 0.72382813 2.39734375 0.06640625 3.1171875 C-0.75988281 4.02726562 -1.58617187 4.93734375 -2.4375 5.875 C-3.26121094 6.77992187 -4.08492187 7.68484375 -4.93359375 8.6171875 C-7.00907942 10.81137927 -7.00907942 10.81137927 -8 13 C-9.32 13 -10.64 13 -12 13 C-12 13.66 -12 14.32 -12 15 C-12.66 15 -13.32 15 -14 15 C-14.2475 15.598125 -14.495 16.19625 -14.75 16.8125 C-16.16370012 19.28647521 -17.65055383 20.43370255 -20 22 C-20 20.68 -20 19.36 -20 18 C-19.01 18 -18.02 18 -17 18 C-16.896875 17.236875 -16.79375 16.47375 -16.6875 15.6875 C-15.92322204 12.69986796 -15.46799585 11.78716941 -13 10 C-11.63875 9.6596875 -11.63875 9.6596875 -10.25 9.3125 C-5.53840868 7.40974197 -3.08787042 3.92835586 0 0 Z " fill="#B5DCEF" transform="translate(164,58)"/>
<path d="M0 0 C0.66 0 1.32 0 2 0 C1.67 1.32 1.34 2.64 1 4 C0.34 4 -0.32 4 -1 4 C-1.1546875 5.423125 -1.1546875 5.423125 -1.3125 6.875 C-2 10 -2 10 -5 12 C-5 11.01 -5 10.02 -5 9 C-5.37125 10.134375 -5.7425 11.26875 -6.125 12.4375 C-6.93359375 14.375 -6.93359375 14.375 -8 16 C-11.1875 16.9375 -11.1875 16.9375 -14 17 C-12.43306074 13.15387636 -9.94435097 10.87587769 -7 8 C-6.0935705 6.9045152 -5.19753541 5.80034038 -4.3125 4.6875 C-3.1678125 3.3571875 -3.1678125 3.3571875 -2 2 C-1.34 2 -0.68 2 0 2 C0 1.34 0 0.68 0 0 Z " fill="#569ACC" transform="translate(152,71)"/>
<path d="M0 0 C0.33 0 0.66 0 1 0 C1.28335021 4.43603467 1.52096978 8.8733555 1.75 13.3125 C1.83121094 14.57513672 1.91242188 15.83777344 1.99609375 17.13867188 C2.05410156 18.34716797 2.11210937 19.55566406 2.171875 20.80078125 C2.2347168 21.91622314 2.29755859 23.03166504 2.36230469 24.1809082 C2 27 2 27 0.12597656 28.83276367 C-2 30 -2 30 -4.1875 30.875 C-6.28891703 31.89809093 -6.28891703 31.89809093 -6.75 34.625 C-6.87375 35.800625 -6.87375 35.800625 -7 37 C-7.804375 37.12375 -8.60875 37.2475 -9.4375 37.375 C-10.283125 37.58125 -11.12875 37.7875 -12 38 C-12.33 38.66 -12.66 39.32 -13 40 C-13.66 39.67 -14.32 39.34 -15 39 C-11.25 35.125 -11.25 35.125 -9 34 C-8.566875 33.195625 -8.13375 32.39125 -7.6875 31.5625 C-6 29 -6 29 -1 27 C-0.67 18.09 -0.34 9.18 0 0 Z " fill="#EBF7FE" transform="translate(340,144)"/>
<path d="M0 0 C4.03082 1.612328 6.75944137 4.46234596 9.75 7.5 C10.25660156 7.99886719 10.76320313 8.49773438 11.28515625 9.01171875 C15 12.74658861 15 12.74658861 15 15 C15.61875 15.268125 16.2375 15.53625 16.875 15.8125 C19 17 19 17 21 20 C19.0625 19.625 19.0625 19.625 17 19 C16.67 18.34 16.34 17.68 16 17 C15.34 16.855625 14.68 16.71125 14 16.5625 C13.34 16.376875 12.68 16.19125 12 16 C11.67 15.01 11.34 14.02 11 13 C10.01 12.67 9.02 12.34 8 12 C6.8125 9.4375 6.8125 9.4375 6 7 C5.01 7 4.02 7 3 7 C2.690625 6.21625 2.38125 5.4325 2.0625 4.625 C1.07124962 2.07669872 1.07124962 2.07669872 0 0 Z " fill="#3782B7" transform="translate(296,52)"/>
<path d="M0 0 C13.2 0 26.4 0 40 0 C43 6 43 6 43 8 C41.68 8.33 40.36 8.66 39 9 C39 6.36 39 3.72 39 1 C26.13 1 13.26 1 0 1 C0 0.67 0 0.34 0 0 Z " fill="#2A2927" transform="translate(66,321)"/>
<path d="M0 0 C0.66 0.66 1.32 1.32 2 2 C0.97677282 5.06968154 0.38506416 5.96827868 -2 8 C-3.0209375 8.4640625 -3.0209375 8.4640625 -4.0625 8.9375 C-6.16206673 9.84979181 -6.16206673 9.84979181 -7 12 C-8 14 -8 14 -9.9375 15.3125 C-12 16 -12 16 -15 15 C-14.38125 14.938125 -13.7625 14.87625 -13.125 14.8125 C-12.073125 14.4103125 -12.073125 14.4103125 -11 14 C-10.30959426 12.34302621 -9.6469365 10.6744239 -9 9 C-6.625 6.4375 -6.625 6.4375 -4 4 C-3.236875 3.236875 -2.47375 2.47375 -1.6875 1.6875 C-1.130625 1.130625 -0.57375 0.57375 0 0 Z " fill="#DCF3FA" transform="translate(295,216)"/>
<path d="M0 0 C3.32193801 1.18640643 5.26572702 3.00991123 7.17089844 5.96728516 C8.96155432 10.35745032 8.3991596 15.21663101 8.25 19.875 C8.23195313 20.94492187 8.21390625 22.01484375 8.1953125 23.1171875 C8.14837439 25.74572178 8.08272933 28.37238913 8 31 C7.34 31.33 6.68 31.66 6 32 C6 23.75 6 15.5 6 7 C3.525 6.01 3.525 6.01 1 5 C0.1875 2.375 0.1875 2.375 0 0 Z " fill="#7F7E7D" transform="translate(352,292)"/>
<path d="M0 0 C2.31 0.33 4.62 0.66 7 1 C7.33 2.32 7.66 3.64 8 5 C9.98 5 11.96 5 14 5 C13.125 10.75 13.125 10.75 12 13 C7.04741286 9.22660027 3.56320845 5.09210286 0 0 Z " fill="#D1EAF5" transform="translate(305,59)"/>
<path d="M0 0 C0 3.14845104 -0.36642485 3.97386017 -1.9375 6.5625 C-2.29714844 7.16191406 -2.65679687 7.76132813 -3.02734375 8.37890625 C-3.34832031 8.91386719 -3.66929687 9.44882813 -4 10 C-4.33 10.66 -4.66 11.32 -5 12 C-5.99 12.495 -5.99 12.495 -7 13 C-6.67 13.66 -6.34 14.32 -6 15 C-8.64 15.33 -11.28 15.66 -14 16 C-14 15.34 -14 14.68 -14 14 C-13.34 14 -12.68 14 -12 14 C-12 13.34 -12 12.68 -12 12 C-11.12408203 11.64615234 -11.12408203 11.64615234 -10.23046875 11.28515625 C-7.51106602 9.71828498 -6.17356047 7.95255569 -4.3125 5.4375 C-3.71050781 4.63183594 -3.10851562 3.82617188 -2.48828125 2.99609375 C-1.99714844 2.33738281 -1.50601562 1.67867187 -1 1 C-0.67 0.67 -0.34 0.34 0 0 Z " fill="#C5E2F4" transform="translate(324,184)"/>
<path d="M0 0 C6.6 0 13.2 0 20 0 C20 0.33 20 0.66 20 1 C14.39 1 8.78 1 3 1 C4.39195915 3.7839183 6.15575779 3.97898997 9 5 C9 6.65 9 8.3 9 10 C7.86800647 9.0919838 6.74467637 8.17316174 5.625 7.25 C4.99851563 6.73953125 4.37203125 6.2290625 3.7265625 5.703125 C2 4 2 4 0 0 Z " fill="#1B71B0" transform="translate(140,179)"/>
<path d="M0 0 C0.66 0.33 1.32 0.66 2 1 C1.525625 1.7425 1.05125 2.485 0.5625 3.25 C-0.77869327 5.61050015 -1.512312 7.36648477 -2 10 C-3.65 9.67 -5.3 9.34 -7 9 C-7.6814823 10.89179203 -7.6814823 10.89179203 -8 13 C-7.34 13.66 -6.68 14.32 -6 15 C-8.64 15 -11.28 15 -14 15 C-13 12.0625 -13 12.0625 -11 9 C-8.24121075 8.13481757 -5.93007574 8.09606806 -3 8 C-2.87625 7.236875 -2.7525 6.47375 -2.625 5.6875 C-2 3 -2 3 0 0 Z " fill="#257BC0" transform="translate(147,79)"/>
<path d="M0 0 C1.26092972 0.00212242 1.26092972 0.00212242 2.54733276 0.00428772 C5.23732025 0.00989388 7.92722509 0.02244739 10.6171875 0.03515625 C12.43880088 0.04017046 14.26041557 0.0447335 16.08203125 0.04882812 C20.55211527 0.05986531 25.02213736 0.07713405 29.4921875 0.09765625 C29.4921875 0.42765625 29.4921875 0.75765625 29.4921875 1.09765625 C17.6121875 1.09765625 5.7321875 1.09765625 -6.5078125 1.09765625 C-6.5078125 1.75765625 -6.5078125 2.41765625 -6.5078125 3.09765625 C-7.8278125 3.09765625 -9.1478125 3.09765625 -10.5078125 3.09765625 C-10.5078125 2.43765625 -10.5078125 1.77765625 -10.5078125 1.09765625 C-7.22889325 -0.54180338 -3.60167716 -0.02264553 0 0 Z " fill="#3783B8" transform="translate(210.5078125,28.90234375)"/>
<path d="M0 0 C0.33 0.66 0.66 1.32 1 2 C-0.25 4.625 -0.25 4.625 -2 7 C-2.99 7 -3.98 7 -5 7 C-5.66 8.65 -6.32 10.3 -7 12 C-7.66 12 -8.32 12 -9 12 C-9 12.66 -9 13.32 -9 14 C-10.32 14.33 -11.64 14.66 -13 15 C-10.13691369 8.55805581 -5.34589311 4.36981712 0 0 Z " fill="#B3D7F0" transform="translate(309,200)"/>
<path d="M0 0 C0.99 0 1.98 0 3 0 C3.34530062 3.71198163 3.25629673 5.57283878 1.3125 8.8125 C-1.21501576 11.20339329 -2.58470886 11.7153924 -6 12 C-5.525625 11.62875 -5.05125 11.2575 -4.5625 10.875 C-2.47723065 8.37267679 -2.46410148 6.18241017 -2 3 C-1.34 2.01 -0.68 1.02 0 0 Z " fill="#474747" transform="translate(355,320)"/>
<path d="M0 0 C-0.75 1.9375 -0.75 1.9375 -2 4 C-4.125 4.75 -4.125 4.75 -6 5 C-6 5.99 -6 6.98 -6 8 C-6.99 8 -7.98 8 -9 8 C-9.33 10.64 -9.66 13.28 -10 16 C-10.66 16 -11.32 16 -12 16 C-12 10.29456787 -11.1578917 7.63629918 -7.125 3.5 C-3.47692308 0 -3.47692308 0 0 0 Z " fill="#666564" transform="translate(56,262)"/>
<path d="M0 0 C1.65 0.33 3.3 0.66 5 1 C4.67 1.99 4.34 2.98 4 4 C3.77223006 6.80072667 3.6198924 9.60000141 3.4765625 12.40625 C2.94645712 15.2914137 2.26180181 16.20991087 0 18 C-0.66 17.67 -1.32 17.34 -2 17 C-1.34 16.34 -0.68 15.68 0 15 C0.14497985 12.41935871 0.18677545 9.95056116 0.125 7.375 C0.11146484 6.31539063 0.11146484 6.31539063 0.09765625 5.234375 C0.07407603 3.48943902 0.03820461 1.74467705 0 0 Z " fill="#474745" transform="translate(344,303)"/>
<path d="M0 0 C3.96 0 7.92 0 12 0 C11.02745 4.86275001 9.82739031 7.07813602 7 11 C5.72648692 8.45297384 6.19808075 7.5717055 6.9375 4.875 C7.13214844 4.15054687 7.32679688 3.42609375 7.52734375 2.6796875 C7.76130859 1.84824219 7.76130859 1.84824219 8 1 C5.36 1 2.72 1 0 1 C0 0.67 0 0.34 0 0 Z " fill="#474645" transform="translate(344,261)"/>
<path d="M0 0 C3.16115776 1.36983503 3.9927092 1.9890638 6 5 C6.99 5.33 7.98 5.66 9 6 C9 6.66 9 7.32 9 8 C10.32 8.66 11.64 9.32 13 10 C12.67 10.66 12.34 11.32 12 12 C8.5625 10.8125 8.5625 10.8125 5 9 C4.0625 6.3125 4.0625 6.3125 4 4 C2.35 3.67 0.7 3.34 -1 3 C-0.67 2.01 -0.34 1.02 0 0 Z " fill="#4C8EC5" transform="translate(283,40)"/>
<path d="M0 0 C0.47050781 0.40992188 0.94101563 0.81984375 1.42578125 1.2421875 C2.04839844 1.78101563 2.67101562 2.31984375 3.3125 2.875 C4.23482422 3.67550781 4.23482422 3.67550781 5.17578125 4.4921875 C7.13498212 6.1640447 7.13498212 6.1640447 10 8 C10 8.66 10 9.32 10 10 C7.75 10.3125 7.75 10.3125 5 10 C1.83174667 6.9197537 0.50036582 4.37820092 0 0 Z " fill="#CBEBF7" transform="translate(182,222)"/>
<path d="M0 0 C1.32 0.33 2.64 0.66 4 1 C0.69984002 5.13937592 -2.17324411 8.58662205 -7 11 C-5.87548273 8.0280615 -4.77706209 5.66559313 -3 3 C-2.34 3 -1.68 3 -1 3 C-0.67 2.01 -0.34 1.02 0 0 Z " fill="#EBFAFE" transform="translate(328,181)"/>
<path d="M0 0 C0.556875 0.28875 1.11375 0.5775 1.6875 0.875 C4.01604463 2.07338209 4.01604463 2.07338209 6.6875 2.875 C9 4 9 4 9.8125 6.125 C9.874375 6.74375 9.93625 7.3625 10 8 C10.99 8 11.98 8 13 8 C13 8.99 13 9.98 13 11 C13.66 11 14.32 11 15 11 C14.67 11.66 14.34 12.32 14 13 C13.34 12.67 12.68 12.34 12 12 C12 11.34 12 10.68 12 10 C11.443125 9.938125 10.88625 9.87625 10.3125 9.8125 C5.68609755 8.18700725 2.74995592 3.9078321 0 0 Z " fill="#BEDFF4" transform="translate(280,36)"/>
<path d="M0 0 C0.33 0.66 0.66 1.32 1 2 C0.26821134 4.07196631 -0.55899003 6.1108552 -1.4375 8.125 C-1.91058594 9.22070312 -2.38367188 10.31640625 -2.87109375 11.4453125 C-3.24363281 12.28835938 -3.61617187 13.13140625 -4 14 C-4.66 14 -5.32 14 -6 14 C-6.33 15.32 -6.66 16.64 -7 18 C-8 16 -8 16 -7.328125 13.79296875 C-2.76470588 2.76470588 -2.76470588 2.76470588 0 0 Z " fill="#898989" transform="translate(223,284)"/>
<path d="M0 0 C0.66 0.33 1.32 0.66 2 1 C1.55269531 1.37511719 1.10539062 1.75023437 0.64453125 2.13671875 C-3.07368722 5.2841233 -6.607181 8.5043683 -10 12 C-10.33 10.68 -10.66 9.36 -11 8 C-9.68 8 -8.36 8 -7 8 C-6.938125 7.21625 -6.87625 6.4325 -6.8125 5.625 C-6.544375 4.75875 -6.27625 3.8925 -6 3 C-3.5 1.75 -3.5 1.75 -1 1 C-0.67 0.67 -0.34 0.34 0 0 Z " fill="#5495C4" transform="translate(294,215)"/>
<path d="M0 0 C1.27310312 0.93441535 2.543388 1.87267111 3.8125 2.8125 C4.52019531 3.33457031 5.22789062 3.85664062 5.95703125 4.39453125 C7.81235632 5.85254005 9.49070534 7.18598969 11 9 C11 9.99 11 10.98 11 12 C10.34 12 9.68 12 9 12 C9 11.34 9 10.68 9 10 C8.01 10 7.02 10 6 10 C4.98133771 8.34467377 3.98189187 6.67739862 3 5 C2.01 4.67 1.02 4.34 0 4 C0 2.68 0 1.36 0 0 Z " fill="#2977B3" transform="translate(272,30)"/>
<path d="M0 0 C0.66 0 1.32 0 2 0 C2.33 1.65 2.66 3.3 3 5 C3.66 5 4.32 5 5 5 C4.67 6.32 4.34 7.64 4 9 C4 8.34 4 7.68 4 7 C3.34 7 2.68 7 2 7 C2 6.01 2 5.02 2 4 C1.566875 4.433125 1.13375 4.86625 0.6875 5.3125 C-0.875 6.875 -2.4375 8.4375 -4 10 C-3.52449439 8.51965236 -3.04448784 7.04074979 -2.5625 5.5625 C-2.29566406 4.73878906 -2.02882812 3.91507812 -1.75390625 3.06640625 C-1 1 -1 1 0 0 Z " fill="#C6C5C3" transform="translate(241,277)"/>
<path d="M0 0 C3.47121341 1.79545521 4.48973517 3.81135315 5.6875 7.375 C6.64176223 10.55414537 7.47080923 13.71901725 8 17 C7.34 16.67 6.68 16.34 6 16 C6 15.34 6 14.68 6 14 C5.34 14 4.68 14 4 14 C3.79503906 13.24074219 3.59007812 12.48148437 3.37890625 11.69921875 C3.10949219 10.70535156 2.84007812 9.71148437 2.5625 8.6875 C2.29566406 7.70136719 2.02882812 6.71523438 1.75390625 5.69921875 C1.21920575 3.78482474 0.62855462 1.88566385 0 0 Z " fill="#737271" transform="translate(251,265)"/>
<path d="M0 0 C0.556875 0.268125 1.11375 0.53625 1.6875 0.8125 C0.39784824 2.18812854 -0.93939293 3.52016393 -2.3125 4.8125 C-2.9725 4.8125 -3.6325 4.8125 -4.3125 4.8125 C-4.60125 5.451875 -4.89 6.09125 -5.1875 6.75 C-6.3125 8.8125 -6.3125 8.8125 -8.3125 9.8125 C-8.00654824 6.24306285 -7.28825359 4.78235581 -5 1.9375 C-2.3125 -0.1875 -2.3125 -0.1875 0 0 Z " fill="#2E7AB5" transform="translate(306.3125,201.1875)"/>
<path d="M0 0 C2.97 1.65 5.94 3.3 9 5 C9 5.99 9 6.98 9 8 C9.99 7.67 10.98 7.34 12 7 C12 8.65 12 10.3 12 12 C11.278125 11.236875 10.55625 10.47375 9.8125 9.6875 C7.18590759 6.96792748 7.18590759 6.96792748 4.3125 5.4375 C2 4 2 4 0 0 Z " fill="#5B9DCA" transform="translate(145,186)"/>
<path d="M0 0 C5.49152542 0.61016949 5.49152542 0.61016949 7.875 2.4375 C9 4 9 4 9 6 C9.63474075 7.34882408 10.29848848 8.6846659 11 10 C7.19364503 6.79239749 3.45436433 3.59253891 0 0 Z " fill="#488DC2" transform="translate(157,198)"/>
<path d="M0 0 C2 1 4 2 6 3 C6.33 2.34 6.66 1.68 7 1 C7.45375 2.134375 7.9075 3.26875 8.375 4.4375 C9.57095806 8.04721692 9.57095806 8.04721692 12 9 C11.67 9.66 11.34 10.32 11 11 C9.72486237 9.92173635 8.45507431 8.83714481 7.1875 7.75 C6.47980469 7.14671875 5.77210938 6.5434375 5.04296875 5.921875 C3.08110329 4.07629602 1.54330375 2.20054668 0 0 Z " fill="#A4D0ED" transform="translate(318,72)"/>
<path d="M0 0 C0.66 0.33 1.32 0.66 2 1 C1.67 2.32 1.34 3.64 1 5 C0.34 5 -0.32 5 -1 5 C-1.103125 5.9075 -1.20625 6.815 -1.3125 7.75 C-2.00414949 11.01961575 -2.82134921 12.53717737 -5 15 C-6 12 -6 12 -5 9 C-4.34 9 -3.68 9 -3 9 C-2.01 6.03 -1.02 3.06 0 0 Z " fill="#CFCECD" transform="translate(214,299)"/>
<path d="M0 0 C0.33 0 0.66 0 1 0 C1.1546875 1.175625 1.1546875 1.175625 1.3125 2.375 C1.77595022 5.33045181 1.77595022 5.33045181 5 7 C3.68 7.99 2.36 8.98 1 10 C0.34 9.67 -0.32 9.34 -1 9 C-1.09765625 2.84765625 -1.09765625 2.84765625 -1 1 C-0.67 0.67 -0.34 0.34 0 0 Z " fill="#EBFCFE" transform="translate(129,84)"/>
<path d="M0 0 C3.33333333 3.33333333 6.66666667 6.66666667 10 10 C6.62537285 9.45276317 4.91765 8.9451 2 7 C0.8125 3.375 0.8125 3.375 0 0 Z " fill="#CAEBFA" transform="translate(151,192)"/>
<path d="M0 0 C1.2989839 0.90626784 2.58893167 1.82549537 3.875 2.75 C4.59429687 3.26046875 5.31359375 3.7709375 6.0546875 4.296875 C8.08570565 6.07503547 8.97855012 7.52701607 10 10 C9.01 10 8.02 10 7 10 C5.98594743 8.67732273 4.98731742 7.34275169 4 6 C1.91665365 4.7483533 1.91665365 4.7483533 0 4 C0 2.68 0 1.36 0 0 Z " fill="#D6F3FD" transform="translate(137,180)"/>
<path d="M0 0 C0.33 0 0.66 0 1 0 C1.04241723 2.33294775 1.04092937 4.66702567 1 7 C0 8 0 8 -2.5625 8.0625 C-3.366875 8.041875 -4.17125 8.02125 -5 8 C-5 7.34 -5 6.68 -5 6 C-4.34 5.67 -3.68 5.34 -3 5 C-2.67 4.01 -2.34 3.02 -2 2 C-1.34 2 -0.68 2 0 2 C0 1.34 0 0.68 0 0 Z " fill="#1E73B4" transform="translate(156,69)"/>
<path d="M0 0 C0.66 0 1.32 0 2 0 C2.19573608 1.43640171 2.38127816 2.87419504 2.5625 4.3125 C2.66691406 5.11300781 2.77132813 5.91351563 2.87890625 6.73828125 C3 9 3 9 2 12 C1.34 12 0.68 12 0 12 C0 8.04 0 4.08 0 0 Z " fill="#D1D0CE" transform="translate(429,290)"/>
<path d="M0 0 C4.95 0 9.9 0 15 0 C15.33 1.65 15.66 3.3 16 5 C15.01 4.67 14.02 4.34 13 4 C13 3.01 13 2.02 13 1 C8.71 1 4.42 1 0 1 C0 0.67 0 0.34 0 0 Z " fill="#4B4A48" transform="translate(235,261)"/>
<path d="M0 0 C0.66 0.33 1.32 0.66 2 1 C1.34 1.66 0.68 2.32 0 3 C-0.64767793 5.57061311 -0.64767793 5.57061311 -1 8 C-1.804375 8.12375 -2.60875 8.2475 -3.4375 8.375 C-4.283125 8.58125 -5.12875 8.7875 -6 9 C-6.33 9.66 -6.66 10.32 -7 11 C-7.66 10.67 -8.32 10.34 -9 10 C-5.25 6.125 -5.25 6.125 -3 5 C-1.9590934 3.35857037 -0.95495674 1.69287785 0 0 Z " fill="#A7D1E9" transform="translate(334,173)"/>
<path d="M0 0 C1.32 0 2.64 0 4 0 C4.33 1.98 4.66 3.96 5 6 C3.35 6 1.7 6 0 6 C0 4.02 0 2.04 0 0 Z " fill="#F9F9F0" transform="translate(131,84)"/>
<path d="M0 0 C0.33 0 0.66 0 1 0 C1.5497272 5.63470383 -0.04952165 8.38987758 -3 13 C-3.66 12.67 -4.32 12.34 -5 12 C-4.34 11.01 -3.68 10.02 -3 9 C-2.4172881 7.45233858 -1.87735813 5.88807778 -1.375 4.3125 C-1.11460937 3.50425781 -0.85421875 2.69601562 -0.5859375 1.86328125 C-0.39257812 1.24839844 -0.19921875 0.63351562 0 0 Z " fill="#AFAEAC" transform="translate(221,320)"/>
<path d="M0 0 C0.99 0.33 1.98 0.66 3 1 C1.15610598 4.50339864 -0.11278755 6.78524611 -4 8 C-4.99 7.67 -5.98 7.34 -7 7 C-6.38125 6.938125 -5.7625 6.87625 -5.125 6.8125 C-2.73182415 6.17775641 -2.73182415 6.17775641 -1.8125 3.5 C-1.544375 2.675 -1.27625 1.85 -1 1 C-0.67 0.67 -0.34 0.34 0 0 Z " fill="#E9F9FD" transform="translate(287,224)"/>
<path d="M0 0 C1.65 0 3.3 0 5 0 C4.34 1.32 3.68 2.64 3 4 C2.01 4 1.02 4 0 4 C0 4.66 0 5.32 0 6 C-0.66 6 -1.32 6 -2 6 C-2.33 6.99 -2.66 7.98 -3 9 C-3.33 7.68 -3.66 6.36 -4 5 C-3.01 5 -2.02 5 -1 5 C-0.67 3.35 -0.34 1.7 0 0 Z " fill="#4A8DBE" transform="translate(312,192)"/>
<path d="M0 0 C0.33 0.66 0.66 1.32 1 2 C-0.125 4.5625 -0.125 4.5625 -2 7 C-4.6875 7.8125 -4.6875 7.8125 -7 8 C-5.50902342 4.2047869 -3.24299151 2.38957269 0 0 Z " fill="#2C83C2" transform="translate(172,52)"/>
<path d="M0 0 C0.99 0.33 1.98 0.66 3 1 C4.1875 4.5625 4.1875 4.5625 5 8 C2.69 6.02 0.38 4.04 -2 2 C-1.34 1.34 -0.68 0.68 0 0 Z " fill="#3F8BC5" transform="translate(185,221)"/>
<path d="M0 0 C0.66 0 1.32 0 2 0 C1.67 1.32 1.34 2.64 1 4 C0.34 4 -0.32 4 -1 4 C-1.103125 4.94875 -1.20625 5.8975 -1.3125 6.875 C-2 10 -2 10 -5 12 C-4.01 8.7 -3.02 5.4 -2 2 C-1.34 2 -0.68 2 0 2 C0 1.34 0 0.68 0 0 Z " fill="#3F8CC2" transform="translate(152,71)"/>
<path d="M0 0 C1 2 1 2 0.4375 4.5 C-1 7 -1 7 -4.125 8.3125 C-5.07375 8.539375 -6.0225 8.76625 -7 9 C-6.02180976 7.68677212 -5.0424189 6.37443848 -4.0625 5.0625 C-3.51722656 4.33160156 -2.97195312 3.60070313 -2.41015625 2.84765625 C-1 1 -1 1 0 0 Z " fill="#237CC0" transform="translate(164,60)"/>
<path d="M0 0 C0.99 0 1.98 0 3 0 C3.8125 1.6875 3.8125 1.6875 4 4 C1.5625 6.75 1.5625 6.75 -1 9 C-0.67 6.03 -0.34 3.06 0 0 Z " fill="#DCEFEF" transform="translate(183,32)"/>
<path d="M0 0 C2.31 0.66 4.62 1.32 7 2 C7 3.65 7 5.3 7 7 C5.83040013 6.02433888 4.66438823 5.044375 3.5 4.0625 C2.8503125 3.51722656 2.200625 2.97195312 1.53125 2.41015625 C1.0259375 1.94480469 0.520625 1.47945312 0 1 C0 0.67 0 0.34 0 0 Z " fill="#267ABA" transform="translate(142,182)"/>
<path d="M0 0 C-1.47692308 5.66153846 -1.47692308 5.66153846 -4.125 7.375 C-5.053125 7.684375 -5.053125 7.684375 -6 8 C-5.42415568 5.61435923 -4.77772405 3.33317216 -4 1 C-2 0 -2 0 0 0 Z " fill="#3982B4" transform="translate(334,172)"/>
<path d="M0 0 C2.31 0 4.62 0 7 0 C7 0.99 7 1.98 7 3 C4.69 3 2.38 3 0 3 C0 2.01 0 1.02 0 0 Z " fill="#FEFAF0" transform="translate(325,89)"/>
<path d="M0 0 C1.65 0 3.3 0 5 0 C5.33 2.31 5.66 4.62 6 7 C1.125 3.375 1.125 3.375 0 0 Z " fill="#E0F8FD" transform="translate(273,27)"/>
<path d="M0 0 C1.98 0.66 3.96 1.32 6 2 C5.67 3.32 5.34 4.64 5 6 C4.34 6 3.68 6 3 6 C0 2.53846154 0 2.53846154 0 0 Z " fill="#302F2E" transform="translate(45,320)"/>
<path d="M0 0 C1.60031344 3.20062687 0.03173691 5.72271806 -1 9 C-1.66 9 -2.32 9 -3 9 C-3 7.68 -3 6.36 -3 5 C-3.66 4.67 -4.32 4.34 -5 4 C-3.68 4 -2.36 4 -1 4 C-0.67 2.68 -0.34 1.36 0 0 Z " fill="#636260" transform="translate(237,283)"/>
<path d="M0 0 C1.32 0.33 2.64 0.66 4 1 C4 1.66 4 2.32 4 3 C2.02 3.99 0.04 4.98 -2 6 C-2 4.68 -2 3.36 -2 2 C-1.34 2 -0.68 2 0 2 C0 1.34 0 0.68 0 0 Z " fill="#474747" transform="translate(296,264)"/>
<path d="M0 0 C1.21236328 0.01353516 1.21236328 0.01353516 2.44921875 0.02734375 C3.37154297 0.04474609 3.37154297 0.04474609 4.3125 0.0625 C4.3125 0.3925 4.3125 0.7225 4.3125 1.0625 C-4.11607143 3.34821429 -4.11607143 3.34821429 -8.6875 3.0625 C-6.88341097 -0.54567807 -3.60175697 -0.05219938 0 0 Z " fill="#484746" transform="translate(307.6875,260.9375)"/>
<path d="M0 0 C0.66 0.33 1.32 0.66 2 1 C1.525625 1.7425 1.05125 2.485 0.5625 3.25 C-0.77869327 5.61050015 -1.512312 7.36648477 -2 10 C-3.32 9.34 -4.64 8.68 -6 8 C-5.01 8 -4.02 8 -3 8 C-2.87625 7.236875 -2.7525 6.47375 -2.625 5.6875 C-2 3 -2 3 0 0 Z " fill="#1875BF" transform="translate(147,79)"/>
<path d="M0 0 C4.2742558 1.5830577 6.26531794 4.50568404 9 8 C6.125 7.8125 6.125 7.8125 3 7 C1.6875 4.5625 1.6875 4.5625 1 2 C0.67 1.34 0.34 0.68 0 0 Z " fill="#5C9DC9" transform="translate(296,52)"/>
<path d="M0 0 C2.475 0.99 2.475 0.99 5 2 C5 2.99 5 3.98 5 5 C3.35 4.67 1.7 4.34 0 4 C0 2.68 0 1.36 0 0 Z " fill="#077BD2" transform="translate(288,51)"/>
<path d="M0 0 C1.9375 0.6875 1.9375 0.6875 4 2 C4.75 4.625 4.75 4.625 5 7 C3.0625 6.3125 3.0625 6.3125 1 5 C0.25 2.375 0.25 2.375 0 0 Z " fill="#5E5E5E" transform="translate(352,292)"/>
<path d="M0 0 C0.66 0 1.32 0 2 0 C5 5.75 5 5.75 5 8 C3.68 8.33 2.36 8.66 1 9 C0.67 6.03 0.34 3.06 0 0 Z " fill="#585755" transform="translate(104,321)"/>
<path d="M0 0 C0 3.86695678 -1.41909971 6.5088452 -3 10 C-4.2872642 7.4254716 -4.34791629 5.85291355 -4 3 C-2 1.1875 -2 1.1875 0 0 Z " fill="#D5D4D2" transform="translate(229,270)"/>
<path d="M0 0 C2.78388975 1.70625501 3.85384206 2.47626739 4.75 5.6875 C4.8325 6.450625 4.915 7.21375 5 8 C2 7 2 7 0.8125 5.125 C0 3 0 3 0 0 Z " fill="#D6EFFB" transform="translate(182,222)"/>
<path d="M0 0 C0.99 0.33 1.98 0.66 3 1 C3 5.29 3 9.58 3 14 C2.67 14 2.34 14 2 14 C1.93941406 13.24074219 1.87882812 12.48148438 1.81640625 11.69921875 C1.73261719 10.70535156 1.64882813 9.71148437 1.5625 8.6875 C1.48128906 7.70136719 1.40007812 6.71523437 1.31640625 5.69921875 C1.08187441 2.90624401 1.08187441 2.90624401 0 0 Z " fill="#347EB5" transform="translate(335,98)"/>
<path d="M0 0 C0.66 0.33 1.32 0.66 2 1 C0.35 2.65 -1.3 4.3 -3 6 C-3.99 5.67 -4.98 5.34 -6 5 C-5.01 4.67 -4.02 4.34 -3 4 C-2.67 3.01 -2.34 2.02 -2 1 C-1.34 0.67 -0.68 0.34 0 0 Z " fill="#2B78B7" transform="translate(295,212)"/>
<path d="M0 0 C0.66 0 1.32 0 2 0 C1.45773019 3.79588866 -0.20127563 5.47211993 -3 8 C-3 6.35 -3 4.7 -3 3 C-2.01 3 -1.02 3 0 3 C0 2.01 0 1.02 0 0 Z " fill="#D9F3FD" transform="translate(140,80)"/>
<path d="M0 0 C3.16115776 1.36983503 3.9927092 1.9890638 6 5 C3.03 4.505 3.03 4.505 0 4 C0 2.68 0 1.36 0 0 Z " fill="#468AB8" transform="translate(304,60)"/>
</svg>
