<?xml version="1.0" encoding="UTF-8"?>
<svg version="1.1" xmlns="http://www.w3.org/2000/svg" width="1280" height="1280">
<path d="M0 0 C1.15371094 0.07992187 2.30742187 0.15984375 3.49609375 0.2421875 C25.80010162 2.19048775 43.50973025 12.16051322 59 28 C60.0317416 29.30892591 61.04701223 30.63266972 62 32 C59.95751342 36.60896187 56.72467432 40.12043008 53.515625 43.9609375 C51.81961925 46.00983886 50.16735327 48.05848118 48.546875 50.1640625 C47.76828125 51.16179688 46.9896875 52.15953125 46.1875 53.1875 C45.47980469 54.10917969 44.77210938 55.03085937 44.04296875 55.98046875 C42 58 42 58 38 58 C35.6953125 56.27734375 35.6953125 56.27734375 33.125 53.9375 C20.97823417 43.65323826 6.8502994 38.26767037 -9.09765625 38.65625 C-23.8820139 39.9585758 -36.85336304 45.67714748 -47.03515625 56.55859375 C-57.76973815 69.89679194 -60.92386654 86.28324507 -60 103 C-58.31575146 116.95299477 -52.71122669 130.56660386 -42 140 C-27.36281713 151.03283154 -12.89126368 153.28218976 5 152 C9.33332018 151.19068193 13.03018741 149.89320422 17 148 C17.91652344 147.5875 18.83304687 147.175 19.77734375 146.75 C27.33932643 143.01673506 33.02063472 137.85214474 39 132 C42.74737427 133.24912476 43.68977442 134.7938723 46.125 137.875 C50.05665834 142.81692079 54.07286733 147.67164217 58.15234375 152.4921875 C59.95726633 154.94199785 61.0188258 157.13353297 62 160 C49.91439822 172.9121247 38.22591878 182.70769965 21 188 C19.97132813 188.31839844 18.94265625 188.63679687 17.8828125 188.96484375 C-7.1540506 195.47923139 -35.22058483 190.20773052 -57.44140625 177.59765625 C-61.55461238 175.02925731 -65.28293197 172.10557255 -69 169 C-69.99966797 168.21882813 -69.99966797 168.21882813 -71.01953125 167.421875 C-87.47671839 154.0483817 -97.31465359 131.67463698 -100 111 C-100.31999371 105.95537274 -100.38178959 100.92892067 -100.375 95.875 C-100.37445618 95.19091064 -100.37391235 94.50682129 -100.37335205 93.80200195 C-100.33394882 83.01245224 -99.52695414 73.21940439 -96 63 C-95.78569336 62.35724121 -95.57138672 61.71448242 -95.35058594 61.05224609 C-87.84366669 38.91940047 -72.26114285 22.18018825 -52 11 C-36.26506978 3.28559841 -17.63514451 -1.31905146 0 0 Z " fill="#1B4882" transform="translate(156,567)"/>
<path d="M0 0 C0.33 31.02 0.66 62.04 1 94 C4.63 90.37 8.26 86.74 12 83 C25.39381106 72.65794336 39.30430887 66.38218596 56.375 66.5625 C57.37869629 66.56934814 58.38239258 66.57619629 59.41650391 66.58325195 C67.23765266 66.7520128 73.80178617 67.76771491 81 71 C81.80050781 71.350625 82.60101562 71.70125 83.42578125 72.0625 C99.33682545 79.97680178 109.05942719 95.58330637 114.66113281 111.92919922 C116.00631829 116.23665486 117.04707118 120.59150101 118 125 C118.32097656 126.46179688 118.32097656 126.46179688 118.6484375 127.953125 C124.70206304 160.7655301 121.90608454 200.11572775 104.046875 229.1171875 C94.21623587 242.96262963 81.78711924 253.2176631 65 257 C61.05217367 257.42244989 57.15541411 257.47739763 53.1875 257.4375 C51.60255737 257.42614014 51.60255737 257.42614014 49.9855957 257.41455078 C41.99221064 257.24603593 35.34204059 256.34587278 28 253 C27.07703125 252.59910156 26.1540625 252.19820312 25.203125 251.78515625 C15.59243162 247.10197939 8.47138802 239.47138802 1 232 C0.67 239.26 0.34 246.52 0 254 C-5.4140625 254.0309375 -5.4140625 254.0309375 -10.9375 254.0625 C-12.07695068 254.071604 -13.21640137 254.08070801 -14.39038086 254.09008789 C-15.28120361 254.09258545 -16.17202637 254.09508301 -17.08984375 254.09765625 C-18.00628662 254.10289307 -18.92272949 254.10812988 -19.86694336 254.11352539 C-22 254 -22 254 -23 253 C-23.11805398 249.92933903 -23.17012391 246.88056643 -23.18081665 243.80879211 C-23.18802117 242.83211852 -23.19522568 241.85544492 -23.20264852 240.84917516 C-23.22551795 237.54960835 -23.24098794 234.25004919 -23.25634766 230.95043945 C-23.2707873 228.59552318 -23.2855448 226.24060884 -23.30059814 223.88569641 C-23.43095134 202.37489403 -23.49697572 180.86352842 -23.54844093 159.35239887 C-23.55545012 156.47329491 -23.56257705 153.59419127 -23.56982422 150.71508789 C-23.57251716 149.64167562 -23.57251716 149.64167562 -23.5752645 148.54657825 C-23.60532661 136.95598307 -23.67008653 125.36584135 -23.74851067 113.77548335 C-23.82832846 101.88092152 -23.87412093 89.98659454 -23.88746679 78.09176987 C-23.89587815 71.41114165 -23.92072147 64.7312123 -23.98213577 58.05083656 C-24.039258 51.765756 -24.05408903 45.48200033 -24.03626251 39.19669914 C-24.03714303 36.88836381 -24.05347876 34.57997552 -24.08630753 32.27187347 C-24.12879213 29.12167283 -24.11588456 25.9763877 -24.08901978 22.8261261 C-24.11455323 21.91045768 -24.14008668 20.99478925 -24.16639388 20.0513733 C-24.10868725 17.41342338 -23.95948583 15.46150316 -23 13 C-20.28121387 10.40906324 -17.31869828 8.71928324 -14 7 C-12.85103968 6.30150474 -11.7059321 5.59659558 -10.56640625 4.8828125 C-9.57511719 4.30273438 -8.58382812 3.72265625 -7.5625 3.125 C-6.04849609 2.23167969 -6.04849609 2.23167969 -4.50390625 1.3203125 C-2 0 -2 0 0 0 Z M1 113 C-0.65443209 116.30886418 -0.22954816 120.00829807 -0.28808594 123.6496582 C-0.30590118 124.54590408 -0.32371643 125.44214996 -0.34207153 126.36555481 C-0.49695004 134.66257985 -0.58408672 142.96079058 -0.65206528 151.25893879 C-0.69815039 156.82968652 -0.76533518 162.39831828 -0.88476562 167.96801758 C-0.99992877 173.35871265 -1.0600337 178.74751284 -1.0825882 184.13936424 C-1.10027837 186.18590858 -1.13691648 188.23238724 -1.19359589 190.27822304 C-1.48842884 201.45340434 -1.34744328 209.623618 6.58310318 218.04769611 C19.67606388 230.75755692 34.87003277 237.32673712 52.984375 237.31030273 C64.02348536 237.10698579 71.85568749 234.23467261 79.81640625 226.4140625 C98.18481836 206.106945 99.17642145 174.98246939 98 149 C96.49836328 129.32083247 92.15025114 109.89718113 77.31640625 95.7890625 C51.01179481 75.47285333 20.10881473 91.12814365 1 113 Z " fill="#1C4782" transform="translate(562,501)"/>
<path d="M0 0 C0.99 0 1.98 0 3 0 C3.33 18.48 3.66 36.96 4 56 C15.80263503 55.96039783 15.80263503 55.96039783 27.60522461 55.90991211 C29.07926359 55.90699291 30.55330337 55.90444436 32.02734375 55.90234375 C32.79953247 55.89722778 33.57172119 55.89211182 34.36730957 55.88684082 C36.24525187 55.88653026 38.12309253 55.93766431 40 56 C41 57 41 57 41.11352539 60.41821289 C41.11327433 61.93636987 41.10771425 63.45453257 41.09765625 64.97265625 C41.09664917 65.67934448 41.09564209 66.38603271 41.09460449 67.11413574 C41.08935745 69.76360691 41.07539629 72.41305502 41.0625 75.0625 C41.041875 80.981875 41.02125 86.90125 41 93 C28.46 93 15.92 93 3 93 C3.06296692 106.16112979 3.13841907 119.32202664 3.23571491 132.4829483 C3.28039938 138.594413 3.31965999 144.70581133 3.34643555 150.81738281 C3.37248734 156.71786571 3.41290365 162.61809294 3.46318626 168.51841736 C3.47984217 170.76697097 3.49136437 173.0155688 3.49761391 175.26417542 C3.50726861 178.41922668 3.53534534 181.57362573 3.56762695 184.72851562 C3.56619186 185.65352875 3.56475677 186.57854187 3.5632782 187.53158569 C3.64712298 193.3443523 4.56506525 197.6986431 7 203 C11.54785802 207.40573746 16.57466113 207.33958913 22.60546875 207.28125 C31.1934911 206.56969924 39.00338 203.44318709 46.29296875 198.953125 C48 198 48 198 50 198 C49.25340663 205.53208753 47.64859304 212.82103488 45.9375 220.1875 C45.67517578 221.44498047 45.41285156 222.70246094 45.14257812 223.99804688 C42.7257176 234.24924537 42.7257176 234.24924537 38.046875 237.25390625 C35.93725586 238.26098633 35.93725586 238.26098633 34 239 C32.72576172 239.54914063 32.72576172 239.54914063 31.42578125 240.109375 C30.72839844 240.32078125 30.03101563 240.5321875 29.3125 240.75 C28.60738281 240.97171875 27.90226562 241.1934375 27.17578125 241.421875 C14.71674091 244.7323561 -1.42835077 245.10174327 -13 239 C-23.81668117 232.40404592 -31.0131015 222.28238573 -34.037323 210.04823303 C-35.22896421 204.579089 -35.26657113 199.27520285 -35.22705078 193.69702148 C-35.22734283 192.60330734 -35.22763489 191.5095932 -35.22793579 190.38273621 C-35.22655105 186.79543917 -35.21103015 183.20835416 -35.1953125 179.62109375 C-35.19157933 177.12289035 -35.18873379 174.62468549 -35.18673706 172.1264801 C-35.17990113 166.24060977 -35.164165 160.35481675 -35.14403808 154.46897799 C-35.11940399 147.10368103 -35.10872964 139.73837454 -35.09765625 132.37304688 C-35.0762484 119.24865238 -35.04108568 106.12434767 -35 93 C-45.56 93 -56.12 93 -67 93 C-67.02290896 87.89130189 -67.04283601 82.78278074 -67.05493164 77.67407227 C-67.05997204 75.93480832 -67.0668043 74.19554864 -67.07543945 72.45629883 C-67.08751792 69.96174063 -67.09323108 67.46723827 -67.09765625 64.97265625 C-67.10281754 64.19036148 -67.10797882 63.40806671 -67.11329651 62.60206604 C-67.11349226 60.73432886 -67.06199694 58.86670796 -67 57 C-66 56 -66 56 -63.13256836 55.88647461 C-61.88096924 55.89171143 -60.62937012 55.89694824 -59.33984375 55.90234375 C-58.12417725 55.90484131 -56.90851074 55.90733887 -55.65600586 55.90991211 C-54.09889893 55.91901611 -52.54179199 55.92812012 -50.9375 55.9375 C-46.008125 55.958125 -41.07875 55.97875 -36 56 C-35.67 43.79 -35.34 31.58 -35 19 C-32.55722656 17.71222656 -30.11445313 16.42445313 -27.59765625 15.09765625 C-25.24105907 13.8537125 -22.88479582 12.60913846 -20.52856445 11.36450195 C-18.88666064 10.49763006 -17.24440868 9.63141725 -15.60180664 8.76586914 C-13.24534451 7.52401715 -10.89013106 6.27982587 -8.53515625 5.03515625 C-7.79660904 4.64658951 -7.05806183 4.25802277 -6.2971344 3.85768127 C-2.93683784 2.23391108 -2.93683784 2.23391108 0 0 Z " fill="#1B4781" transform="translate(375,514)"/>
<path d="M0 0 C0.33 55.77 0.66 111.54 1 169 C4.63 163.39 8.26 157.78 12 152 C14.6042907 148.18992764 17.21777897 144.39698458 19.875 140.625 C21.25842488 138.64886607 22.64122896 136.6722974 24.0234375 134.6953125 C24.69600586 133.73399414 25.36857422 132.77267578 26.06152344 131.78222656 C28.90127419 127.70643316 31.70289752 123.60512836 34.5 119.5 C37.97186699 114.40890549 41.4594414 109.32950063 44.9765625 104.26953125 C45.65775146 103.28807129 46.33894043 102.30661133 47.04077148 101.29541016 C48.42278677 99.31749488 49.81545317 97.34697646 51.21899414 95.38427734 C54.30931013 91.03855511 57.20351384 86.79874113 59.58203125 82.01953125 C64.0341995 73.46559262 64.0341995 73.46559262 68 71 C76.13976379 68.88431829 84.68202613 69.36406049 93 70 C92.22403244 74.75323849 90.61006998 77.16726133 87.5625 80.9375 C86.63983587 82.09860171 85.71932465 83.26141692 84.80078125 84.42578125 C84.3310791 85.01955566 83.86137695 85.61333008 83.37744141 86.22509766 C81.25039888 88.96589864 79.24789495 91.78935793 77.25 94.625 C73.81106532 99.49094738 70.31179471 104.30681549 66.76489258 109.09472656 C64.38223587 112.31234767 62.012077 115.53905561 59.64355469 118.76708984 C58.59419046 120.19274124 57.54057268 121.61527807 56.48144531 123.03369141 C55.16094857 124.80425364 53.85940925 126.58712733 52.5625 128.375 C51.84191406 129.35210938 51.12132812 130.32921875 50.37890625 131.3359375 C48.65214175 134.67206609 48.96266965 135.43312536 50 139 C51.17900233 141.79255036 52.51650711 144.49802146 53.8671875 147.2109375 C54.25764755 148.00707458 54.6481076 148.80321167 55.05039978 149.62347412 C56.3201049 152.20989013 57.59762126 154.79236659 58.875 157.375 C60.19280051 160.05582849 61.50852191 162.7376712 62.82423401 165.41952515 C63.69206493 167.18795027 64.56058206 168.95603881 65.42979431 170.7237854 C68.59948104 177.1712255 71.72733861 183.63661935 74.8125 190.125 C78.56617196 198.00822302 82.34946588 205.87668258 86.150177 213.73730469 C87.63696771 216.81363606 89.12106404 219.89126682 90.60546875 222.96875 C92.76776698 227.45133937 94.93756101 231.93016253 97.11328125 236.40625 C98.03412479 238.31236929 98.95471484 240.21861106 99.875 242.125 C100.29789307 242.98947754 100.72078613 243.85395508 101.15649414 244.74462891 C101.53539795 245.53272949 101.91430176 246.32083008 102.3046875 247.1328125 C102.63452637 247.81230957 102.96436523 248.49180664 103.30419922 249.19189453 C104 251 104 251 104 254 C96.08 254 88.16 254 80 254 C74.70599821 243.44725059 69.46282172 232.87355161 64.3125 222.25 C63.80067169 221.19516418 63.80067169 221.19516418 63.27850342 220.11901855 C57.38438003 207.96228245 51.65599355 195.73633693 45.99609375 183.46875 C41.74926444 174.27211086 37.38162519 165.13302046 33 156 C23.12489316 168.22189693 14.10578484 181.02066261 5.34350586 194.05566406 C4 196 4 196 2.44206238 197.79005432 C0.67535637 200.49751301 0.61145433 202.089471 0.58349609 205.3034668 C0.56692963 206.36103683 0.55036316 207.41860687 0.53329468 208.50822449 C0.53004181 209.64375259 0.52678894 210.7792807 0.5234375 211.94921875 C0.50785797 213.11757767 0.49227844 214.28593658 0.47622681 215.48970032 C0.42867189 219.22229355 0.4009239 222.95469908 0.375 226.6875 C0.33856573 230.43088124 0.29801469 234.17415475 0.25234985 237.91743469 C0.2250253 240.24776421 0.20371705 242.57817306 0.18881226 244.90861511 C0.17341904 246.48078545 0.17341904 246.48078545 0.15771484 248.0847168 C0.15121918 249.01197067 0.14472351 249.93922455 0.13803101 250.89457703 C0 253 0 253 -1 254 C-2.62257544 254.0991657 -4.24939831 254.13079777 -5.875 254.1328125 C-6.85984375 254.13410156 -7.8446875 254.13539063 -8.859375 254.13671875 C-9.89578125 254.13285156 -10.9321875 254.12898437 -12 254.125 C-13.03640625 254.12886719 -14.0728125 254.13273438 -15.140625 254.13671875 C-16.12546875 254.13542969 -17.1103125 254.13414062 -18.125 254.1328125 C-19.03507812 254.13168457 -19.94515625 254.13055664 -20.8828125 254.12939453 C-23 254 -23 254 -24 253 C-24.11805398 249.92933903 -24.17012391 246.88056643 -24.18081665 243.80879211 C-24.18802117 242.83211852 -24.19522568 241.85544492 -24.20264852 240.84917516 C-24.22551795 237.54960835 -24.24098794 234.25004919 -24.25634766 230.95043945 C-24.2707873 228.59552318 -24.2855448 226.24060884 -24.30059814 223.88569641 C-24.43095134 202.37489403 -24.49697572 180.86352842 -24.54844093 159.35239887 C-24.55545012 156.47329491 -24.56257705 153.59419127 -24.56982422 150.71508789 C-24.57251716 149.64167562 -24.57251716 149.64167562 -24.5752645 148.54657825 C-24.60532661 136.95598307 -24.67008653 125.36584135 -24.74851067 113.77548335 C-24.82832846 101.88092152 -24.87412093 89.98659454 -24.88746679 78.09176987 C-24.89587815 71.41114165 -24.92072147 64.7312123 -24.98213577 58.05083656 C-25.039258 51.765756 -25.05408903 45.48200033 -25.03626251 39.19669914 C-25.03714303 36.88836381 -25.05347876 34.57997552 -25.08630753 32.27187347 C-25.12879213 29.12167283 -25.11588456 25.9763877 -25.08901978 22.8261261 C-25.11455323 21.91045768 -25.14008668 20.99478925 -25.16639388 20.0513733 C-25.10868556 17.41334618 -24.95965497 15.46152907 -24 13 C-21.2806807 10.41019184 -18.31722634 8.72112863 -15 7 C-13.86228471 6.30220223 -12.72881669 5.59738636 -11.6015625 4.8828125 C-10.12816406 4.01269531 -10.12816406 4.01269531 -8.625 3.125 C-7.62726563 2.52945312 -6.62953125 1.93390625 -5.6015625 1.3203125 C-3 0 -3 0 0 0 Z " fill="#1C4782" transform="translate(1088,501)"/>
<path d="M0 0 C0.68220612 0.00054382 1.36441223 0.00108765 2.06729126 0.00164795 C18.85124352 0.06314114 36.31948486 2.53245655 49.1640625 14.5625 C62.13667625 29.38834429 64.08965433 47.37684898 63.97705078 66.35693359 C63.97734283 67.67570999 63.97763489 68.99448639 63.97793579 70.35322571 C63.97850249 73.9205214 63.96686082 77.48767869 63.95278788 81.05494261 C63.94016474 84.80115754 63.93910099 88.5473767 63.93673706 92.29360962 C63.93055595 99.36574218 63.91419146 106.43781186 63.89403808 113.5099169 C63.87157329 121.5705388 63.86065922 129.63116393 63.85064721 137.69180942 C63.82982167 154.25291062 63.79430265 170.81394476 63.75 187.375 C56.16 187.375 48.57 187.375 40.75 187.375 C40.42 179.455 40.09 171.535 39.75 163.375 C38.05875 165.169375 36.3675 166.96375 34.625 168.8125 C20.13390952 183.55246793 3.11521926 190.55917843 -17.5625 190.75 C-32.21831831 190.8007227 -44.46549591 188.73405806 -56.25 179.375 C-57.11625 178.7975 -57.9825 178.22 -58.875 177.625 C-71.10978261 166.03415332 -74.90710248 149.80301342 -75.5625 133.5 C-75.12437638 117.83063751 -70.65809999 104.08195642 -59.66015625 92.625 C-46.34060707 80.19054242 -29.17184651 75.33402858 -11.25 74.375 C-10.49976563 74.33375 -9.74953125 74.2925 -8.9765625 74.25 C2.1509432 73.95425234 13.09583147 75.65426936 23.75 78.75 C24.77202515 79.0452356 24.77202515 79.0452356 25.81469727 79.34643555 C30.75298038 80.86539664 35.17585566 82.97561625 39.75 85.375 C39.82558065 81.50139496 39.8792563 77.62808994 39.91479492 73.75390625 C39.93685261 71.80713762 39.97501918 69.86057235 40.01367188 67.9140625 C40.11089201 55.21063181 38.98132477 40.5433913 30.15234375 30.5703125 C19.23698803 20.57492981 6.13710402 19.64043871 -7.98828125 20.22705078 C-20.61874468 21.05326633 -33.29847769 25.28077159 -44.52734375 31.0625 C-47.25 32.375 -47.25 32.375 -50.25 32.375 C-51.42620825 29.96257287 -52.5910956 27.54572309 -53.75 25.125 C-54.08386719 24.44308594 -54.41773438 23.76117187 -54.76171875 23.05859375 C-56.44374744 19.5229008 -57.25 17.35570714 -57.25 13.375 C-50.21591695 9.81514232 -43.23801302 6.85943154 -35.6875 4.625 C-35.02886963 4.42688721 -34.37023926 4.22877441 -33.69165039 4.0246582 C-22.54505875 0.85211461 -11.55938564 -0.01558537 0 0 Z M-44.5625 106.625 C-51.89950458 115.79625572 -52.92304134 127.07039823 -52.25 138.375 C-50.85772651 148.60467051 -47.74832121 158.06802666 -39.5 164.75 C-28.35272548 172.3027599 -15.36714641 174.10218022 -2.234375 171.7265625 C11.21906368 168.87861201 22.57090202 162.61267851 32.75 153.375 C33.47276123 152.75165771 34.19552246 152.12831543 34.94018555 151.48608398 C41.09974391 145.19730919 41.57062916 139.65755824 41.51359558 131.27125549 C41.45228168 128.59601687 41.35221403 125.92395764 41.25 123.25 C41.20980841 121.41674471 41.17331766 119.58340435 41.140625 117.75 C41.05310344 113.28954112 40.91542566 108.83322159 40.75 104.375 C34.25033905 100.97022279 28.07792152 97.818595 20.9375 96.0625 C19.13345703 95.60423828 19.13345703 95.60423828 17.29296875 95.13671875 C-3.39670249 90.68855349 -29.00109208 90.21408594 -44.5625 106.625 Z " fill="#1B4782" transform="translate(779.25,567.625)"/>
<path d="M0 0 C26.385759 -0.74137784 52.76673129 3.42412466 77.04980469 14.05761719 C78.16597168 14.54270752 78.16597168 14.54270752 79.3046875 15.03759766 C97.45264639 23.03089782 113.06811613 33.09001292 128.04980469 46.05761719 C128.64986328 46.57646484 129.24992187 47.0953125 129.86816406 47.62988281 C137.3861825 54.19667583 144.01392572 61.07028863 150.04980469 69.05761719 C150.81808594 70.06824219 151.58636719 71.07886719 152.37792969 72.12011719 C158.04980469 79.7355018 158.04980469 79.7355018 158.04980469 82.05761719 C151.7329807 82.2099047 145.41663082 82.31488835 139.09838867 82.38720703 C136.94977123 82.41735738 134.80127664 82.45828527 132.65307617 82.51025391 C129.56235445 82.58314492 126.47326109 82.61709106 123.38183594 82.64355469 C121.94406548 82.69000626 121.94406548 82.69000626 120.47724915 82.73739624 C113.92649061 82.74069277 113.92649061 82.74069277 111.38362122 80.75939941 C110.05419922 79.15869141 110.05419922 79.15869141 108.04980469 76.05761719 C77.94411922 48.44850076 39.61484062 34.50615899 -1.15673828 35.92285156 C-38.06387459 37.70337413 -70.27975032 54.30834831 -96.95019531 79.05761719 C-97.61019531 80.04761719 -98.27019531 81.03761719 -98.95019531 82.05761719 C-100.89907837 82.41838074 -100.89907837 82.41838074 -103.30810547 82.39819336 C-104.20888824 82.39796677 -105.10967102 82.39774017 -106.03775024 82.39750671 C-107.01174774 82.38202286 -107.98574524 82.366539 -108.98925781 82.35058594 C-110.483246 82.34421867 -110.483246 82.34421867 -112.00741577 82.33772278 C-115.19694756 82.32089399 -118.38585364 82.28323394 -121.57519531 82.24511719 C-123.73404037 82.23007579 -125.89289531 82.21638644 -128.05175781 82.20410156 C-133.35145144 82.17097685 -138.65077868 82.12073615 -143.95019531 82.05761719 C-143.07522253 77.76938425 -140.83484577 74.97039343 -138.13769531 71.62011719 C-137.40498413 70.70129761 -137.40498413 70.70129761 -136.6574707 69.76391602 C-104.84140189 30.35934296 -61.08030141 7.392881 -11.11035156 0.53027344 C-7.40217676 0.18891561 -3.71960437 0.10989317 0 0 Z " fill="#CC2130" transform="translate(356.9501953125,460.9423828125)"/>
<path d="M0 0 C1.04953857 0.00757324 2.09907715 0.01514648 3.18041992 0.02294922 C11.43869714 0.19758594 18.51135144 1.20703642 26.1875 4.4375 C27.62222656 5.03884766 27.62222656 5.03884766 29.0859375 5.65234375 C42.73274055 12.24638724 51.01406177 23.57689056 56.1875 37.4375 C59.06159013 46.31184873 61.31694383 55.66367948 61.30775452 65.0184021 C61.30981651 66.64629166 61.30981651 66.64629166 61.31192017 68.30706787 C61.30832489 69.48239075 61.30472961 70.65771362 61.30102539 71.86865234 C61.30117142 73.11798553 61.30131744 74.36731873 61.3014679 75.6545105 C61.30089196 79.06729342 61.29588797 82.48001533 61.28889394 85.89278746 C61.28262876 89.46421852 61.2820541 93.03565047 61.28086853 96.60708618 C61.27776453 103.36426072 61.26956372 110.12141901 61.25951904 116.87858641 C61.24832895 124.57386105 61.24284016 132.26913647 61.23782361 139.96441722 C61.22738031 155.7887878 61.20959672 171.61314116 61.1875 187.4375 C53.5975 187.4375 46.0075 187.4375 38.1875 187.4375 C38.17291748 183.86107666 38.15833496 180.28465332 38.14331055 176.59985352 C38.09277584 164.72947851 38.02629442 152.85922842 37.95178509 140.98898411 C37.90703225 133.79825377 37.86757186 126.60757071 37.84106445 119.41674805 C37.81791656 113.14107158 37.78433575 106.86554731 37.73879844 100.58999199 C37.71508945 97.27450167 37.69777413 93.9591885 37.68988609 90.64361763 C38.06237666 58.20837666 38.06237666 58.20837666 23.1875 30.4375 C14.69662231 22.23941119 3.34571623 20.87585863 -7.94213867 21.03540039 C-19.76542616 21.45118778 -30.26963449 25.29575647 -38.5625 34.0625 C-52.92700955 52.04348608 -52.41473252 74.39594797 -52.421875 96.2265625 C-52.43688507 98.86885578 -52.45361805 101.51113978 -52.47198486 104.15341187 C-52.51218127 110.34706315 -52.53279875 116.54061018 -52.54595876 122.73437154 C-52.56195382 129.79883391 -52.60042013 136.86312187 -52.64055204 143.92748189 C-52.72245186 158.4307717 -52.77388976 172.93402833 -52.8125 187.4375 C-60.4025 187.4375 -67.9925 187.4375 -75.8125 187.4375 C-75.8125 127.0475 -75.8125 66.6575 -75.8125 4.4375 C-68.2225 4.4375 -60.6325 4.4375 -52.8125 4.4375 C-52.4825 12.0275 -52.1525 19.6175 -51.8125 27.4375 C-50.678125 25.9525 -49.54375 24.4675 -48.375 22.9375 C-35.83074823 7.38350656 -20.00129329 -0.20358373 0 0 Z " fill="#1C4782" transform="translate(960.8125,567.5625)"/>
<path d="M0 0 C12.54 0 25.08 0 38 0 C39.67231832 1.67231832 39.12216652 3.71205741 39.12908131 5.94493443 C39.12471205 7.0144669 39.12471205 7.0144669 39.12025452 8.10560608 C39.12110894 8.85783414 39.12196337 9.6100622 39.12284368 10.38508505 C39.12450074 12.92479715 39.11897345 15.4644443 39.11352539 18.00415039 C39.11324354 19.81708271 39.11340121 21.63001514 39.1139679 23.44294739 C39.11425596 28.38075713 39.10835781 33.31854281 39.10139394 38.25634694 C39.09516186 43.41067843 39.09455672 48.56501042 39.09336853 53.71934509 C39.09025478 63.48704092 39.08204081 73.25472562 39.07201904 83.02241653 C39.06085925 94.13951812 39.05534779 105.25662022 39.05032361 116.37372601 C39.03985823 139.24915828 39.02151221 162.12457527 39 185 C26.13 185 13.26 185 0 185 C0 123.95 0 62.9 0 0 Z " fill="#1C4881" transform="translate(238,570)"/>
<path d="M0 0 C12.54 0 25.08 0 38 0 C38 61.05 38 122.1 38 185 C25.46 185 12.92 185 0 185 C-1.66634622 183.33365378 -1.12465828 181.31153867 -1.13374341 179.08590078 C-1.13151268 178.37745221 -1.12928196 177.66900363 -1.12698364 176.93908691 C-1.12854363 176.19164797 -1.13010362 175.44420903 -1.13171089 174.67412043 C-1.13572368 172.15056588 -1.13253018 169.6270707 -1.12939453 167.10351562 C-1.13074845 165.30205754 -1.13252833 163.50059973 -1.13470459 161.69914246 C-1.13928006 156.79225936 -1.1374889 151.8853972 -1.1343255 146.97851372 C-1.13180249 141.85534481 -1.13413928 136.73217776 -1.13571167 131.60900879 C-1.13753354 123.00382158 -1.13512661 114.39864294 -1.13037109 105.79345703 C-1.12492844 95.829508 -1.12669109 85.86557942 -1.1321975 75.90163088 C-1.13672814 67.36323512 -1.13737942 58.82484553 -1.13475883 50.28644896 C-1.13319579 45.17963545 -1.13300303 40.07283157 -1.13629532 34.96601868 C-1.13917333 30.16609548 -1.13719964 25.36619878 -1.13140106 20.56627846 C-1.13007308 18.79933529 -1.13046821 17.03238992 -1.13266373 15.26544762 C-1.13537377 12.86390547 -1.13199592 10.46244965 -1.12698364 8.06091309 C-1.12921436 7.35246451 -1.13144509 6.64401593 -1.13374341 5.91409922 C-1.11414986 1.11414986 -1.11414986 1.11414986 0 0 Z " fill="#1C4781" transform="translate(453,570)"/>
</svg>
