<?xml version="1.0" encoding="UTF-8"?>
<svg version="1.1" xmlns="http://www.w3.org/2000/svg" width="1022" height="384">
<path d="M0 0 C11.08431234 -0.04658939 22.16860091 -0.08200322 33.25299168 -0.10362434 C38.40136262 -0.11400771 43.54966598 -0.12806594 48.69799805 -0.15087891 C53.67767426 -0.1728034 58.65728596 -0.18460944 63.63700676 -0.18975449 C65.52534944 -0.19341539 67.41368908 -0.20056279 69.30200386 -0.21146011 C90.16143169 -0.32691774 113.77508815 0.16413921 130.16015625 14.94921875 C137.88372702 23.29592262 140.35818227 31.652508 140.20703125 42.87890625 C139.54365147 52.8796694 135.22705995 61.41316719 127.671875 68.04296875 C122.18026698 72.09259794 116.4383669 74.79451687 110 77 C110.67804688 77.54785156 111.35609375 78.09570312 112.0546875 78.66015625 C125.43801686 90.06008361 132.96335698 105.1779687 141.1159668 120.48168945 C151.24464277 139.7314869 151.24464277 139.7314869 168.8125 151.1875 C169.864375 151.455625 170.91625 151.72375 172 152 C172 153.65 172 155.3 172 157 C165.33006138 157.30572357 158.66194097 157.51497211 151.98657227 157.65917969 C149.71928419 157.71931738 147.45245755 157.80105858 145.18676758 157.90527344 C125.33079232 158.79532375 125.33079232 158.79532375 120.6015625 154.52148438 C118.2630993 151.44385178 116.5938898 148.51297217 115 145 C114.24073909 143.7620262 113.47018923 142.5307624 112.6796875 141.3125 C112.08414063 140.219375 111.48859375 139.12625 110.875 138 C110.52574463 137.36682861 110.17648926 136.73365723 109.81665039 136.08129883 C107.61424623 132.06303115 105.47535984 128.01154084 103.3392334 123.95773315 C102.03561023 121.48574581 100.72665652 119.01658988 99.41827393 116.54711914 C98.46463784 114.73895533 97.52173593 112.92549838 96.57958984 111.11132812 C88.22567377 94.49988786 88.22567377 94.49988786 73.33691406 84.48486328 C70.15121173 83.82389328 66.9953183 83.6478447 63.75 83.4375 C61.85507813 83.31181641 61.85507813 83.31181641 59.921875 83.18359375 C58.95765625 83.12300781 57.9934375 83.06242187 57 83 C57.06711917 90.5625727 57.15697334 98.12463329 57.26245117 105.68676758 C57.29565442 108.25799466 57.32370058 110.82929382 57.34643555 113.40063477 C57.38006514 117.10203698 57.4323877 120.8027814 57.48828125 124.50390625 C57.49467117 125.64896133 57.5010611 126.79401642 57.50764465 127.97377014 C57.64030043 135.21564189 58.24809084 140.42008277 62.765625 146.296875 C65.62531247 148.47663677 68.29598528 149.28287588 71.75 150.25 C72.92046875 150.58515625 74.0909375 150.9203125 75.296875 151.265625 C76.63492188 151.62914062 76.63492188 151.62914062 78 152 C78 153.65 78 155.3 78 157 C52.26 157 26.52 157 0 157 C0 155.35 0 153.7 0 152 C0.72445312 151.84144531 1.44890625 151.68289063 2.1953125 151.51953125 C8.38908156 150.02476832 12.62430641 148.71228541 17 144 C18.69520288 140.50543311 19.25167658 137.71152143 19.26069641 133.84547424 C19.27132362 132.32100174 19.27132362 132.32100174 19.28216553 130.76573181 C19.27968811 129.6616951 19.27721069 128.55765839 19.2746582 127.42016602 C19.27976913 126.2488916 19.28488007 125.07761719 19.29014587 123.87084961 C19.30404774 119.9984832 19.30308467 116.12629465 19.30078125 112.25390625 C19.30309048 110.24279938 19.30659422 108.23169691 19.310188 106.22059196 C19.32127355 99.89891492 19.32172592 93.57729729 19.31567383 87.25561523 C19.3096336 80.74186308 19.32194832 74.2283269 19.3432439 67.71461159 C19.36087708 62.11444938 19.36685857 56.51435581 19.36360615 50.91416687 C19.36179591 47.57277122 19.36572176 44.23165264 19.37832069 40.8902607 C19.39064977 37.16308042 19.38391407 33.43640072 19.37231445 29.70922852 C19.37995819 28.60721603 19.38760193 27.50520355 19.39547729 26.36979675 C19.35744468 20.8439012 19.1932056 16.73915988 16 12 C11.47828443 8.43075224 5.52731227 7.18442406 0 6 C0 4.02 0 2.04 0 0 Z M57 10 C57 30.79 57 51.58 57 73 C77.73412006 73.73117822 77.73412006 73.73117822 94 64 C99.68646616 56.96673923 100.36186095 49.83618741 100.375 41.125 C100.41173828 39.85462891 100.41173828 39.85462891 100.44921875 38.55859375 C100.48401568 30.98446155 98.26861234 24.77768003 93.75 18.6875 C83.64983339 8.81688263 70.62265424 10 57 10 Z " fill="#619A37" transform="translate(47,224)"/>
<path d="M0 0 C12.3568753 11.96752102 19.21937706 27.61679386 19.90478516 44.78369141 C20.18642671 63.32579462 14.14409483 79.68133549 1.16796875 93.1875 C-12.54890244 105.71945845 -30.13928956 111.23837787 -48.4375 111 C-50.15525635 110.98259766 -50.15525635 110.98259766 -51.90771484 110.96484375 C-69.5305655 110.62309162 -85.60918344 105.43847286 -98.3984375 92.8203125 C-99.09195313 92.09585938 -99.78546875 91.37140625 -100.5 90.625 C-101.13164063 90.02429688 -101.76328125 89.42359375 -102.4140625 88.8046875 C-114.03923468 76.97466647 -117.58947564 59.62946866 -117.5 43.625 C-116.30305366 26.41177164 -109.43157533 12.80732648 -97.5 0.625 C-96.98050781 0.06941406 -96.46101562 -0.48617188 -95.92578125 -1.05859375 C-70.89316858 -25.30277768 -25.09551273 -21.45077866 0 0 Z M-73.5 0.10546875 C-80.37340281 8.76434534 -83.70185253 18.83611519 -85.5 29.625 C-85.63019531 30.34429687 -85.76039063 31.06359375 -85.89453125 31.8046875 C-88.84385544 52.0173893 -86.95285032 75.86154764 -74.5 92.625 C-68.47116972 99.34946454 -61.07567212 102.56430624 -52.1875 103.5625 C-42.40985723 104.00745691 -34.04098208 102.1886068 -26.53125 95.69921875 C-13.57632712 82.47024942 -11.10384278 65.69277632 -11.1875 47.875 C-11.19241455 46.63943359 -11.1973291 45.40386719 -11.20239258 44.13085938 C-11.41690973 27.41832283 -14.00092421 11.22925024 -26.03125 -1.2421875 C-31.30747375 -5.80044409 -37.47441457 -8.92655838 -44.5 -9.375 C-45.1290625 -9.436875 -45.758125 -9.49875 -46.40625 -9.5625 C-56.39233891 -10.1414037 -66.36071419 -6.96819862 -73.5 0.10546875 Z " fill="#629A38" transform="translate(715.5,273.375)"/>
<path d="M0 0 C5.35229401 -0.29928951 10.69961501 -0.51552672 16.05834961 -0.65917969 C17.87561945 -0.71910561 19.69232097 -0.80068993 21.50756836 -0.90527344 C37.40203356 -1.79728744 37.40203356 -1.79728744 42.59326172 2.58398438 C45.4485396 5.47395884 47.71487138 8.64880646 50 12 C51.14642067 13.35078072 52.30792782 14.68933116 53.5 16 C54.03625 16.61875 54.5725 17.2375 55.125 17.875 C57.54550075 20.61823418 60.02200642 23.30884568 62.5 26 C66.10012756 29.90981595 69.64417605 33.85866468 73.125 37.875 C75.54550075 40.61823418 78.02200642 43.30884568 80.5 46 C84.09763863 49.90711292 87.64003638 53.85250578 91.1171875 57.8671875 C94.02738819 61.16380488 97.01506368 64.38982111 100.00585938 67.61328125 C103.12318213 70.98849572 106.06967242 74.46411633 109 78 C109.06975534 70.31520793 109.12294022 62.63044902 109.15543652 54.94541168 C109.17103947 51.37625379 109.19217818 47.80731378 109.22631836 44.23828125 C109.25910534 40.78881207 109.27689332 37.33955143 109.28463173 33.88993835 C109.29280731 31.94466264 109.31619545 29.99946988 109.33988953 28.05432129 C109.34115883 21.32868759 109.05746972 16.0491874 106 10 C102.29754392 6.87348153 98.63585666 5.32453047 94 4 C94 2.68 94 1.36 94 0 C108.19 0 122.38 0 137 0 C137 1.32 137 2.64 137 4 C136.33613281 4.15855469 135.67226563 4.31710937 134.98828125 4.48046875 C129.41595074 5.95286557 125.5225209 7.15653376 122 12 C119.87467689 17.81882842 119.69518901 23.18603088 119.68115234 29.34155273 C119.67110672 30.35694626 119.6610611 31.37233978 119.65071106 32.41850281 C119.61995215 35.75686098 119.60286406 39.09513921 119.5859375 42.43359375 C119.56722001 44.75530176 119.54764616 47.07700301 119.5272522 49.3986969 C119.47598656 55.49612436 119.43633092 61.59357387 119.39910889 67.69110107 C119.35903441 73.91847156 119.30795775 80.14575079 119.2578125 86.37304688 C119.16111908 98.58196709 119.07669314 110.79093891 119 123 C116.67041016 123.15136719 116.67041016 123.15136719 114 123 C111.89623689 121.1313279 110.18172443 119.37431154 108.375 117.25 C107.31394545 116.0506544 106.2527443 114.85143848 105.19140625 113.65234375 C104.65918457 113.04116699 104.12696289 112.42999023 103.57861328 111.80029297 C101.20469368 109.09301131 98.75724333 106.45566481 96.3125 103.8125 C93.04114707 100.24822466 89.79250302 96.66430193 86.5625 93.0625 C82.10602289 88.09761909 77.58051938 83.19865048 73.05078125 78.30078125 C66.84683239 71.5921578 60.66313207 64.8653631 54.5625 58.0625 C50.57210171 53.61524037 46.52313889 49.22481359 42.46362305 44.84082031 C38.51532112 40.57190535 34.61687356 36.26173946 30.7421875 31.92578125 C29.52933092 30.58511243 28.27836105 29.27836105 27 28 C26.93046962 38.21392327 26.87717325 48.42779017 26.84456348 58.64190197 C26.8289119 63.38480683 26.80768285 68.1275497 26.77368164 72.87036133 C26.74107015 77.44800215 26.72314316 82.02548721 26.71536827 86.60323524 C26.70982798 88.34913904 26.69900911 90.09503438 26.68280983 91.84087181 C26.66101158 94.28757482 26.65803405 96.73363533 26.65942383 99.18041992 C26.648638 99.90115189 26.63785217 100.62188385 26.6267395 101.36445618 C26.65364428 105.74589516 27.28173736 108.53051375 30 112 C32.58312458 113.41288462 32.58312458 113.41288462 35.5 114.25 C36.93859375 114.72179687 36.93859375 114.72179687 38.40625 115.203125 C39.2621875 115.46609375 40.118125 115.7290625 41 116 C41.99 116.33 42.98 116.66 44 117 C44 118.32 44 119.64 44 121 C29.48 121 14.96 121 0 121 C0 119.68 0 118.36 0 117 C1.01320313 116.65388672 1.01320313 116.65388672 2.046875 116.30078125 C9.16886966 113.70080021 9.16886966 113.70080021 14 108 C15.27551407 104.17345779 15.21300746 100.53162034 15.2722168 96.54052734 C15.28842575 95.67672455 15.3046347 94.81292175 15.32133484 93.92294312 C15.46155535 85.95474453 15.53966306 77.98545099 15.60025311 70.01628685 C15.64122082 64.66538655 15.70158253 59.31631676 15.80932617 53.96630859 C15.91324308 48.7884757 15.96768259 43.61227486 15.98771095 38.43346024 C16.00361267 36.46459058 16.03677271 34.49577862 16.08786583 32.52750778 C16.64215912 21.65454146 16.64215912 21.65454146 12.88076782 11.80499268 C8.93683958 8.11989487 5.05910635 5.84217595 0 4 C0 2.68 0 1.36 0 0 Z " fill="#649B3A" transform="translate(756,260)"/>
<path d="M0 0 C5.66028736 1.79290701 9.62943631 2.31561608 15.45947266 0.99584961 C16.44947266 0.33584961 17.43947266 -0.32415039 18.45947266 -1.00415039 C20.10947266 -1.00415039 21.75947266 -1.00415039 23.45947266 -1.00415039 C23.45947266 10.21584961 23.45947266 21.43584961 23.45947266 32.99584961 C21.80947266 32.99584961 20.15947266 32.99584961 18.45947266 32.99584961 C16.75634766 30.68725586 16.75634766 30.68725586 15.20947266 27.55834961 C8.92421754 16.08269027 0.38509017 8.96064445 -12.24755859 5.18725586 C-22.47133044 2.91007165 -32.26683749 3.47215837 -41.60302734 8.43334961 C-52.78202792 15.63720868 -57.14138018 27.5499927 -60.28662109 39.93334961 C-64.31663677 60.83384468 -63.21277302 84.76089552 -51.54052734 102.99584961 C-46.02187784 109.70524506 -38.76233924 112.71703853 -30.47802734 114.74584961 C-22.84928055 115.39510466 -14.42362077 116.08241105 -8.10302734 111.05834961 C-4.46459994 106.25562543 -5.31902455 100.49516062 -5.29052734 94.74584961 C-5.26990234 93.72104492 -5.24927734 92.69624023 -5.22802734 91.64038086 C-5.19706774 85.62647855 -5.59863795 81.28407518 -8.54052734 75.99584961 C-11.2032358 73.4218981 -14.07800539 72.24620476 -17.54052734 70.99584961 C-17.54052734 69.67584961 -17.54052734 68.35584961 -17.54052734 66.99584961 C-0.05052734 66.99584961 17.43947266 66.99584961 35.45947266 66.99584961 C35.45947266 68.31584961 35.45947266 69.63584961 35.45947266 70.99584961 C33.57930136 72.41156053 31.61291796 73.32503579 29.50244141 74.35913086 C25.58848018 77.49479005 24.58114702 81.94557521 24.02709961 86.72802734 C24.00091553 88.03199463 23.97473145 89.33596191 23.94775391 90.67944336 C23.9208271 91.72999657 23.9208271 91.72999657 23.89335632 92.80177307 C23.8396971 95.0122395 23.80550334 97.22249573 23.77197266 99.43334961 C23.73876009 100.94314422 23.70426685 102.45291124 23.66845703 103.96264648 C23.58399871 107.64017893 23.51697716 111.31778552 23.45947266 114.99584961 C17.98131758 117.28194955 12.65161245 119.40946963 6.83447266 120.68334961 C5.29919922 121.02946289 5.29919922 121.02946289 3.73291016 121.38256836 C-13.7471333 124.6574691 -36.85122431 125.98787682 -53.54052734 118.99584961 C-54.71873047 118.52147461 -55.89693359 118.04709961 -57.11083984 117.55834961 C-73.6244028 110.13972953 -84.00599204 97.65271651 -90.54052734 80.88647461 C-96.23671527 64.42093137 -94.52017016 46.47040154 -87.04052734 30.87084961 C-78.46360255 14.05200461 -64.44063163 3.94879286 -46.72021484 -1.94165039 C-30.62662059 -6.71012276 -15.71145127 -5.18198718 0 0 Z " fill="#629A38" transform="translate(451.54052734375,261.004150390625)"/>
<path d="M0 0 C31.02 0 62.04 0 94 0 C94 8.91 94 17.82 94 27 C92.35 26.67 90.7 26.34 89 26 C87.8125 23.671875 87.8125 23.671875 87 20.75 C85.4369686 15.98676992 84.26627284 12.93898796 80 10 C72.34934522 7.81972081 64.85663356 7.57779594 56.9375 7.375 C52.668125 7.25125 48.39875 7.1275 44 7 C44 23.17 44 39.34 44 56 C48.516875 55.896875 53.03375 55.79375 57.6875 55.6875 C59.10377686 55.66260498 60.52005371 55.63770996 61.97924805 55.61206055 C63.10371338 55.57894775 64.22817871 55.54583496 65.38671875 55.51171875 C67.10701294 55.47244263 67.10701294 55.47244263 68.86206055 55.43237305 C73.06000468 54.85394318 75.7541855 53.34164638 78.625 50.25 C80.44151643 47.27751857 81.6953751 44.23049975 83 41 C84.32 41 85.64 41 87 41 C87 53.87 87 66.74 87 80 C85.35 79.67 83.7 79.34 82 79 C80.99609375 77.29296875 80.99609375 77.29296875 80.4375 75.1875 C79.26289837 71.51933068 78.1400871 69.40124308 75 67 C71.1927596 65.17725728 68.02686135 64.71015354 63.82421875 64.5859375 C62.66728516 64.54726563 61.51035156 64.50859375 60.31835938 64.46875 C59.12017578 64.4378125 57.92199219 64.406875 56.6875 64.375 C55.46998047 64.33632813 54.25246094 64.29765625 52.99804688 64.2578125 C49.99884772 64.16371998 46.99965177 64.07807791 44 64 C44.0690294 69.58718618 44.1570705 75.17363489 44.26245117 80.76025391 C44.29562793 82.65925899 44.32368231 84.55836096 44.34643555 86.45751953 C44.38011518 89.19345235 44.4324372 91.92850311 44.48828125 94.6640625 C44.49467117 95.50804596 44.5010611 96.35202942 44.50764465 97.22158813 C44.63072271 102.19824982 45.26510506 105.67872243 48 110 C54.32748149 114.58196936 64.96566538 113.66285406 72.34375 112.69140625 C79.8411595 111.06216149 84.28125181 107.23124746 88.609375 101.171875 C90.70472133 97.8993678 92.36411505 94.52344451 94 91 C95.32 91 96.64 91 98 91 C98 101.02219759 96.99724593 111.02754067 96 121 C64.32 121 32.64 121 0 121 C0 119.68 0 118.36 0 117 C0.67546875 116.75765625 1.3509375 116.5153125 2.046875 116.265625 C8.87835781 113.87405162 8.87835781 113.87405162 14 109 C15.2333983 104.54209419 15.15467054 100.0547688 15.16113281 95.46533203 C15.16609772 94.61753174 15.17106262 93.76973145 15.17617798 92.89624023 C15.1907467 90.10008931 15.19759219 87.30399509 15.203125 84.5078125 C15.20888009 82.55874633 15.21463778 80.60968017 15.22039795 78.66061401 C15.23089238 74.57696266 15.23674547 70.4933309 15.24023438 66.40966797 C15.24572078 61.1853928 15.26975858 55.96137802 15.29820633 50.73718452 C15.31685739 46.71193694 15.32203959 42.68675184 15.32357025 38.66146469 C15.3265909 36.73580372 15.33459952 34.8101437 15.34775543 32.8845253 C15.36487021 30.18730235 15.36292266 27.49071272 15.35644531 24.79345703 C15.3656601 24.0036142 15.37487488 23.21377136 15.3843689 22.3999939 C15.34551804 17.21786528 14.43556867 13.60023691 12 9 C9.91788214 7.38700624 9.91788214 7.38700624 7.5 6.625 C6.7265625 6.32851563 5.953125 6.03203125 5.15625 5.7265625 C3.43859329 5.14778687 1.71953285 4.57317762 0 4 C0 2.68 0 1.36 0 0 Z " fill="#609936" transform="translate(237,260)"/>
<path d="M0 0 C1.492178 0.18887712 2.98436547 0.37767954 4.4765625 0.56640625 C6.91242309 0.88894551 9.34249576 1.230933 11.7734375 1.58984375 C16.91444544 2.27685532 19.2385463 2.22132026 23.625 -0.875 C24.945 -0.545 26.265 -0.215 27.625 0.125 C27.625 10.685 27.625 21.245 27.625 32.125 C25.975 32.125 24.325 32.125 22.625 32.125 C22.36847656 31.50753906 22.11195313 30.89007813 21.84765625 30.25390625 C17.70046951 21.0798265 11.59076862 13.4189292 1.94140625 9.77734375 C-5.74802954 7.6118534 -12.10405443 7.61885233 -19.375 11.125 C-22.74681662 13.34896415 -25.1785674 15.2094024 -26.375 19.125 C-26.88395043 24.29932934 -26.7383664 27.89733668 -23.81933594 32.41992188 C-18.45906798 38.74786498 -10.64469424 42.95129894 -3.5625 47.0625 C-1.79837624 48.10751535 -0.03535054 49.15438664 1.7265625 50.203125 C2.56864258 50.70392578 3.41072266 51.20472656 4.27832031 51.72070312 C17.30642876 59.51696611 29.2522979 67.9800673 34.26171875 83.0390625 C36.09447147 93.56261039 34.89885127 103.63203364 29 112.59375 C22.58187214 120.61640983 13.51711192 124.86511981 3.625 127.125 C0.24525577 127.42206943 -3.10862696 127.4571104 -6.5 127.4375 C-7.8917041 127.43556641 -7.8917041 127.43556641 -9.31152344 127.43359375 C-15.77111131 127.34365866 -21.3978394 126.50513471 -27.6328125 124.8046875 C-31.73865106 123.78700102 -35.16434724 123.71751748 -39.375 124.125 C-39.86742187 124.62773437 -40.35984375 125.13046875 -40.8671875 125.6484375 C-42.375 127.125 -42.375 127.125 -46.375 127.125 C-46.375 114.585 -46.375 102.045 -46.375 89.125 C-45.055 89.125 -43.735 89.125 -42.375 89.125 C-41.93800781 90.3934375 -41.93800781 90.3934375 -41.4921875 91.6875 C-37.48739338 102.76994912 -32.70598851 111.52381266 -21.8125 116.875 C-12.66841087 120.20012332 -4.33328822 119.87010377 4.625 116.125 C8.08110251 114.11960718 10.22076004 111.91590427 12.0625 108.3125 C13.00617166 102.96502724 12.53874898 98.91594801 10.0625 94.0625 C3.91509958 86.65409437 -3.50321053 82.07447193 -11.8343811 77.38830566 C-26.2040653 69.25654607 -39.60307487 61.61947378 -45.375 45.125 C-47.48869901 34.5300837 -46.25631246 25.04341372 -40.90234375 15.5 C-34.15288495 6.05394891 -23.82695426 1.37475483 -12.625 -0.50390625 C-8.29589955 -1.00666972 -4.29707101 -0.60719482 0 0 Z " fill="#639B3A" transform="translate(960.375,256.875)"/>
<path d="M0 0 C3.07177734 1.53588867 3.52729805 3.98379349 4.9140625 7.0859375 C5.20092422 7.7223819 5.48778595 8.35882629 5.78334045 9.01455688 C6.73637458 11.13214551 7.68055158 13.25356997 8.625 15.375 C9.28809453 16.8518877 9.95192413 18.32844557 10.61645508 19.8046875 C11.66027988 22.12375924 12.7036062 24.44304238 13.74464417 26.7633667 C17.67899604 35.53024374 21.68341564 44.26481381 25.6875 53 C28.1301438 58.3310001 30.56767351 63.6642847 33 69 C33.4429541 69.96421875 33.8859082 70.9284375 34.34228516 71.921875 C37 77.77047744 37 77.77047744 37 80 C5.32 80 -26.36 80 -59 80 C-57.47694125 76.19235313 -56.64045963 74.2414333 -54.234375 71.2421875 C-53.68152832 70.54440186 -53.12868164 69.84661621 -52.55908203 69.12768555 C-51.96208496 68.38429932 -51.36508789 67.64091309 -50.75 66.875 C-45.75661618 60.5607482 -40.87209239 54.18901191 -36.125 47.6875 C-30.46011805 39.94293209 -24.68280659 32.29130256 -18.85375977 24.66967773 C-14.04330983 18.3782724 -9.27375898 12.05794977 -4.54052734 5.70825195 C-1.10002972 1.10002972 -1.10002972 1.10002972 0 0 Z " fill="#8EC742" transform="translate(60,77)"/>
<path d="M0 0 C0.66 0 1.32 0 2 0 C3.25830078 1.41088867 3.25830078 1.41088867 4.6953125 3.41796875 C5.23800781 4.16691406 5.78070313 4.91585937 6.33984375 5.6875 C6.92894531 6.5125 7.51804688 7.3375 8.125 8.1875 C9.39682998 9.94257228 10.6703291 11.69643596 11.9453125 13.44921875 C12.61079102 14.36493652 13.27626953 15.2806543 13.96191406 16.22412109 C17.24591231 20.69693615 20.62273173 25.09743825 24 29.5 C29.66301389 36.89883745 35.24433105 44.35048401 40.75048828 51.86669922 C45.89480107 58.88301546 51.1221661 65.83557047 56.37915039 72.76782227 C57.28588501 73.96942993 57.28588501 73.96942993 58.2109375 75.1953125 C58.75024902 75.90703613 59.28956055 76.61875977 59.84521484 77.35205078 C61 79 61 79 61 80 C29.32 80 -2.36 80 -35 80 C-34.29230536 76.46152681 -33.79558897 74.20242365 -32.36450195 71.0847168 C-32.02889755 70.34642639 -31.69329315 69.60813599 -31.34751892 68.84747314 C-30.79844627 67.66033722 -30.79844627 67.66033722 -30.23828125 66.44921875 C-29.85543472 65.60969666 -29.4725882 64.77017456 -29.07814026 63.9052124 C-28.25488588 62.10090831 -27.42934421 60.29764643 -26.60174561 58.49533081 C-24.43085467 53.7673764 -22.27599138 49.03213538 -20.12109375 44.296875 C-19.68774719 43.34546127 -19.25440063 42.39404755 -18.80792236 41.4138031 C-14.122077 31.1058339 -9.59386224 20.73068709 -5.1027832 10.33666992 C-4.82925522 9.70577454 -4.55572723 9.07487915 -4.27391052 8.42486572 C-3.54618119 6.74568046 -2.8215499 5.06515349 -2.09716797 3.38452148 C-1 1 -1 1 0 0 Z " fill="#8EC742" transform="translate(173,77)"/>
<path d="M0 0 C19.8 0 39.6 0 60 0 C60 1.32 60 2.64 60 4 C58.98679687 4.36351562 58.98679687 4.36351562 57.953125 4.734375 C51.14579176 7.14348131 51.14579176 7.14348131 46 12 C44.71765283 16.15758279 44.84476149 20.3086833 44.83886719 24.62060547 C44.83390228 25.48937317 44.82893738 26.35814087 44.82382202 27.25323486 C44.80922812 30.12456049 44.80240344 32.99583089 44.796875 35.8671875 C44.7911218 37.86491904 44.78536408 39.86265057 44.77960205 41.86038208 C44.76910032 46.0483628 44.76325206 50.23632437 44.75976562 54.42431641 C44.75427898 59.7865993 44.73024373 65.14862852 44.70179367 70.51083183 C44.68315771 74.6372654 44.6779612 78.76363793 44.67642975 82.89011002 C44.67340548 84.86683669 44.66538456 86.84356234 44.65224457 88.82024765 C44.63516219 91.58722941 44.63706955 94.35359215 44.64355469 97.12060547 C44.6343399 97.9343161 44.62512512 98.74802673 44.6156311 99.58639526 C44.65122435 104.4420099 45.27353652 107.81196806 48 112 C50.89377602 113.77646114 50.89377602 113.77646114 54.1875 114.875 C55.27417969 115.28492188 56.36085938 115.69484375 57.48046875 116.1171875 C58.31191406 116.40851563 59.14335938 116.69984375 60 117 C60 118.32 60 119.64 60 121 C40.2 121 20.4 121 0 121 C0 119.68 0 118.36 0 117 C0.84304688 116.67386719 1.68609375 116.34773438 2.5546875 116.01171875 C3.65039062 115.57472656 4.74609375 115.13773437 5.875 114.6875 C7.51082031 114.04361328 7.51082031 114.04361328 9.1796875 113.38671875 C12.24871309 112.17067625 12.24871309 112.17067625 14 109 C15.25953876 104.58323615 15.14789535 100.11300125 15.14526367 95.55712891 C15.14862228 94.71908218 15.1519809 93.88103546 15.15544128 93.01759338 C15.16492119 90.25390124 15.16689289 87.49026988 15.16796875 84.7265625 C15.17118331 82.79991633 15.17454753 80.87327041 15.17805481 78.94662476 C15.18403861 74.91004877 15.18589547 70.87349417 15.18530273 66.83691406 C15.18520114 61.67323035 15.19885425 56.50968421 15.21607494 51.3460331 C15.22721174 47.36710993 15.22922143 43.38821984 15.22869301 39.40928268 C15.22987055 37.50596009 15.23427964 35.60263657 15.24202538 33.69932938 C15.25185945 31.03334251 15.24893379 28.36765214 15.24291992 25.70166016 C15.24853943 24.92116806 15.25415894 24.14067596 15.25994873 23.33653259 C15.2328461 18.59103453 14.72032889 14.49027209 13 10 C8.86587785 7.05841308 4.88174954 5.42880474 0 4 C0 2.68 0 1.36 0 0 Z " fill="#5F9834" transform="translate(511,260)"/>
<path d="M0 0 C3.48188648 1.16062883 4.02003914 2.02548015 6.109375 4.9375 C6.69976562 5.75089844 7.29015625 6.56429688 7.8984375 7.40234375 C8.50945312 8.25957031 9.12046875 9.11679688 9.75 10 C10.95189007 11.66755744 12.15501319 13.33422685 13.359375 15 C13.95041016 15.84304687 14.54144531 16.68609375 15.15039062 17.5546875 C16.93282551 20.03032682 16.93282551 20.03032682 19.08398438 22.0703125 C22.21977955 25.30131791 24.00428195 27.54489827 23.99066162 32.17338562 C23.80779602 33.3958046 23.62493042 34.61822357 23.43652344 35.87768555 C23.33629379 36.567914 23.23606415 37.25814245 23.13279724 37.96928692 C22.78059155 40.31764876 22.39501214 42.65846777 22 45 C21.85918251 45.83901981 21.71836502 46.67803963 21.57328033 47.54248428 C20.42084883 54.31664882 19.18196682 61.07428386 17.9375 67.83203125 C17.54119665 70.00234504 17.14528943 72.17273121 16.74975586 74.34318542 C15.71546148 80.01287751 14.67588945 85.68158894 13.63513184 91.35009766 C12.57907455 97.10716257 11.52801982 102.86514039 10.4765625 108.62304688 C8.7773912 117.92479865 7.07534038 127.2260174 5.368927 136.52644348 C5.21761322 137.35144348 5.06629944 138.17644348 4.91040039 139.02644348 C4.68672287 140.22774619 4.68672287 140.22774619 4.45852661 141.45331764 C4.1240371 143.31109102 3.81111152 145.17278455 3.51095581 147.03641319 C3.34548248 148.03672884 3.18000916 149.03704449 3.00952148 150.06767273 C2.86377182 150.98602748 2.71802216 151.90438223 2.56785583 152.85056591 C2.2867672 153.91453578 2.2867672 153.91453578 2 155 C1.34 155.33 0.68 155.66 0 156 C-2.89689359 140.05115317 -5.78326927 124.10044438 -8.65714359 108.14743519 C-9.99178201 100.74019985 -11.32985288 93.33361541 -12.67602539 85.9284668 C-13.84935813 79.47404137 -15.01623019 73.01848713 -16.17536348 66.56149596 C-16.78932439 63.1427015 -17.40650174 59.7245589 -18.03141975 56.30774879 C-18.72896505 52.49315776 -19.41208349 48.67606117 -20.09399414 44.85864258 C-20.30330566 43.72647812 -20.51261719 42.59431366 -20.72827148 41.42784119 C-20.91200821 40.38602692 -21.09574493 39.34421265 -21.28504944 38.27082825 C-21.52978548 36.91717525 -21.52978548 36.91717525 -21.77946568 35.53617573 C-22.20423033 30.65132247 -20.99057462 27.5278658 -18.0859375 23.671875 C-17.48910156 22.87136719 -16.89226562 22.07085938 -16.27734375 21.24609375 C-15.33568359 20.01052734 -15.33568359 20.01052734 -14.375 18.75 C-13.46814453 17.53763672 -13.46814453 17.53763672 -12.54296875 16.30078125 C-8.42753029 10.81645495 -4.22466685 5.40043785 0 0 Z " fill="#8FC744" transform="translate(116,1)"/>
<path d="M0 0 C4.98552795 3.4665727 8.08093078 7.87522097 11.5625 12.75 C12.79315389 14.45523373 14.02494635 16.15964628 15.2578125 17.86328125 C15.87688477 18.72002441 16.49595703 19.57676758 17.13378906 20.45947266 C18.92295886 22.89512165 20.75594307 25.28710568 22.6171875 27.66796875 C23.17720459 28.38952148 23.73722168 29.11107422 24.31420898 29.85449219 C25.37695723 31.21821125 26.44908272 32.5746865 27.53149414 33.92285156 C31.04798315 38.47254506 31.04798315 38.47254506 30.8371582 40.79003906 C29.67766904 43.8509011 28.18558937 46.70355971 26.640625 49.58203125 C26.3000708 50.22412033 25.9595166 50.86620941 25.60864258 51.52775574 C24.49391785 53.62528036 23.37231043 55.71902566 22.25 57.8125 C21.47230027 59.27016604 20.69463125 60.72784847 19.91699219 62.18554688 C14.97152502 71.4331778 9.91020824 80.60774272 4.69897461 89.70874023 C0.01472298 97.9022986 -4.45771893 106.20479148 -8.86425781 114.55078125 C-9.37698242 115.51113281 -9.88970703 116.47148437 -10.41796875 117.4609375 C-10.86938232 118.31478027 -11.3207959 119.16862305 -11.78588867 120.04833984 C-13 122 -13 122 -15 123 C-7.39131147 58.13171991 -7.39131147 58.13171991 -3.9463501 29.27996826 C-3.69139183 27.14288363 -3.43711425 25.00571767 -3.18353271 22.86846924 C-2.8339422 19.92379458 -2.48180811 16.97943564 -2.12890625 14.03515625 C-2.02821335 13.1830809 -1.92752045 12.33100555 -1.82377625 11.45310974 C-1.35849371 7.59543637 -0.8427791 3.79801589 0 0 Z " fill="#90C846" transform="translate(141,34)"/>
<path d="M0 0 C1.64144528 2.93940783 2.36070329 5.39698998 2.77200317 8.7305603 C2.89255066 9.67818741 3.01309814 10.62581451 3.13729858 11.60215759 C3.26101837 12.63498367 3.38473816 13.66780975 3.51220703 14.73193359 C3.64904907 15.82503342 3.78589111 16.91813324 3.92687988 18.0443573 C4.37776849 21.66152708 4.81796793 25.27990948 5.2578125 28.8984375 C5.56829595 31.41190167 5.87932842 33.92529808 6.19088745 36.43862915 C6.84261935 41.70886041 7.48955002 46.97964781 8.13232422 52.25097656 C8.87443237 58.33658207 9.62422362 64.42120087 10.37846863 70.50531328 C11.10499767 76.36641141 11.82724775 82.2280297 12.54732895 88.08992386 C12.85346232 90.58030548 13.16047694 93.07057893 13.4683876 95.56074142 C13.89813972 99.04314742 14.32305956 102.52610894 14.74658203 106.00927734 C14.93823441 107.55244377 14.93823441 107.55244377 15.13375854 109.12678528 C15.69475534 113.78077242 16.1591341 118.30129763 16 123 C13.15451833 120.49410256 11.63505061 117.73314305 9.8828125 114.390625 C9.28275391 113.25560547 8.68269531 112.12058594 8.06445312 110.95117188 C7.74871338 110.34845459 7.43297363 109.7457373 7.10766602 109.12475586 C5.43072646 105.92544682 3.73518785 102.73604373 2.0390625 99.546875 C1.696474 98.90218262 1.3538855 98.25749023 1.00091553 97.59326172 C-2.06666889 91.83828308 -5.26125189 86.16033672 -8.5 80.5 C-15.93830369 67.4791729 -22.96960919 54.24411266 -30 41 C-25.82948357 34.2690638 -21.50778082 27.79545504 -16.625 21.5625 C-15.49690924 20.10584546 -14.36930817 18.64881156 -13.2421875 17.19140625 C-12.69530273 16.4864502 -12.14841797 15.78149414 -11.58496094 15.05517578 C-8.54556623 11.11407524 -5.58156681 7.11684885 -2.609375 3.125 C-1 1 -1 1 0 0 Z " fill="#90C845" transform="translate(92,34)"/>
<path d="M0 0 C3.81744848 1.29649194 5.63952442 2.61106582 8.375 5.5625 C10.55453405 10.1730528 10.80748663 13.98379515 10 19 C7.81545725 23.4499945 5.54146346 25.99330685 1 28 C-4.64590768 29.46375384 -7.94457834 28.90218651 -13 26 C-16.92152175 22.33422967 -18.78905845 19.30727734 -19.1328125 14.01953125 C-18.81234549 9.14654767 -16.95409694 5.88428497 -13.4375 2.625 C-8.89510351 -0.40326433 -5.37572511 -0.4895264 0 0 Z M-12 6 C-14.3453706 8.91149453 -14.96853279 10.7797295 -15.5 14.5 C-15.25 18.75 -15.25 18.75 -10 23 C-10 17.39 -10 11.78 -10 6 C-6.37 6.33 -2.74 6.66 1 7 C1.6875 9.8125 1.6875 9.8125 2 13 C0.5625 14.875 0.5625 14.875 -1 16 C0.98 18.97 0.98 18.97 3 22 C6.09518662 20.37960174 6.09518662 20.37960174 6.65234375 18.046875 C7.18697644 13.74051851 7.2762353 11.56270154 5.3125 7.5625 C2.21673761 4.13206059 0.63072792 3.17348169 -3.9375 2.6875 C-7.49256959 3.0502622 -9.19582377 3.80213214 -12 6 Z M-7 9 C-7 10.32 -7 11.64 -7 13 C-5.35 13 -3.7 13 -2 13 C-1.67 11.68 -1.34 10.36 -1 9 C-2.98 9 -4.96 9 -7 9 Z M-7 16 C-7 18.31 -7 20.62 -7 23 C-7.99 23.33 -8.98 23.66 -10 24 C-7.77109005 25.11445498 -6.46944894 25.16480286 -4 25.1875 C-2.948125 25.20876953 -2.948125 25.20876953 -1.875 25.23046875 C0.24524938 25.16512323 0.24524938 25.16512323 2 23 C1.38125 22.401875 0.7625 21.80375 0.125 21.1875 C-2 19 -2 19 -4 16 C-4.99 16 -5.98 16 -7 16 Z " fill="#71A44C" transform="translate(1012,224)"/>
<path d="M0 0 C1.22589844 0.01353516 1.22589844 0.01353516 2.4765625 0.02734375 C3.41628906 0.04474609 3.41628906 0.04474609 4.375 0.0625 C4.375 0.3925 4.375 0.7225 4.375 1.0625 C1.735 1.3925 -0.905 1.7225 -3.625 2.0625 C-3.295 2.7225 -2.965 3.3825 -2.625 4.0625 C-3.800625 4.68125 -3.800625 4.68125 -5 5.3125 C-7.80359466 7.1815631 -8.65659947 7.89318917 -9.625 11.0625 C-10.0867213 15.29494524 -10.10038938 17.33356961 -7.75 20.9375 C-5.39847149 23.28902851 -4.54187791 24.02492304 -1.2421875 24.16015625 C-0.33726562 24.14855469 0.56765625 24.13695312 1.5 24.125 C2.41007813 24.11597656 3.32015625 24.10695312 4.2578125 24.09765625 C4.95648437 24.08605469 5.65515625 24.07445312 6.375 24.0625 C6.045 25.3825 5.715 26.7025 5.375 28.0625 C-0.32078172 29.34114488 -3.54275847 28.9800831 -8.625 26.0625 C-12.54652175 22.39672967 -14.41405845 19.36977734 -14.7578125 14.08203125 C-14.43734549 9.20904767 -12.57909694 5.94678497 -9.0625 2.6875 C-5.68882326 0.43838217 -4.01260647 -0.05732295 0 0 Z " fill="#7FAC5D" transform="translate(1007.625,223.9375)"/>
<path d="M0 0 C1.22589844 0.01353516 1.22589844 0.01353516 2.4765625 0.02734375 C3.41628906 0.04474609 3.41628906 0.04474609 4.375 0.0625 C4.375 0.3925 4.375 0.7225 4.375 1.0625 C1.735 1.3925 -0.905 1.7225 -3.625 2.0625 C-3.295 2.7225 -2.965 3.3825 -2.625 4.0625 C-6.20254493 6.2721601 -9.84694036 8.21740111 -13.625 10.0625 C-12.27217831 5.63508356 -10.39201112 3.69940779 -6.625 1.0625 C-4.21954362 -0.14022819 -2.67503047 -0.03821472 0 0 Z " fill="#88B269" transform="translate(1007.625,223.9375)"/>
<path d="M0 0 C-0.33 0.99 -0.66 1.98 -1 3 C-8.42857143 4.28571429 -8.42857143 4.28571429 -12 3 C-11.67 2.01 -11.34 1.02 -11 0 C-9.54263913 -0.19491452 -8.08405407 -0.38069358 -6.625 -0.5625 C-5.81289063 -0.66691406 -5.00078125 -0.77132812 -4.1640625 -0.87890625 C-2 -1 -2 -1 0 0 Z " fill="#87B166" transform="translate(1014,249)"/>
<path d="M0 0 C1.32 0.33 2.64 0.66 4 1 C4.33 2.98 4.66 4.96 5 7 C2 7 2 7 0 6 C0.33 5.01 0.66 4.02 1 3 C-0.98 3 -2.96 3 -5 3 C-5 2.67 -5 2.34 -5 2 C-3.35 1.67 -1.7 1.34 0 1 C0 0.67 0 0.34 0 0 Z " fill="#99BD7F" transform="translate(1010,230)"/>
<path d="M0 0 C0.33 0 0.66 0 1 0 C1.33 4.62 1.66 9.24 2 14 C-0.8290723 11.1709277 -1.37611108 10.61855575 -2 7 C-1.34 7 -0.68 7 0 7 C0 4.69 0 2.38 0 0 Z " fill="#B7DC88" transform="translate(106,143)"/>
<path d="M0 0 C4 4.625 4 4.625 4 8 C2.35 7.01 0.7 6.02 -1 5 C-0.67 3.35 -0.34 1.7 0 0 Z " fill="#96BC7C" transform="translate(1011,240)"/>
</svg>
