<?xml version="1.0" encoding="UTF-8"?>
<svg version="1.1" xmlns="http://www.w3.org/2000/svg" width="2400" height="731">
<path d="M0 0 C286.44 0 572.88 0 868 0 C868 241.23 868 482.46 868 731 C581.56 731 295.12 731 0 731 C0 489.77 0 248.54 0 0 Z M90 150 C90 169.47 90 188.94 90 209 C139.5 209 189 209 240 209 C240 329.78 240 450.56 240 575 C273.33 575 306.66 575 341 575 C341 454.22 341 333.44 341 209 C606.58563344 210.49205412 606.58563344 210.49205412 627.18359375 230.9609375 C655.37973603 260.52341267 661.91211024 308.98102045 663 348 C663.02191406 348.72445312 663.04382813 349.44890625 663.06640625 350.1953125 C664.18470569 393.58533085 661.20605621 452.98831875 631.87890625 488.0234375 C613.16950217 507.70526383 584.52582183 513.10400575 558.43017578 513.94580078 C540.96140081 514.33539974 523.50864488 514.04775814 506.05297852 513.35595703 C493.70298888 512.8937679 481.35694591 512.95207807 469 513 C469.00222061 512.36110336 469.00444122 511.72220673 469.00672913 511.06394958 C469.12098108 476.34985637 468.98936761 441.6483452 468.49490356 406.93759155 C468.42370471 401.93627641 468.35374336 396.93494541 468.28515625 391.93359375 C468.27329851 391.06921377 468.26144077 390.20483379 468.24922371 389.31426048 C468.02165213 372.49252983 467.87802236 355.67037569 467.74609375 338.84765625 C467.72514962 336.21412654 467.70419929 333.58059687 467.6832428 330.94706726 C467.59036203 319.19018892 467.50060024 307.43330303 467.41948795 295.67633724 C467.38476309 290.76522664 467.34659655 285.85414654 467.30768013 280.94306755 C467.29037248 278.65769507 467.2745815 276.37231049 467.26048088 274.08691597 C467.24076079 270.90848707 467.21564138 267.73013915 467.18945312 264.55175781 C467.1852665 263.65931209 467.18107988 262.76686636 467.1767664 261.84737682 C467.08921836 252.52933585 466.49150426 243.33858098 466 234 C433 234 400 234 366 234 C366 346.86 366 459.72 366 576 C380.32789576 576.01486606 380.32789576 576.01486606 394.65039062 575.84814453 C395.58223993 575.831765 396.51408924 575.81538548 397.47417641 575.7985096 C399.48196313 575.76307322 401.48973809 575.72696428 403.49750137 575.69022369 C406.7933752 575.63032021 410.08928911 575.57326 413.38522339 575.51678467 C424.63968816 575.32293288 435.89388334 575.11883425 447.14785576 574.89818764 C453.95525149 574.76568124 460.76274429 574.63893071 467.5703125 574.515625 C468.26750916 574.50291801 468.96470582 574.49021102 469.68302965 574.47711897 C491.36545144 574.08457906 513.03919274 573.95257906 534.72495723 573.98038733 C540.51061235 573.98651866 546.29609992 573.97775961 552.08172607 573.95907593 C552.89650492 573.95646692 553.71128376 573.95385792 554.55075288 573.95116985 C558.64586443 573.93752953 562.74096386 573.92198299 566.83606339 573.90514183 C574.85672809 573.87496325 582.8753073 573.87583678 590.89575195 573.94781494 C637.20126056 575.20479559 637.20126056 575.20479559 679.2010498 557.8691864 C682.58402403 555.60997885 686.08615821 553.81464654 689.74751282 552.05563354 C701.60249262 546.35410754 711.4873264 537.96262105 721 529 C721.67546875 528.38898438 722.3509375 527.77796875 723.046875 527.1484375 C739.32062832 511.85110938 748.88535189 490.75478157 756 470 C756.3710083 468.92395508 756.3710083 468.92395508 756.74951172 467.82617188 C770.96291406 425.66278849 772.62143028 377.44557682 770.25 333.375 C770.20743073 332.57929596 770.16486145 331.78359192 770.1210022 330.96377563 C767.37680883 281.21514322 759.07491031 232.26726345 723.33837891 195.38525391 C722.18428424 194.19073856 721.04923142 192.97787918 719.91796875 191.76171875 C683.99243496 154.0210001 637.73080917 154.39865998 589.30926675 153.17409831 C576.69929759 152.8635034 564.08764842 152.68220915 551.47489858 152.53141093 C549.09936618 152.50289519 546.72384598 152.47348143 544.34832573 152.44397163 C488.24267928 151.75310369 432.13230122 151.43354571 376.02387111 151.05364855 C363.98130445 150.97203775 351.9387662 150.88695929 339.89624023 150.79956055 C256.59556462 150.19566571 173.30306852 149.86931713 90 150 Z " fill="#53B848" transform="translate(0,0)"/>
<path d="M0 0 C80.59482003 1.20290776 80.59482003 1.20290776 110.91552734 1.82006836 C114.84092701 1.89982246 118.7663714 1.97613743 122.69189453 2.04956055 C144.92217601 2.46641359 167.13650427 3.04450734 189.3515625 3.98046875 C190.32121696 4.02063551 191.29087143 4.06080227 192.28990936 4.1021862 C273.56687078 7.5115845 273.56687078 7.5115845 295.74609375 29.75390625 C311.9639523 48.29212812 318.03000068 68.96674301 317.18359375 93.33056641 C316.73718617 99.82128515 315.04502295 105.85147704 313 112 C312.649375 113.05445313 312.29875 114.10890625 311.9375 115.1953125 C305.60601209 132.03531158 293.43841001 145.09598678 278 154 C276.35915556 154.95795756 274.7185508 155.91632573 273.078125 156.875 C268.39645213 159.60267418 263.70211814 162.30774663 259 165 C259.51796143 165.235979 260.03592285 165.47195801 260.56958008 165.71508789 C286.19568365 177.45173526 308.18555849 192.43689595 318.8125 219.75 C326.00364866 241.51393998 323.19789197 265.37486011 313.35107422 285.90844727 C304.70526645 302.77404376 289.75742109 315.452571 272 322 C230.83383057 334.93222937 181.35021153 330.25515148 138.61706543 330.94140625 C135.41085453 330.99334446 132.20467569 331.04693974 128.99850368 331.10121822 C120.81359817 331.23964416 112.62858734 331.36961554 104.44345093 331.49362183 C101.55493165 331.53740988 98.66644866 331.58287053 95.77798462 331.63015747 C63.84866196 332.14202218 31.93999808 332 0 332 C0 222.44 0 112.88 0 0 Z M114 68 C114 87.47 114 106.94 114 127 C120.208125 127.061875 126.41625 127.12375 132.8125 127.1875 C134.72780518 127.21481201 136.64311035 127.24212402 138.61645508 127.27026367 C162.53681479 127.76830517 162.53681479 127.76830517 183.75390625 118.50390625 C190.47980053 111.48628644 191.49174832 103.36228896 191.421875 93.95996094 C191.15265035 86.45355271 189.73199212 80.68805657 184.328125 75.37109375 C181.00059903 72.73980264 177.47477502 71.64858083 173.375 70.75 C172.73949219 70.59015625 172.10398437 70.4303125 171.44921875 70.265625 C158.79812352 67.28304852 145.65414352 67.87652959 132.75 67.9375 C126.5625 67.958125 120.375 67.97875 114 68 Z M114 200 C113.68792657 222.58322533 113.68792657 222.58322533 114.875 245.125 C114.95347168 246.04611572 115.03194336 246.96723145 115.11279297 247.91625977 C115.56180616 252.49042007 116.08057736 256.7706515 118 261 C132.66351047 269.17772699 153.71094218 265.04650894 169.26171875 261.19140625 C179.64686355 257.85808588 189.49084742 250.74472771 195.0234375 241.2421875 C198.03106823 234.64747425 198.20276527 226.58412424 196.37890625 219.6328125 C193.33881216 212.68788644 187.37240898 207.81271886 180.5625 204.75 C165.63404272 199.65836412 150.52866833 199.60948667 134.9375 199.8125 C132.89519229 199.82759214 130.85287365 199.84127244 128.81054688 199.85351562 C123.87342091 199.88612071 118.93683616 199.93764602 114 200 Z " fill="#003E2C" transform="translate(1107,142)"/>
<path d="M0 0 C37.95 0 75.9 0 115 0 C115.04898438 9.66796875 115.09796875 19.3359375 115.1484375 29.296875 C115.18393614 35.52214302 115.21988835 41.74740331 115.2578125 47.97265625 C115.31756783 57.79473891 115.37571402 67.61680765 115.421875 77.43896484 C115.56486219 122.14593905 115.56486219 122.14593905 116.9140625 166.828125 C116.9713962 168.14432453 116.9713962 168.14432453 117.02988815 169.48711395 C117.44873798 178.77093845 118.16379175 187.86709171 120 197 C131.87145136 185.75678832 140.97855934 172.3913667 150.45996094 159.14990234 C151.8582162 157.1979309 153.26035712 155.24883485 154.6640625 153.30078125 C158.45115255 148.03553078 162.21046027 142.75220891 165.868927 137.39648438 C166.78698341 136.07115118 167.72187833 134.75720907 168.67858887 133.45950317 C171.34938867 129.76519309 173.32054866 126.39029091 174.8215332 122.07592773 C177.30374754 115.94262365 180.16479528 111.37214067 186 108 C199.08170361 104.21731808 214.31748178 106.10124628 227.73614502 106.63708496 C232.91134254 106.823254 238.08796742 106.89863086 243.265625 106.984375 C254.51616957 107.19352237 265.75653631 107.55486939 277 108 C278.01003334 108.03866684 279.02006668 108.07733368 280.06070709 108.11717224 C283.17492078 108.23723769 286.28888784 108.36240977 289.40283203 108.48925781 C290.35529249 108.52609554 291.30775295 108.56293327 292.28907585 108.6008873 C309.4935361 109.32902406 309.4935361 109.32902406 315 113 C314.59113511 118.36766216 311.54892036 121.83836697 308.4375 126 C307.57717163 127.17054932 307.57717163 127.17054932 306.69946289 128.36474609 C300.83794436 136.30403293 294.84119037 144.14277111 288.83984375 151.9765625 C285.04776359 156.92860605 281.30094947 161.91303391 277.57348633 166.91381836 C274.81370458 170.60817833 272.02133441 174.2739619 269.1953125 177.91796875 C265.0746323 183.23775444 261.02206276 188.60536648 257 194 C256.29794434 194.93199219 255.59588867 195.86398437 254.87255859 196.82421875 C252.81392889 199.5862017 250.80769997 202.37946876 248.8125 205.1875 C248.18166504 206.02369873 247.55083008 206.85989746 246.90087891 207.72143555 C243.79366646 212.18407062 243.79366646 212.18407062 243.11621094 217.43457031 C243.84380094 220.11868701 244.81497499 222.48422875 246 225 C246.400979 225.88421631 246.80195801 226.76843262 247.21508789 227.67944336 C248.61453976 230.61950516 250.10200369 233.49704455 251.625 236.375 C252.18985107 237.45080322 252.75470215 238.52660645 253.33666992 239.63500977 C260.0112169 252.15936226 267.44548066 264.20898923 274.92462158 276.26318359 C276.68594844 279.10785793 278.43436002 281.96037214 280.18359375 284.8125 C285.78827817 293.94702563 291.41549678 303.0671084 297.08056641 312.16430664 C299.18429847 315.54939116 301.27559546 318.94199016 303.36181641 322.33789062 C304.51635095 324.21405227 305.67529376 326.08750471 306.83740234 327.95898438 C308.69831851 330.9637136 310.53863836 333.98021639 312.375 337 C312.95338623 337.92651367 313.53177246 338.85302734 314.12768555 339.80761719 C314.65015869 340.67547852 315.17263184 341.54333984 315.7109375 342.4375 C316.17806152 343.19933594 316.64518555 343.96117187 317.12646484 344.74609375 C318.2120567 347.54715133 317.82510932 349.15816563 317 352 C288.25024153 356.12426897 258.99791549 355.13139255 230.03057861 355.06866455 C224.71309818 355.05827664 219.39561274 355.05383442 214.078125 355.04882812 C203.71873715 355.03823074 193.3593711 355.02125449 183 355 C181.73634118 352.79729555 180.47372109 350.59400619 179.21166992 348.39038086 C178.85848442 347.77498192 178.50529892 347.15958298 178.14141083 346.52553558 C174.74923977 340.59920961 171.52159559 334.58965904 168.3125 328.5625 C163.20020675 319.01327872 157.97729048 309.53720519 152.61230469 300.12768555 C150.18703285 295.8738416 147.77679754 291.61715599 145.45703125 287.3046875 C138.09314366 273.64740063 129.98354087 259.92615104 120 248 C117.93852685 253.26976896 117.3659873 258.28704404 116.9140625 263.875 C116.83048492 264.89891846 116.74690735 265.92283691 116.66079712 266.9777832 C115.42625499 283.94526397 115.52706177 300.99790885 115.375 318 C115.189375 336.315 115.189375 336.315 115 355 C77.05 355 39.1 355 0 355 C0 237.85 0 120.7 0 0 Z " fill="#003E2C" transform="translate(2082,119)"/>
<path d="M0 0 C0.66773438 0.515625 1.33546875 1.03125 2.0234375 1.5625 C14.30630238 11.43170148 17.81163454 23.93982194 19.682724 38.97644043 C20.83286242 49.93696697 21.17996983 61.0052337 21.49609375 72.015625 C21.51587217 72.68551704 21.5356506 73.35540909 21.55602837 74.04560089 C22.19297142 95.79953631 22.54389009 117.56131157 22.92993164 139.32080078 C23.03992304 145.51732288 23.1541336 151.71375906 23.26950932 157.91018295 C23.35975854 162.78719794 23.44750147 167.6642558 23.53457451 172.54132843 C23.57562943 174.82281188 23.61745525 177.10428164 23.66017342 179.38573456 C23.9806489 196.59604465 24 213.78184844 24 231 C-15.93 231 -55.86 231 -97 231 C-98.375 171.5625 -98.375 171.5625 -98.79443359 153.01391602 C-99.49790257 120.63273224 -99.49790257 120.63273224 -100.9140625 88.27734375 C-101.00994156 86.43276329 -101.00994156 86.43276329 -101.10775757 84.55091858 C-101.62316636 72.20701367 -101.62316636 72.20701367 -106.41372681 61.22764587 C-110.75779962 57.86568837 -116.81288357 58.36833109 -122 59 C-127.81055097 62.27503782 -130.039397 66.86322469 -132 73 C-138.05221906 94.90058804 -137.31063652 118.73445388 -137.4140625 141.25390625 C-137.43106417 143.57158006 -137.44888775 145.88924798 -137.4675293 148.20690918 C-137.52990211 156.65870563 -137.57656511 165.11061218 -137.625 173.5625 C-137.74875 192.516875 -137.8725 211.47125 -138 231 C-177.93 231 -217.86 231 -259 231 C-259 183.76248382 -259 183.76248382 -258.81640625 167.82421875 C-258.79658752 165.96069506 -258.77693527 164.09716959 -258.75743103 162.23364258 C-258.70598173 157.38000753 -258.65165165 152.52640968 -258.59634399 147.67281723 C-258.56184812 144.62999845 -258.52812896 141.58717194 -258.49462891 138.54434204 C-258.20868143 112.60802546 -257.90076509 86.67197171 -257.52918625 60.73672867 C-257.50092115 58.75217607 -257.4733643 56.76761343 -257.4458313 54.78305054 C-257.1284583 32.18452153 -256.57823892 9.59308658 -256 -13 C-245.23623009 -13.39674067 -234.47228183 -13.78821958 -223.70809364 -14.17345428 C-218.70683225 -14.35259762 -213.70564261 -14.53337896 -208.70458984 -14.71826172 C-187.13176169 -15.5146415 -165.59136617 -16.30618813 -144 -16 C-143.93221029 -14.09220378 -143.86442057 -12.18440755 -143.79663086 -10.27661133 C-143.75649872 -9.15122955 -143.71636658 -8.02584778 -143.67501831 -6.86636353 C-143.59182702 -4.51604587 -143.51116679 -2.16563832 -143.43188477 0.18481445 C-143.39377686 1.1924585 -143.35566895 2.20010254 -143.31640625 3.23828125 C-143.27974854 4.26993408 -143.24309082 5.30158691 -143.20532227 6.36450195 C-143.09838758 9.10748258 -143.09838758 9.10748258 -142 12 C-136.98448564 11.52655912 -134.29837161 10.11275764 -130.375 7 C-129.60023315 6.39986084 -129.60023315 6.39986084 -128.80981445 5.78759766 C-126.20903289 3.77146958 -123.64430153 1.71334608 -121.08203125 -0.3515625 C-87.37570436 -26.82535771 -33.48783785 -27.05206446 0 0 Z " fill="#003E2C" transform="translate(2018,243)"/>
<path d="M0 0 C3.09380929 0.00008139 6.18747091 -0.00689571 9.28125 -0.02050781 C43.69094052 -0.16945435 71.29635948 3.11441788 102.20581055 19.18530273 C102.89288086 19.53608887 103.57995117 19.886875 104.2878418 20.24829102 C120.86044713 28.76476875 134.83422106 40.05737978 141.20581055 58.18530273 C142.02888655 61.06149219 142.73147393 63.9555872 143.39331055 66.87280273 C143.54815918 67.55391113 143.70300781 68.23501953 143.86254883 68.93676758 C146.77211214 82.78172991 147.63988276 96.85946848 148.26049805 110.95483398 C148.30133389 111.84205454 148.34216972 112.72927509 148.38424301 113.64338112 C149.43329015 136.60150786 149.85848373 159.57436126 150.27026367 182.55108643 C150.35206569 187.0389003 150.43951815 191.52659672 150.52713203 196.01430035 C150.63304166 201.45016821 150.73605139 206.88608976 150.83862305 212.32202148 C150.8672965 213.82755364 150.8672965 213.82755364 150.89654922 215.3635006 C151.10895541 226.63896578 151.26375115 237.90763594 151.20581055 249.18530273 C140.15603975 249.23194297 129.10629294 249.26733121 118.05644321 249.28892708 C112.92382354 249.2992996 107.79127193 249.31333724 102.65869141 249.33618164 C97.6919737 249.35814578 92.72532086 249.36992026 87.75855827 249.37505722 C85.87745075 249.37871118 83.99634618 249.38584427 82.1152668 249.39676285 C72.95240254 249.44776189 63.84808276 249.35202918 54.72509766 248.4230957 C54.03563584 248.36214281 53.34617403 248.30118992 52.63581944 248.23838997 C48.08676321 247.69768222 45.40809868 246.46275843 42.20581055 243.18530273 C40.39127962 235.78759973 41.11685045 227.7765641 41.20581055 220.18530273 C40.68784912 220.57274658 40.1698877 220.96019043 39.63623047 221.359375 C7.09759444 245.65050857 -24.92906916 258.34050004 -66.23168945 253.49780273 C-86.63463024 250.00782602 -105.30111292 239.99602739 -117.79418945 223.18530273 C-129.64384544 205.05206771 -134.04868219 184.90987501 -130.0402832 163.40014648 C-129.18142711 159.58786808 -128.04176418 155.88890435 -126.79418945 152.18530273 C-126.51704102 151.29327148 -126.23989258 150.40124023 -125.9543457 149.48217773 C-119.76203374 131.78985785 -106.24348434 117.68129805 -89.79418945 109.18530273 C-64.88369105 97.54385166 -38.45999841 94.98364469 -11.35668945 93.18530273 C4.2983566 92.14495326 19.73256321 90.82678609 35.20581055 88.18530273 C36.3755542 87.9906543 37.54529785 87.79600586 38.75048828 87.59545898 C39.56074463 87.46010742 40.37100098 87.32475586 41.20581055 87.18530273 C40.25357028 82.32887737 39.31439733 79.41809333 35.13549805 76.36889648 C8.29131204 59.90373786 -31.12683758 61.73230108 -60.79418945 68.18530273 C-71.54539714 70.85653885 -82.0502607 74.4670509 -92.41601562 78.35644531 C-95.80305391 79.60566991 -98.12498972 80.18530273 -101.79418945 80.18530273 C-101.79418945 56.75530273 -101.79418945 33.32530273 -101.79418945 9.18530273 C-84.12748555 4.76862676 -65.94887942 2.46024915 -47.79418945 1.18530273 C-46.664729 1.09772705 -45.53526855 1.01015137 -44.37158203 0.91992188 C-29.60465534 -0.12400777 -14.79553057 -0.00205615 0 0 Z M-17.2043457 157.15405273 C-21.3376349 162.43491362 -23.55857649 167.21434261 -23.16137695 174.02514648 C-22.09592471 180.29317939 -18.96773292 183.31460461 -14.04418945 186.93530273 C-6.92811699 191.57168962 -0.42399789 194.4683185 8.20581055 193.18530273 C20.4477139 189.90755174 31.9401392 175.55751692 38.1706543 165.07983398 C41.26387652 159.41865368 42.25821502 153.56351164 41.20581055 147.18530273 C38.54867006 143.56863929 36.5643188 141.92515035 32.20581055 141.18530273 C13.87816125 140.16601101 -4.17714672 142.83239635 -17.2043457 157.15405273 Z " fill="#003E2C" transform="translate(1579.794189453125,224.814697265625)"/>
</svg>
