<?xml version="1.0" encoding="UTF-8"?>
<svg version="1.1" xmlns="http://www.w3.org/2000/svg" width="474" height="294">
<path d="M0 0 C156.42 0 312.84 0 474 0 C474 97.02 474 194.04 474 294 C317.58 294 161.16 294 0 294 C0 196.98 0 99.96 0 0 Z " fill="#FDFCFD" transform="translate(0,0)"/>
<path d="M0 0 C43.56 0 87.12 0 132 0 C132 19.47 132 38.94 132 59 C118.8 59 105.6 59 92 59 C92 49.43 92 39.86 92 30 C86.72 30 81.44 30 76 30 C76 54.09 76 78.18 76 103 C81.28 103 86.56 103 92 103 C92 93.43 92 83.86 92 74 C105.2 74 118.4 74 132 74 C132 93.14 132 112.28 132 132 C88.44 132 44.88 132 0 132 C0 112.86 0 93.72 0 74 C13.2 74 26.4 74 40 74 C40 83.57 40 93.14 40 103 C45.28 103 50.56 103 56 103 C56 78.91 56 54.82 56 30 C50.72 30 45.44 30 40 30 C40 39.57 40 49.14 40 59 C26.8 59 13.6 59 0 59 C0 39.53 0 20.06 0 0 Z " fill="#FBFAFB" transform="translate(171,13)"/>
<path d="M0 0 C46.86 0 93.72 0 142 0 C142 0.66 142 1.32 142 2 C143.1446875 2.3403125 143.1446875 2.3403125 144.3125 2.6875 C147.66308566 4.32383253 148.38107557 5.67589004 150 9 C150.38031673 11.78211784 150.38031673 11.78211784 150.38768005 14.86911011 C150.39758469 16.04384888 150.40748932 17.21858765 150.41769409 18.42892456 C150.41319244 19.70905426 150.4086908 20.98918396 150.40405273 22.30810547 C150.4097582 23.67678382 150.41672315 25.04545742 150.42485046 26.41412354 C150.44277962 30.12499165 150.44161379 33.83562326 150.43590808 37.54652166 C150.43281525 40.64781967 150.43890986 43.74907231 150.44494683 46.85036385 C150.45899021 54.16932399 150.45743291 61.48816741 150.44604492 68.80712891 C150.43456905 76.34905852 150.44863064 83.89063231 150.4754414 91.43251503 C150.49762061 97.91507494 150.50423064 104.39752334 150.49836498 110.88011849 C150.49499885 114.74859456 150.49738711 118.61684266 150.51461601 122.48528671 C150.53011827 126.12487684 150.52609393 129.76394144 150.50731087 133.40351105 C150.50188586 135.36902185 150.51611494 137.33455643 150.53100586 139.30001831 C150.47526154 145.99093497 150.42080884 150.78285739 146 156 C139.79822509 160.05617122 132.962693 159.43690843 125.75610352 159.41992188 C124.41830744 159.42727048 123.0805177 159.435859 121.74273682 159.44558716 C118.12490437 159.46772717 114.50730019 159.47073771 110.8894093 159.46883965 C107.86266194 159.46871961 104.83596236 159.47729694 101.80922836 159.48561716 C94.66567357 159.5048236 87.52223563 159.5077449 80.37866211 159.50097656 C73.0229601 159.49433524 65.66775946 159.5172097 58.31215912 159.55429029 C51.98325363 159.58503085 45.65450908 159.59634271 39.32553047 159.59245348 C35.55144148 159.59039072 31.77774295 159.59579148 28.00372505 159.62034607 C24.45348231 159.64268384 20.9040527 159.64067845 17.35380554 159.62041855 C15.43977506 159.6154084 13.52572893 159.63497564 11.61180115 159.65542603 C5.31588003 159.59425362 0.76621086 159.10032703 -4.52484226 155.56040192 C-7.94591462 151.94163782 -8.25167465 147.91756652 -8.26742554 143.12416077 C-8.28022049 141.35988487 -8.28022049 141.35988487 -8.29327393 139.55996704 C-8.29236755 138.2782663 -8.29146118 136.99656555 -8.29052734 135.67602539 C-8.29651498 134.30572647 -8.30332107 132.93543091 -8.31088257 131.56513977 C-8.3285238 127.85025732 -8.33323709 124.13546706 -8.33451414 120.42054677 C-8.33593712 118.09827612 -8.34020945 115.77602881 -8.34550858 113.45376396 C-8.36400113 105.34847402 -8.37217997 97.24324979 -8.37060547 89.13793945 C-8.36940358 81.58805235 -8.39051697 74.03845089 -8.4220928 66.48863608 C-8.44825731 60.00100807 -8.45897273 53.51347337 -8.45769465 47.02579302 C-8.45718516 43.15342085 -8.46286138 39.28130274 -8.48405075 35.40898323 C-8.50343689 31.76695634 -8.50355555 28.12542583 -8.48901749 24.48338127 C-8.48593488 22.51408353 -8.50260236 20.54478573 -8.51989746 18.57556152 C-8.44223199 7.66029959 -8.44223199 7.66029959 -4 3 C-1.75 2.125 -1.75 2.125 0 2 C0 1.34 0 0.68 0 0 Z M5 13 C5 32.47 5 51.94 5 72 C18.2 72 31.4 72 45 72 C45 62.43 45 52.86 45 43 C50.28 43 55.56 43 61 43 C61 67.09 61 91.18 61 116 C55.72 116 50.44 116 45 116 C45 106.43 45 96.86 45 87 C31.8 87 18.6 87 5 87 C5 106.14 5 125.28 5 145 C48.56 145 92.12 145 137 145 C137 125.86 137 106.72 137 87 C123.8 87 110.6 87 97 87 C97 96.57 97 106.14 97 116 C91.72 116 86.44 116 81 116 C81 91.91 81 67.82 81 43 C86.28 43 91.56 43 97 43 C97 52.57 97 62.14 97 72 C110.2 72 123.4 72 137 72 C137 52.53 137 33.06 137 13 C93.44 13 49.88 13 5 13 Z " fill="#1E043F" transform="translate(166,0)"/>
<path d="M0 0 C49.12145749 0 49.12145749 0 59.171875 8.9296875 C65.43375138 15.57969671 67.54563085 21.93259523 67.28515625 31.00390625 C66.598936 38.21391899 64.07636865 44.74093428 59 50 C54.70922889 53.43783892 51.60084507 55.32088175 46 55 C46.36351562 55.53367187 46.72703125 56.06734375 47.1015625 56.6171875 C50.47047073 61.61008226 53.58840126 66.66380905 56.5078125 71.93359375 C59.06447557 75.47410361 61.51764355 75.91960726 65.75 76.625 C66.8225 76.74875 67.895 76.8725 69 77 C69 81.62 69 86.24 69 91 C54.11248504 91.71574591 54.11248504 91.71574591 48.65625 87.51953125 C48.1096875 87.01808594 47.563125 86.51664062 47 86 C46.4946875 85.55011719 45.989375 85.10023438 45.46875 84.63671875 C41.20642655 80.24969967 38.61834969 74.78631309 35.97851562 69.33056641 C33.87500846 65.11815293 32.18549415 62.23698062 28 60 C24.04 59.67 20.08 59.34 16 59 C16 69.56 16 80.12 16 91 C10.72 91 5.44 91 0 91 C0 60.97 0 30.94 0 0 Z " fill="#250C44" transform="translate(93,201)"/>
<path d="M0 0 C1.03444628 3.10333883 1.12083424 5.22876249 1.11352539 8.48120117 C1.11344986 9.60213669 1.11337433 10.7230722 1.11329651 11.87797546 C1.10813522 13.08742325 1.10297394 14.29687103 1.09765625 15.54296875 C1.0962413 16.78170242 1.09482635 18.0204361 1.09336853 19.29670715 C1.08871602 22.58631537 1.0797339 25.8758746 1.06866455 29.16546631 C1.05842629 32.52371612 1.05381092 35.88197333 1.04882812 39.24023438 C1.03864157 45.82686202 1.01906712 52.41336807 1 59 C14.53 59 28.06 59 42 59 C42 49.43 42 39.86 42 30 C47.28 30 52.56 30 58 30 C58 54.09 58 78.18 58 103 C52.72 103 47.44 103 42 103 C42 93.43 42 83.86 42 74 C28.8 74 15.6 74 2 74 C2 93.14 2 112.28 2 132 C45.56 132 89.12 132 134 132 C134 132.33 134 132.66 134 133 C90.44 133.33 46.88 133.66 2 134 C1.67 135.65 1.34 137.3 1 139 C0.34 139.33 -0.32 139.66 -1 140 C5.99913984 142.14539549 12.55199489 142.3055793 19.84179688 142.31884766 C21.74549545 142.33391609 21.74549545 142.33391609 23.68765259 142.34928894 C27.14573363 142.37644274 30.60377427 142.3916946 34.06193352 142.40471697 C37.68411738 142.42041197 41.30621951 142.44718167 44.92834473 142.4727478 C51.77749548 142.51942335 58.6266618 142.55622154 65.47588968 142.58942068 C73.2776703 142.62772167 81.07936859 142.67711078 88.88107967 142.72740483 C104.92066055 142.83055761 120.96028722 142.91987183 137 143 C136.67 143.99 136.34 144.98 136 146 C118.2756513 146.1169206 100.55140301 146.20503075 82.82675171 146.25906086 C74.59644664 146.28481739 66.36638151 146.31991878 58.13623047 146.37719727 C50.96089291 146.42711078 43.78572917 146.45930956 36.61022282 146.47044247 C32.81249022 146.47694791 29.01525478 146.49218325 25.21768188 146.52865028 C21.63889025 146.56273609 18.06079776 146.57302808 14.48185921 146.56553841 C12.55100178 146.56755729 10.62021951 146.59438656 8.68955994 146.62210083 C1.64970075 146.58052164 -3.77252943 146.06810958 -9 141 C-11.51299351 137.05703109 -11.27890339 132.83034825 -11.24291992 128.27563477 C-11.24481827 127.51401031 -11.24671661 126.75238586 -11.24867249 125.96768188 C-11.25236643 123.45881743 -11.24169419 120.95024484 -11.23046875 118.44140625 C-11.22927584 116.69172703 -11.22882402 114.94204716 -11.2290802 113.19236755 C-11.22751761 109.52818787 -11.21924616 105.8641062 -11.20581055 102.19995117 C-11.18883373 97.51150401 -11.18499605 92.82316459 -11.18575573 88.13469028 C-11.18548329 84.52209959 -11.17999001 80.90953228 -11.17275429 77.29694939 C-11.16957995 75.56864537 -11.16760311 73.84033871 -11.16686058 72.11203194 C-11.16468316 69.69256238 -11.15590845 67.27320504 -11.14526367 64.85375977 C-11.14571686 64.1444783 -11.14617004 63.43519684 -11.14663696 62.704422 C-11.1209348 58.69245734 -10.69343054 54.94440407 -10 51 C-9.91965457 49.27505575 -9.88200101 47.54760941 -9.88647461 45.82080078 C-9.88655014 44.84023712 -9.88662567 43.85967346 -9.88670349 42.84939575 C-9.89186478 41.80854828 -9.89702606 40.76770081 -9.90234375 39.6953125 C-9.9037587 38.61619598 -9.90517365 37.53707947 -9.90663147 36.42526245 C-9.91221156 32.99181298 -9.92476045 29.55842964 -9.9375 26.125 C-9.94251757 23.79166761 -9.94708003 21.4583342 -9.95117188 19.125 C-9.96217447 13.41664425 -9.97889279 7.70832685 -10 2 C-3.375 0 -3.375 0 0 0 Z " fill="#260E44" transform="translate(169,13)"/>
<path d="M0 0 C5.28 0 10.56 0 16 0 C16.09087676 8.00694154 16.16404424 16.01347269 16.20724869 24.02079391 C16.22799934 27.74013394 16.25608273 31.45909859 16.30175781 35.17822266 C16.34566943 38.77685408 16.36923088 42.3751277 16.37950897 45.97400665 C16.39034408 47.99448972 16.42149526 50.01483164 16.45318604 52.03509521 C16.45605979 64.02382694 14.05908108 73.69982975 6.1484375 82.875 C3.07001563 85.91983909 -0.14922379 88.05997016 -4 90 C-4.845625 90.53367187 -5.69125 91.06734375 -6.5625 91.6171875 C-11.38278394 93.55625627 -15.73621209 93.32328098 -20.875 93.1875 C-21.84953125 93.17396484 -22.8240625 93.16042969 -23.828125 93.14648438 C-26.21932863 93.11131962 -28.60936975 93.0621067 -31 93 C-31 92.34 -31 91.68 -31 91 C-31.70125 90.896875 -32.4025 90.79375 -33.125 90.6875 C-40.72826596 88.86932771 -46.39870462 84.21775046 -51 78 C-55.94282723 68.92115601 -56.68537229 60.78458044 -56.48828125 50.609375 C-56.47892916 49.16922243 -56.47182441 47.72905371 -56.46684265 46.28887939 C-56.44796036 42.54028617 -56.39902938 38.79269725 -56.34332275 35.04449463 C-56.29171831 31.20297829 -56.26924174 27.36129599 -56.24414062 23.51953125 C-56.19088546 16.01251492 -56.10311164 8.50652742 -56 1 C-51.05 1 -46.1 1 -41 1 C-40.9906543 2.76520996 -40.98130859 4.53041992 -40.97167969 6.34912109 C-40.93599208 12.21659845 -40.88209325 18.08376102 -40.81609726 23.95096397 C-40.77678204 27.50427324 -40.74451644 31.05734062 -40.72900391 34.61083984 C-40.71080004 38.7070997 -40.66078018 42.80245868 -40.609375 46.8984375 C-40.60814636 48.1592514 -40.60691772 49.42006531 -40.60565186 50.71908569 C-40.4772008 58.53931434 -39.93168267 66.54498342 -34.51776123 72.67953491 C-29.15142745 77.37588013 -24.12998671 77.36047256 -17.30078125 77.26171875 C-12.62276985 76.8907995 -9.57650129 76.04912174 -6 73 C-0.39844079 65.35615075 -0.26231268 57.38809451 -0.29296875 48.2421875 C-0.27982578 46.84398266 -0.26451367 45.44579669 -0.24714661 44.04763794 C-0.20758593 40.40130432 -0.19712516 36.75547059 -0.19311523 33.10894775 C-0.18372851 29.37456371 -0.14628105 25.64046677 -0.11132812 21.90625 C-0.04704747 14.60411265 -0.01616564 7.30243144 0 0 Z " fill="#200540" transform="translate(241,201)"/>
<path d="M0 0 C0 5.28 0 10.56 0 16 C-8.61780318 13.17027358 -8.61780318 13.17027358 -11.4375 11.9140625 C-18.33722528 9.45288001 -27.25448449 10.37674397 -34 13 C-36.31580609 16.47370913 -36.42686896 19.90205794 -36 24 C-34.22417056 28.66155228 -31.54984948 29.93216742 -27.3046875 31.98291016 C-22.67621261 34.02551889 -17.86656338 35.59247664 -13.06640625 37.1796875 C-5.30833683 39.89564049 1.36562034 44.04843051 6 51 C9.33074827 58.09594196 9.04597684 65.99085256 6.4375 73.3125 C3.81940974 79.0063886 0.36288154 83.50062607 -5.453125 86.09375 C-7.62336317 86.83081202 -9.77122431 87.46933912 -12 88 C-12 88.66 -12 89.32 -12 90 C-20.25 90 -28.5 90 -37 90 C-37 89.34 -37 88.68 -37 88 C-37.90492188 87.81824219 -37.90492188 87.81824219 -38.828125 87.6328125 C-39.62734375 87.46523438 -40.4265625 87.29765625 -41.25 87.125 C-42.03890625 86.96257812 -42.8278125 86.80015625 -43.640625 86.6328125 C-46 86 -46 86 -50 84 C-50 78.39 -50 72.78 -50 67 C-46.2875 68.7325 -46.2875 68.7325 -42.5 70.5 C-33.96907123 74.19637553 -26.26562431 75.43186579 -17 74 C-13.02777724 72.38875841 -11.39609338 71.59414008 -9 68 C-8.3410711 62.24152619 -8.3410711 62.24152619 -10.875 57.25 C-15.00396848 54.2771427 -19.24791818 52.74001332 -24 51 C-28.02248291 49.38479451 -32.01533301 47.70614194 -36 46 C-37.15242188 45.52433594 -37.15242188 45.52433594 -38.328125 45.0390625 C-44.82147269 42.13936143 -48.36172666 37.83967379 -51.875 31.75 C-54.17367563 24.08774789 -53.85719522 17.14435423 -50.1875 9.99609375 C-39.66900342 -7.68466859 -17.03622751 -7.17314843 0 0 Z " fill="#200740" transform="translate(382,204)"/>
<path d="M0 0 C24.09 0 48.18 0 73 0 C73 4.95 73 9.9 73 15 C63.43 15 53.86 15 44 15 C44 40.08 44 65.16 44 91 C38.72 91 33.44 91 28 91 C28 65.92 28 40.84 28 15 C18.76 15 9.52 15 0 15 C0 10.05 0 5.1 0 0 Z " fill="#220842" transform="translate(401,201)"/>
<path d="M0 0 C24.09 0 48.18 0 73 0 C73 4.95 73 9.9 73 15 C63.76 15 54.52 15 45 15 C45 40.08 45 65.16 45 91 C39.72 91 34.44 91 29 91 C29 65.92 29 40.84 29 15 C19.43 15 9.86 15 0 15 C0 10.05 0 5.1 0 0 Z " fill="#230842" transform="translate(0,201)"/>
<path d="M0 0 C5.28 0 10.56 0 16 0 C16 30.03 16 60.06 16 91 C10.72 91 5.44 91 0 91 C0 60.97 0 30.94 0 0 Z " fill="#1D0341" transform="translate(287,201)"/>
<path d="M0 0 C2.33944736 0.28730055 4.6739143 0.61936779 7 1 C7.495 2.98 7.495 2.98 8 5 C8.66 5 9.32 5 10 5 C10.495 6.485 10.495 6.485 11 8 C11.66 8 12.32 8 13 8 C13.74326171 15.13531238 12.4701605 19.40311411 8 25 C4.99401179 28.38173674 2.10486618 31.05018857 -2 33 C-3.66601646 33.04655046 -5.33416835 33.05275134 -7 33 C-6.63648438 33.53367187 -6.27296875 34.06734375 -5.8984375 34.6171875 C-2.52952927 39.61008226 0.58840126 44.66380905 3.5078125 49.93359375 C6.06447557 53.47410361 8.51764355 53.91960726 12.75 54.625 C13.8225 54.74875 14.895 54.8725 16 55 C16 59.62 16 64.24 16 69 C1.11248504 69.71574591 1.11248504 69.71574591 -4.34375 65.51953125 C-4.8903125 65.01808594 -5.436875 64.51664062 -6 64 C-6.5053125 63.55011719 -7.010625 63.10023438 -7.53125 62.63671875 C-11.25764376 58.80130815 -13.83106927 54.13151408 -16.4375 49.5 C-16.80423828 48.87109863 -17.17097656 48.24219727 -17.54882812 47.59423828 C-20.04560567 42.95684826 -20.06205678 40.0777626 -19 35 C-19.33 34.34 -19.66 33.68 -20 33 C-19.34 33 -18.68 33 -18 33 C-18 32.34 -18 31.68 -18 31 C-23.28 31 -28.56 31 -34 31 C-33.505 29.515 -33.505 29.515 -33 28 C-31.51886719 27.94392578 -31.51886719 27.94392578 -30.0078125 27.88671875 C-28.72648437 27.82097656 -27.44515625 27.75523437 -26.125 27.6875 C-24.84882812 27.62949219 -23.57265625 27.57148438 -22.2578125 27.51171875 C-21.18273437 27.34285156 -20.10765625 27.17398438 -19 27 C-18.34 26.01 -17.68 25.02 -17 24 C-14.43359375 23.671875 -14.43359375 23.671875 -11.4375 23.75 C-9.95056641 23.77320313 -9.95056641 23.77320313 -8.43359375 23.796875 C-6 24 -6 24 -5 25 C-3.35984793 20.89961981 -2.93100457 17.62804256 -3.05859375 13.23046875 C-2.78417266 2.78417266 -2.78417266 2.78417266 0 0 Z " fill="#1F0640" transform="translate(146,223)"/>
<path d="M0 0 C5.9709375 -0.1546875 5.9709375 -0.1546875 12.0625 -0.3125 C13.30394775 -0.35802002 14.54539551 -0.40354004 15.82446289 -0.45043945 C22.96047028 -0.539762 26.7304505 0.0817538 32 5 C34.93016692 8.497296 35.478339 11.44327241 35.2890625 16.01171875 C34.55876457 21.03498425 31.89695432 24.88243655 28 28 C22.32682261 30.57622548 16.71864135 30.22642605 10.625 30.125 C7.11875 30.08375 3.6125 30.0425 0 30 C0 20.1 0 10.2 0 0 Z " fill="#FCFBFB" transform="translate(109,216)"/>
<path d="M0 0 C5.28 0 10.56 0 16 0 C16 30.03 16 60.06 16 91 C10.72 91 5.44 91 0 91 C0 60.97 0 30.94 0 0 Z M2 3 C2 31.38 2 59.76 2 89 C4.97 89 7.94 89 11 89 C13.52379877 86.47620123 13.23534328 84.9258419 13.24884033 81.48387146 C13.2380545 80.33049034 13.2380545 80.33049034 13.22705078 79.15380859 C13.22734283 78.34397018 13.22763489 77.53413177 13.22793579 76.69975281 C13.2265395 74.01587304 13.21096435 71.33226893 13.1953125 68.6484375 C13.19158343 66.79041699 13.18873596 64.93239452 13.18673706 63.07437134 C13.17909224 58.17853386 13.15943649 53.28281461 13.1373291 48.38702393 C13.11688893 43.39344889 13.10773926 38.39985479 13.09765625 33.40625 C13.07619138 23.60411466 13.04204522 13.80206715 13 4 C9.05979642 2.73913486 6.52419701 3 2 3 Z " fill="#2E1F46" transform="translate(287,201)"/>
<path d="M0 0 C5.28 0 10.56 0 16 0 C16.0677505 8.16237205 16.1228011 16.32452586 16.15543652 24.48710346 C16.1710991 28.2772344 16.19234778 32.06716316 16.22631836 35.85717773 C16.2588913 39.51410601 16.27684855 43.1708397 16.28463173 46.82790184 C16.29017901 48.22378796 16.3010115 49.61966331 16.31719017 51.01546669 C16.33893429 52.9689459 16.34022515 54.92262051 16.34057617 56.8762207 C16.34723801 57.9887471 16.35389984 59.1012735 16.36076355 60.24751282 C16 63 16 63 14.47871399 64.88273621 C13.99073837 65.25143326 13.50276276 65.62013031 13 66 C13 63.0491445 13.04231369 60.10204635 13.09179688 57.15161133 C13.11181763 55.9505928 13.13183838 54.74957428 13.15246582 53.51216125 C13.1743396 52.21521835 13.19621338 50.91827545 13.21875 49.58203125 C13.24119205 48.24110449 13.263612 46.90017736 13.28601074 45.55924988 C13.34497358 42.03292474 13.40423666 38.5066047 13.46356201 34.98028564 C13.52406624 31.38074034 13.58428685 27.78119029 13.64453125 24.18164062 C13.76274307 17.12108908 13.88127205 10.06054289 14 3 C12.72125 3.020625 11.4425 3.04125 10.125 3.0625 C6.25 3.125 6.25 3.125 4 2 C3.00313291 4.99060127 2.88958583 6.90040501 2.91821289 10.01879883 C2.9247438 11.04028519 2.93127472 12.06177155 2.93800354 13.11421204 C2.94943893 14.21734238 2.96087433 15.32047272 2.97265625 16.45703125 C2.98530492 18.78971205 2.9976657 21.12239442 3.00976562 23.45507812 C3.03457007 27.13522229 3.06252529 30.81528495 3.09594727 34.49536133 C3.12618913 38.04508988 3.14393916 41.59471478 3.16015625 45.14453125 C3.17361588 46.2415889 3.1870755 47.33864655 3.20094299 48.46894836 C3.21812278 53.7109343 3.14478573 58.1058687 1 63 C0.67 63 0.34 63 0 63 C0 42.21 0 21.42 0 0 Z " fill="#291A3E" transform="translate(241,201)"/>
<path d="M0 0 C0.33 1.32 0.66 2.64 1 4 C1.66 4 2.32 4 3 4 C3 4.99 3 5.98 3 7 C46.23 7 89.46 7 134 7 C134.33 7.66 134.66 8.32 135 9 C118.33593459 9.04679358 101.67189061 9.08202483 85.00777531 9.10362434 C77.26972821 9.1139215 69.53172201 9.1279519 61.79370117 9.15087891 C55.04648305 9.17086067 48.29929456 9.18372777 41.55204767 9.18817699 C37.98194262 9.19077629 34.41192234 9.196853 30.84184456 9.21146011 C26.84903382 9.2276632 22.85636893 9.22797662 18.86352539 9.22705078 C17.6896376 9.23424133 16.51574982 9.24143188 15.30628967 9.24884033 C8.88206302 9.23275148 3.21306544 8.65715603 -3 7 C-2.67 6.34 -2.34 5.68 -2 5 C-1.34 5 -0.68 5 0 5 C0 3.35 0 1.7 0 0 Z " fill="#200348" transform="translate(170,147)"/>
<path d="M0 0 C24.09 0 48.18 0 73 0 C73 0.99 73 1.98 73 3 C72.18202942 3.01030746 71.36405884 3.02061493 70.52130127 3.03123474 C62.81121627 3.12922842 55.10121096 3.23174555 47.39125443 3.33933926 C43.4275308 3.39449421 39.4637997 3.44790223 35.5 3.49731445 C31.67444278 3.5450677 27.84897343 3.59741427 24.02352142 3.65294075 C22.56432026 3.6733147 21.10509506 3.69203586 19.64585114 3.70907402 C17.60137754 3.73322817 15.55706852 3.76326713 13.51269531 3.79467773 C11.76729462 3.81799416 11.76729462 3.81799416 9.9866333 3.84178162 C6.59491237 4.02145972 4.02727693 4.48636154 1 6 C0.67 4.02 0.34 2.04 0 0 Z " fill="#34244A" transform="translate(401,201)"/>
<path d="M0 0 C24.09 0 48.18 0 73 0 C68.55518765 3.33360927 67.53407345 3.36971208 62.21191406 3.34057617 C61.53833359 3.34101425 60.86475311 3.34145233 60.17076111 3.34190369 C57.95208396 3.33981946 55.73416957 3.31650699 53.515625 3.29296875 C51.97434909 3.28737146 50.43306783 3.28310199 48.89178467 3.28010559 C44.84089344 3.26866718 40.79032639 3.23920889 36.73956299 3.20599365 C32.60376368 3.17527098 28.46791185 3.16159557 24.33203125 3.14648438 C16.22120562 3.114338 8.11064317 3.06315407 0 3 C0 2.01 0 1.02 0 0 Z " fill="#37264F" transform="translate(0,201)"/>
<path d="M0 0 C0.33 0 0.66 0 1 0 C1.02312821 7.67536627 1.04091753 15.35072896 1.05181217 23.02612209 C1.05703995 26.58977422 1.06413569 30.15340257 1.07543945 33.71704102 C1.08834176 37.81006097 1.09322906 41.9030558 1.09765625 45.99609375 C1.10281754 47.28148544 1.10797882 48.56687714 1.11329651 49.89122009 C1.11337204 51.07236893 1.11344757 52.25351776 1.11352539 53.47045898 C1.115746 54.51636703 1.11796661 55.56227509 1.12025452 56.63987732 C1 59 1 59 0 60 C-1.63838668 60.0895442 -3.28066838 60.10855231 -4.92147827 60.10006714 C-6.5199334 60.09562592 -6.5199334 60.09562592 -8.15068054 60.09109497 C-9.32991592 60.08278656 -10.50915131 60.07447815 -11.72412109 60.06591797 C-12.9581517 60.06124512 -14.19218231 60.05657227 -15.46360779 60.05175781 C-18.15374181 60.04122434 -20.8438088 60.02893856 -23.53391647 60.01403427 C-27.78583202 59.99103133 -32.03774272 59.97768532 -36.28970337 59.96633911 C-48.38264938 59.93285477 -60.47552675 59.89126298 -72.56835938 59.82861328 C-79.24263663 59.79411674 -85.91686268 59.77028992 -92.59121954 59.75840485 C-96.12541067 59.75162418 -99.65938497 59.73912981 -103.19349289 59.71337509 C-107.13470739 59.6846565 -111.07576834 59.67901351 -115.01708984 59.67529297 C-116.19227676 59.6629361 -117.36746368 59.65057922 -118.57826233 59.6378479 C-120.18517693 59.64186615 -120.18517693 59.64186615 -121.82455444 59.64596558 C-122.75703192 59.64190138 -123.68950939 59.63783718 -124.65024376 59.63364983 C-127.44636407 60.06959256 -128.17352316 60.92606326 -130 63 C-130.66 63 -131.32 63 -132 63 C-132 61.35 -132 59.7 -132 58 C-88.44 58 -44.88 58 0 58 C0 38.86 0 19.72 0 0 Z " fill="#11032C" transform="translate(303,88)"/>
<path d="M0 0 C11.88 0 23.76 0 36 0 C36.495 0.99 36.495 0.99 37 2 C25.45 2 13.9 2 2 2 C2 30.38 2 58.76 2 88 C7.445 87.505 7.445 87.505 13 87 C13 78.75 13 70.5 13 62 C13.33 62 13.66 62 14 62 C14 70.91 14 79.82 14 89 C9.38 89 4.76 89 0 89 C0 59.63 0 30.26 0 0 Z " fill="#110229" transform="translate(94,202)"/>
<path d="M0 0 C0.33 0 0.66 0 1 0 C1 24.09 1 48.18 1 73 C5.29 73 9.58 73 14 73 C14 49.57 14 26.14 14 2 C14.33 2 14.66 2 15 2 C15 26.42 15 50.84 15 76 C10.05 76 5.1 76 0 76 C0 50.92 0 25.84 0 0 Z " fill="#16062D" transform="translate(29,216)"/>
<path d="M0 0 C0.33 0 0.66 0 1 0 C1 23.76 1 47.52 1 72 C2.485 71.505 2.485 71.505 4 71 C6.31 71 8.62 71 11 71 C11.33 62.42 11.66 53.84 12 45 C13.98 44.505 13.98 44.505 16 44 C16 53.57 16 63.14 16 73 C10.72 73 5.44 73 0 73 C0 48.91 0 24.82 0 0 Z " fill="#423254" transform="translate(247,43)"/>
<path d="M0 0 C0.78393222 0.06980544 1.56786444 0.13961088 2.37555218 0.21153164 C10.36923905 0.88081514 18.29820047 1.1655161 26.31762695 1.20532227 C28.20779037 1.22017166 28.20779037 1.22017166 30.13613892 1.23532104 C33.54639811 1.26201208 36.95667063 1.28321195 40.36697412 1.30332303 C43.94773206 1.32540745 47.52845063 1.35268472 51.10917664 1.37937927 C57.86963016 1.42900618 64.6301059 1.47405442 71.39060229 1.51740164 C79.09574087 1.56703288 86.8008399 1.62185377 94.50594008 1.67708123 C110.33725671 1.79043981 126.16860991 1.89737662 142 2 C142 2.33 142 2.66 142 3 C123.92856175 3.17720151 105.85705655 3.34287857 87.78538799 3.49477577 C79.3947067 3.56557142 71.00409094 3.64016093 62.61352539 3.72363281 C55.30168648 3.79636362 47.98982442 3.86202611 40.67784625 3.91914403 C36.80496634 3.94964563 32.9321914 3.98372489 29.05942345 4.02626419 C25.41602337 4.0661725 21.77266749 4.09664631 18.12912369 4.11981392 C16.15081293 4.1348698 14.17258687 4.15999275 12.19438171 4.18537903 C11.02069031 4.19104385 9.8469989 4.19670868 8.63774109 4.20254517 C7.10433846 4.21637206 7.10433846 4.21637206 5.539958 4.23047829 C3 4 3 4 0 2 C0 1.34 0 0.68 0 0 Z " fill="#1A063E" transform="translate(163,154)"/>
<path d="M0 0 C0.66 0 1.32 0 2 0 C2 24.42 2 48.84 2 74 C0.68 74 -0.64 74 -2 74 C-2 73.34 -2 72.68 -2 72 C-1.34 72 -0.68 72 0 72 C0 48.24 0 24.48 0 0 Z " fill="#15062D" transform="translate(443,216)"/>
<path d="M0 0 C4.95 0 9.9 0 15 0 C15 20.46 15 40.92 15 62 C14.67 62 14.34 62 14 62 C14 42.2 14 22.4 14 2 C11.03 2 8.06 2 5 2 C5 2.66 5 3.32 5 4 C4.34 4 3.68 4 3 4 C3 3.34 3 2.68 3 2 C2.34 2 1.68 2 1 2 C1 19.82 1 37.64 1 56 C0.67 56 0.34 56 0 56 C0 37.52 0 19.04 0 0 Z " fill="#110328" transform="translate(185,202)"/>
<path d="M0 0 C0.66 0.33 1.32 0.66 2 1 C2 45.88 2 90.76 2 137 C1.67 137 1.34 137 1 137 C0.99365209 135.99143967 0.99365209 135.99143967 0.98717594 134.96250439 C0.88393673 118.61316212 0.7753091 102.26386549 0.66066074 85.91459942 C0.60534839 78.00826689 0.55186964 70.10192986 0.50268555 62.19555664 C0.45981938 55.30553733 0.41353522 48.41555098 0.36312145 41.52558261 C0.33654013 37.87635099 0.31168753 34.22712582 0.29092598 30.57785606 C0.26770296 26.50717684 0.23685014 22.43659017 0.20532227 18.3659668 C0.1995668 17.15180588 0.19381134 15.93764496 0.18788147 14.68669128 C0.17809265 13.58031311 0.16830383 12.47393494 0.15821838 11.33403015 C0.15176583 10.37075648 0.14531328 9.40748281 0.1386652 8.41501904 C0.09728022 5.85629733 0.09728022 5.85629733 -1 3 C-0.67 2.01 -0.34 1.02 0 0 Z " fill="#13022A" transform="translate(314,10)"/>
<path d="M0 0 C0 5.28 0 10.56 0 16 C-0.99 15.67 -1.98 15.34 -3 15 C-3 11.37 -3 7.74 -3 4 C-4.32 3.67 -5.64 3.34 -7 3 C-7 2.67 -7 2.34 -7 2 C-9.31 1.67 -11.62 1.34 -14 1 C-14 0.34 -14 -0.32 -14 -1 C-15.27875 -0.814375 -16.5575 -0.62875 -17.875 -0.4375 C-21.75 0.125 -21.75 0.125 -24 -1 C-24 -1.66 -24 -2.32 -24 -3 C-25.98 -2.34 -27.96 -1.68 -30 -1 C-30.33 -1.66 -30.66 -2.32 -31 -3 C-20.79230648 -6.40256451 -9.62846778 -3.85138711 0 0 Z " fill="#200D39" transform="translate(382,204)"/>
<path d="M0 0 C5.385444 3.38513623 8.07043004 8.06657236 10 14 C10.38051971 18.04302189 10.31277753 21.95474401 10 26 C9.67 26 9.34 26 9 26 C8.67 24.02 8.34 22.04 8 20 C7.67 20 7.34 20 7 20 C6.67 18.35 6.34 16.7 6 15 C5.34 15.66 4.68 16.32 4 17 C4 16.01 4 15.02 4 14 C3.34 14 2.68 14 2 14 C2 13.01 2 12.02 2 11 C1.01 10.67 0.02 10.34 -1 10 C-2.1875 7.4375 -2.1875 7.4375 -3 5 C-3.99 5.33 -4.98 5.66 -6 6 C-5.34 4.68 -4.68 3.36 -4 2 C-3.01 2 -2.02 2 -1 2 C-0.67 1.34 -0.34 0.68 0 0 Z " fill="#210947" transform="translate(150,209)"/>
<path d="M0 0 C1.32 0.66 2.64 1.32 4 2 C4 2.66 4 3.32 4 4 C-9.53 4 -23.06 4 -37 4 C-37 13.24 -37 22.48 -37 32 C-37.33 32 -37.66 32 -38 32 C-38.21692384 28.04978266 -38.41380269 24.09912984 -38.59204102 20.14697266 C-38.65552415 18.80229928 -38.72450857 17.45787401 -38.79907227 16.11376953 C-38.90520939 14.1833561 -38.99002538 12.25180741 -39.07421875 10.3203125 C-39.13182373 9.15773926 -39.18942871 7.99516602 -39.2487793 6.79736328 C-39.16668213 5.8742334 -39.08458496 4.95110352 -39 4 C-35.29575158 1.53050105 -32.37796334 1.66944132 -28.0859375 1.62109375 C-27.31569244 1.60409927 -26.54544739 1.5871048 -25.75186157 1.56959534 C-23.29299083 1.51648168 -20.83413712 1.47616417 -18.375 1.4375 C-15.90880635 1.39361499 -13.44274539 1.34697372 -10.97671509 1.29469299 C-9.44212805 1.26266083 -7.90742322 1.23579429 -6.37265015 1.21446228 C-2.89373713 1.45813337 -2.89373713 1.45813337 0 0 Z " fill="#15042F" transform="translate(299,83)"/>
<path d="M0 0 C1.65 0 3.3 0 5 0 C5 29.37 5 58.74 5 89 C4.34 88.67 3.68 88.34 3 88 C3.00666183 86.98602142 3.01332367 85.97204285 3.02018738 84.92733765 C3.08104659 75.36374722 3.12599576 65.80019618 3.15543652 56.23645592 C3.17108123 51.3198272 3.19229776 46.40335503 3.22631836 41.48681641 C3.2589543 36.74059132 3.27686201 31.99451667 3.28463173 27.24818802 C3.29016762 25.4389166 3.30097792 23.62965326 3.31719017 21.82044601 C3.33902083 19.28294949 3.34196459 16.74607168 3.34057617 14.20849609 C3.351362 13.46330719 3.36214783 12.71811829 3.3732605 11.9503479 C3.34536672 7.22781889 2.40898061 4.05153405 0 0 Z " fill="#0F0124" transform="translate(297,202)"/>
<path d="M0 0 C1.65 0 3.3 0 5 0 C5 4.62 5 9.24 5 14 C-3.91 14 -12.82 14 -22 14 C-18.81579155 11.87719437 -17.79462745 11.71980463 -14.11328125 11.5859375 C-12.7065918 11.52792969 -12.7065918 11.52792969 -11.27148438 11.46875 C-10.29501953 11.4378125 -9.31855469 11.406875 -8.3125 11.375 C-7.32443359 11.33632812 -6.33636719 11.29765625 -5.31835938 11.2578125 C-2.8792139 11.16354601 -0.43963253 11.0806841 2 11 C2.33 8.03 2.66 5.06 3 2 C2.01 1.67 1.02 1.34 0 1 C0 0.67 0 0.34 0 0 Z " fill="#16062F" transform="translate(68,202)"/>
<path d="M0 0 C0.66 0 1.32 0 2 0 C2 9.57 2 19.14 2 29 C1.01 28.67 0.02 28.34 -1 28 C-2.125 23.25 -2.125 23.25 -1 21 C-0.92822611 19.57457046 -0.91607603 18.14582459 -0.9375 16.71875 C-0.94523437 15.87699219 -0.95296875 15.03523438 -0.9609375 14.16796875 C-0.97382813 13.28753906 -0.98671875 12.40710937 -1 11.5 C-1.02546884 9.76047836 -1.04651561 8.02088465 -1.0625 6.28125 C-1.07410156 5.50845703 -1.08570313 4.73566406 -1.09765625 3.93945312 C-1 2 -1 2 0 0 Z " fill="#1B0535" transform="translate(260,43)"/>
<path d="M0 0 C2.171875 0.05859375 2.171875 0.05859375 4.75 0.4375 C7.98628171 0.85252748 10.12515231 0.97682365 13.375 0.375 C16 0 16 0 18.375 1.4375 C18.91125 1.953125 19.4475 2.46875 20 3 C18.35 3 16.7 3 15 3 C16.134375 3.12375 17.26875 3.2475 18.4375 3.375 C19.613125 3.58125 20.78875 3.7875 22 4 C22.33 4.66 22.66 5.32 23 6 C15.08 5.67 7.16 5.34 -1 5 C-1.33 4.01 -1.66 3.02 -2 2 C-1.34 1.34 -0.68 0.68 0 0 Z " fill="#190436" transform="translate(350,209)"/>
<path d="M0 0 C2.13391026 0.45726648 3.89360563 0.94129966 5.8125 2 C8.80262498 3.36691428 11.75324449 3.62537436 15 4 C15 8.62 15 13.24 15 18 C11.7 18 8.4 18 5 18 C4.67 17.34 4.34 16.68 4 16 C6.97 16.33 9.94 16.66 13 17 C13.33 13.37 13.66 9.74 14 6 C12.35 6.33 10.7 6.66 9 7 C5.20847557 6.09003414 2.3868189 5.1824252 0 2 C0 1.34 0 0.68 0 0 Z " fill="#17062B" transform="translate(147,274)"/>
<path d="M0 0 C4.62 0 9.24 0 14 0 C14 1.32 14 2.64 14 4 C13.34 4 12.68 4 12 4 C12 3.34 12 2.68 12 2 C9.03 2 6.06 2 3 2 C3 2.66 3 3.32 3 4 C2.34 4 1.68 4 1 4 C1 11.26 1 18.52 1 26 C0.67 26 0.34 26 0 26 C0 17.42 0 8.84 0 0 Z " fill="#11042A" transform="translate(212,43)"/>
<path d="M0 0 C0.66 0.33 1.32 0.66 2 1 C2.32613618 5.67461851 1.70582788 8.16674383 -1 12 C-1.33 11.34 -1.66 10.68 -2 10 C-2.99 10.33 -3.98 10.66 -5 11 C-8.1875 10.0625 -8.1875 10.0625 -11 9 C-8 7 -8 7 -5.5 5.625 C-2.97529526 3.98394192 -1.63589827 2.49689736 0 0 Z " fill="#2A1541" transform="translate(142,237)"/>
<path d="M0 0 C4.29 0 8.58 0 13 0 C13 0.66 13 1.32 13 2 C11.35666496 3.03789581 9.68756133 4.03567924 8 5 C7.34 5.66 6.68 6.32 6 7 C6 6.34 6 5.68 6 5 C5.01 5.33 4.02 5.66 3 6 C0.8125 5.0625 0.8125 5.0625 -1 4 C-0.67 2.68 -0.34 1.36 0 0 Z " fill="#FAF5F5" transform="translate(153,0)"/>
<path d="M0 0 C4.455 1.98 4.455 1.98 9 4 C9 4.99 9 5.98 9 7 C5.63458162 8.08174162 4.70152678 7.92538169 1 7 C1 10.3 1 13.6 1 17 C0.67 17 0.34 17 0 17 C0 11.39 0 5.78 0 0 Z " fill="#291641" transform="translate(332,271)"/>
<path d="M0 0 C-0.639375 0.28875 -1.27875 0.5775 -1.9375 0.875 C-4.15206079 1.82823451 -4.15206079 1.82823451 -5 4 C-4.34 4.33 -3.68 4.66 -3 5 C-10.26 5 -17.52 5 -25 5 C-25 4.67 -25 4.34 -25 4 C-20.05 3.67 -15.1 3.34 -10 3 C-10 2.34 -10 1.68 -10 1 C-6.42181037 -1.33958553 -4.07775191 -0.9267618 0 0 Z " fill="#E6E1E9" transform="translate(134,241)"/>
<path d="M0 0 C0.33 0 0.66 0 1 0 C1.25663005 3.37349411 1.47534842 6.74844009 1.6875 10.125 C1.76033203 11.07632813 1.83316406 12.02765625 1.90820312 13.0078125 C2.23432812 18.53275356 2.14711811 22.19437492 -1 27 C-1.66 26.67 -2.32 26.34 -3 26 C-2.67128906 25.21238281 -2.34257812 24.42476562 -2.00390625 23.61328125 C-0.73189696 19.03503769 -0.81959658 14.90720953 -0.9375 10.1875 C-0.97176987 8.47273718 -1.00194747 6.75788595 -1.02734375 5.04296875 C-1.04531006 4.29039795 -1.06327637 3.53782715 -1.08178711 2.76245117 C-1 1 -1 1 0 0 Z " fill="#1C0534" transform="translate(314,128)"/>
<path d="M0 0 C0.99 0 1.98 0 3 0 C4.58706088 3.17412177 4.28477127 6.53638667 4 10 C3 13 3 13 2 15 C-0.46735884 12.53264116 -0.9072384 10.27828479 -2 7 C-1.40206327 4.64811553 -0.74118205 2.31074405 0 0 Z " fill="#E9E4ED" transform="translate(140,224)"/>
<path d="M0 0 C3 2 3 2 3.6953125 4.09375 C3.90800781 5.28484375 3.90800781 5.28484375 4.125 6.5 C4.73626636 9.85719457 4.73626636 9.85719457 6 13 C5.01 14.32 4.02 15.64 3 17 C-0.61601216 11.42531458 -0.30720059 6.39432346 0 0 Z " fill="#210E38" transform="translate(330,224)"/>
<path d="M0 0 C0.99 0.495 0.99 0.495 2 1 C2 3.64 2 6.28 2 9 C4.65918166 9.88639389 6.48064641 10.17989025 9.23046875 10.31640625 C10.03291016 10.35830078 10.83535156 10.40019531 11.66210938 10.44335938 C12.49548828 10.48267578 13.32886719 10.52199219 14.1875 10.5625 C15.03248047 10.60568359 15.87746094 10.64886719 16.74804688 10.69335938 C18.83184433 10.79931518 20.91590103 10.9001502 23 11 C23 11.33 23 11.66 23 12 C15.41 12 7.82 12 0 12 C0 8.04 0 4.08 0 0 Z " fill="#200E33" transform="translate(401,204)"/>
<path d="M0 0 C1.32 0 2.64 0 4 0 C4 2.64 4 5.28 4 8 C3.34 8 2.68 8 2 8 C1.67 8.99 1.34 9.98 1 11 C0.34 11.99 -0.32 12.98 -1 14 C-1.02705729 12.22925083 -1.04642195 10.45838289 -1.0625 8.6875 C-1.07410156 7.70136719 -1.08570313 6.71523437 -1.09765625 5.69921875 C-1 3 -1 3 0 0 Z " fill="#2E1F45" transform="translate(330,218)"/>
<path d="M0 0 C1.32 0 2.64 0 4 0 C4 5.28 4 10.56 4 16 C3.01 15.67 2.02 15.34 1 15 C1.01160156 14.25234375 1.02320313 13.5046875 1.03515625 12.734375 C1.04417969 11.74953125 1.05320312 10.7646875 1.0625 9.75 C1.07410156 8.77546875 1.08570313 7.8009375 1.09765625 6.796875 C1.01195577 4.34241322 0.70706066 2.33831086 0 0 Z " fill="#190C2D" transform="translate(378,204)"/>
<path d="M0 0 C1.48199902 0.44909061 2.96055236 0.90956564 4.4375 1.375 C5.26121094 1.63023437 6.08492188 1.88546875 6.93359375 2.1484375 C9 3 9 3 10 5 C9.67 5.66 9.34 6.32 9 7 C7.02 7 5.04 7 3 7 C2.01 4.69 1.02 2.38 0 0 Z " fill="#EEE9F0" transform="translate(374,217)"/>
<path d="M0 0 C1.32 0 2.64 0 4 0 C4 0.66 4 1.32 4 2 C2.29059971 3.60228383 0.46698472 5.01294742 -1.37109375 6.46484375 C-3.26558258 8.00756886 -3.26558258 8.00756886 -4 11 C-4.99 11.66 -5.98 12.32 -7 13 C-7 12.34 -7 11.68 -7 11 C-7.66 10.67 -8.32 10.34 -9 10 C-8.2575 9.46375 -7.515 8.9275 -6.75 8.375 C-3.83896795 6.09200751 -3.83896795 6.09200751 -1.9375 2.75 C-1.298125 1.8425 -0.65875 0.935 0 0 Z " fill="#E5E0EC" transform="translate(251,277)"/>
<path d="M0 0 C1.89551022 -0.05441656 3.7914792 -0.09298035 5.6875 -0.125 C6.74324219 -0.14820313 7.79898437 -0.17140625 8.88671875 -0.1953125 C12.05578267 0.00349954 14.19412988 0.53606776 17 2 C17.8125 4.125 17.8125 4.125 18 6 C16.35 6.33 14.7 6.66 13 7 C12.67 6.34 12.34 5.68 12 5 C12.33 4.01 12.66 3.02 13 2 C11.96939453 2.03480469 11.96939453 2.03480469 10.91796875 2.0703125 C9.56638672 2.09738281 9.56638672 2.09738281 8.1875 2.125 C7.29417969 2.14820313 6.40085937 2.17140625 5.48046875 2.1953125 C3 2 3 2 0 0 Z " fill="#E3E0E4" transform="translate(356,214)"/>
<path d="M0 0 C0.763125 0.20625 1.52625 0.4125 2.3125 0.625 C1.9825 1.615 1.6525 2.605 1.3125 3.625 C-1.12026386 4.81019265 -2.96767286 5.625 -5.6875 5.625 C-6.6775 6.12 -6.6775 6.12 -7.6875 6.625 C-6.22846393 2.36012534 -5.12714281 -0.71541528 0 0 Z " fill="#1D0835" transform="translate(345.6875,203.375)"/>
<path d="M0 0 C0.66 0 1.32 0 2 0 C2 8.91 2 17.82 2 27 C1.34 27 0.68 27 0 27 C0.33 19.41 0.66 11.82 1 4 C0.34 4 -0.32 4 -1 4 C-0.67 2.68 -0.34 1.36 0 0 Z " fill="#110224" transform="translate(260,43)"/>
<path d="M0 0 C0.66 0 1.32 0 2 0 C2 0.66 2 1.32 2 2 C2.99 2.33 3.98 2.66 5 3 C6 4 6 4 6.09765625 7.37890625 C6.09098369 8.77347077 6.07902532 10.16801743 6.0625 11.5625 C6.05798828 12.27341797 6.05347656 12.98433594 6.04882812 13.71679688 C6.03700864 15.47790013 6.01907263 17.23896036 6 19 C5.67 19 5.34 19 5 19 C5 14.38 5 9.76 5 5 C2.69 5 0.38 5 -2 5 C-1.34 3.35 -0.68 1.7 0 0 Z " fill="#C9C2D1" transform="translate(157,273)"/>
<path d="M0 0 C1.32 0 2.64 0 4 0 C4.33 0.99 4.66 1.98 5 3 C3.75 5.1875 3.75 5.1875 2 7 C1.01 7 0.02 7 -1 7 C-1.33 7.66 -1.66 8.32 -2 9 C-2.33 7.35 -2.66 5.7 -3 4 C-1.68 3.67 -0.36 3.34 1 3 C0.67 2.01 0.34 1.02 0 0 Z " fill="#180335" transform="translate(140,249)"/>
<path d="M0 0 C4.95 0.33 9.9 0.66 15 1 C15 1.66 15 2.32 15 3 C10.05 3 5.1 3 0 3 C0 2.01 0 1.02 0 0 Z " fill="#291D3D" transform="translate(430,289)"/>
<path d="M0 0 C3.53600465 1.91135386 5.78972846 3.62642766 8 7 C5.64561267 8.42944945 4.51967567 9.08661261 1.75 8.625 C1.1725 8.41875 0.595 8.2125 0 8 C0.66 6.02 1.32 4.04 2 2 C1.01 1.67 0.02 1.34 -1 1 C-0.67 0.67 -0.34 0.34 0 0 Z " fill="#2B1A48" transform="translate(378,246)"/>
<path d="M0 0 C0.99 0 1.98 0 3 0 C4.32 2.97 5.64 5.94 7 9 C6.34 9.66 5.68 10.32 5 11 C4.15841464 9.73461631 3.32700252 8.46246221 2.5 7.1875 C1.80390625 6.12595703 1.80390625 6.12595703 1.09375 5.04296875 C0 3 0 3 0 0 Z " fill="#1E0E31" transform="translate(127,264)"/>
<path d="M0 0 C4.571279 0.54855348 8.67435795 1.41744803 13 3 C13 3.99 13 4.98 13 6 C11.39566191 5.52140759 9.79153584 5.04210442 8.1875 4.5625 C7.29417969 4.29566406 6.40085937 4.02882813 5.48046875 3.75390625 C3.64526945 3.19612127 1.81966274 2.60655425 0 2 C0 1.34 0 0.68 0 0 Z " fill="#25173E" transform="translate(355,252)"/>
<path d="M0 0 C0.87785156 -0.02578125 1.75570313 -0.0515625 2.66015625 -0.078125 C3.41167969 0.03015625 4.16320312 0.1384375 4.9375 0.25 C5.5975 1.24 6.2575 2.23 6.9375 3.25 C1.1875 4.375 1.1875 4.375 -1.0625 3.25 C-1.0625 2.59 -1.0625 1.93 -1.0625 1.25 C-3.0425 1.91 -5.0225 2.57 -7.0625 3.25 C-7.3925 2.59 -7.7225 1.93 -8.0625 1.25 C-5.14081111 0.2761037 -3.05220526 0.05394177 0 0 Z " fill="#190636" transform="translate(359.0625,199.75)"/>
<path d="M0 0 C3.36591866 1.44253657 5.51047079 3.33264727 8 6 C7.67 6.66 7.34 7.32 7 8 C4.07120629 7.37240135 1.63904371 6.41377341 -1 5 C-0.67 4.34 -0.34 3.68 0 3 C0.66 3.33 1.32 3.66 2 4 C1.34 2.68 0.68 1.36 0 0 Z " fill="#1B0930" transform="translate(202,271)"/>
<path d="M0 0 C2.13586678 3.20380017 2.23132175 4.01939967 2.125 7.6875 C2.10695312 8.49574219 2.08890625 9.30398438 2.0703125 10.13671875 C2.03550781 11.05904297 2.03550781 11.05904297 2 12 C1.34 12 0.68 12 0 12 C-1.75282525 9.31920844 -2.01311136 8.13111361 -1.6875 4.875 C-1 2 -1 2 0 0 Z " fill="#281043" transform="translate(189,265)"/>
<path d="M0 0 C4.455 0.99 4.455 0.99 9 2 C9 2.66 9 3.32 9 4 C5.7 4 2.4 4 -1 4 C-0.67 2.68 -0.34 1.36 0 0 Z " fill="#F5EDFA" transform="translate(336,290)"/>
<path d="M0 0 C2 3 2 3 2 5 C-0.97 5 -3.94 5 -7 5 C-7 4.34 -7 3.68 -7 3 C-4.69 2.01 -2.38 1.02 0 0 Z " fill="#F0E8F5" transform="translate(377,289)"/>
<path d="M0 0 C0 1.98 0 3.96 0 6 C-0.99 6.33 -1.98 6.66 -3 7 C-3.99 6.01 -4.98 5.02 -6 4 C-5.67 3.67 -5.34 3.34 -5 3 C-5.99 2.34 -6.98 1.68 -8 1 C-5.07175348 0.02391783 -3.04386724 -0.08226668 0 0 Z " fill="#27114A" transform="translate(128,257)"/>
<path d="M0 0 C0.66 0.99 1.32 1.98 2 3 C0.84826645 5.46800047 -0.04783565 7.04783565 -2 9 C-2.66 9 -3.32 9 -4 9 C-5.62514468 10.45833358 -5.62514468 10.45833358 -7 12 C-6.49394035 7.61414969 -3.79780785 5.21747902 -1 2 C-0.67 1.34 -0.34 0.68 0 0 Z " fill="#E7E2EC" transform="translate(387,278)"/>
<path d="M0 0 C0 0.99 0 1.98 0 3 C-3.63 2.34 -7.26 1.68 -11 1 C-6.68398307 -1.87734462 -4.56105874 -2.76921423 0 0 Z " fill="#170333" transform="translate(123,258)"/>
<path d="M0 0 C0.33 1.32 0.66 2.64 1 4 C-2.19990508 6.74277578 -5.00499382 8.6302836 -9 10 C-8.67 8.68 -8.34 7.36 -8 6 C-6.35 6 -4.7 6 -3 6 C-2.690625 5.195625 -2.38125 4.39125 -2.0625 3.5625 C-1 1 -1 1 0 0 Z " fill="#2B1A41" transform="translate(151,246)"/>
<path d="M0 0 C0.66 0.33 1.32 0.66 2 1 C1.34 2.98 0.68 4.96 0 7 C-0.99 7 -1.98 7 -3 7 C-3.33 8.65 -3.66 10.3 -4 12 C-4.33 12 -4.66 12 -5 12 C-5.32469403 7.34605219 -4.79790518 4.76641082 -2 1 C-1.34 0.67 -0.68 0.34 0 0 Z " fill="#E6DDED" transform="translate(350,216)"/>
<path d="M0 0 C0.66 0 1.32 0 2 0 C2.33 1.65 2.66 3.3 3 5 C-2.53846154 4.38461538 -2.53846154 4.38461538 -4.875 2.4375 C-5.24625 1.963125 -5.6175 1.48875 -6 1 C-4.7934375 1.0309375 -4.7934375 1.0309375 -3.5625 1.0625 C-1.06645115 1.29633621 -1.06645115 1.29633621 0 0 Z " fill="#1A0B30" transform="translate(208,287)"/>
<path d="M0 0 C4.62 0.66 9.24 1.32 14 2 C14 2.33 14 2.66 14 3 C9.05 3.33 4.1 3.66 -1 4 C-0.67 2.68 -0.34 1.36 0 0 Z " fill="#2F1A40" transform="translate(210,277)"/>
<path d="M0 0 C3 3 3 3 3.29296875 5.91796875 C3.25816406 6.99691406 3.22335938 8.07585937 3.1875 9.1875 C3.16042969 10.27417969 3.13335937 11.36085937 3.10546875 12.48046875 C3.07066406 13.31191406 3.03585938 14.14335937 3 15 C2.67 15 2.34 15 2 15 C1.67 13.02 1.34 11.04 1 9 C0.67 9 0.34 9 0 9 C0 6.03 0 3.06 0 0 Z " fill="#423658" transform="translate(157,220)"/>
<path d="M0 0 C1.32 0.33 2.64 0.66 4 1 C2.68 3.97 1.36 6.94 0 10 C-0.99 9.67 -1.98 9.34 -3 9 C-2.01 6.03 -1.02 3.06 0 0 Z " fill="#EDEBF6" transform="translate(331,208)"/>
<path d="M0 0 C2.64 0 5.28 0 8 0 C8 0.66 8 1.32 8 2 C7.34 2 6.68 2 6 2 C6.33 2.99 6.66 3.98 7 5 C6.01 5.495 6.01 5.495 5 6 C4.54625 5.525625 4.0925 5.05125 3.625 4.5625 C2.06741796 2.90972192 2.06741796 2.90972192 0 2 C0 1.34 0 0.68 0 0 Z " fill="#E4DEE2" transform="translate(308,0)"/>
<path d="M0 0 C2.32472205 2.85306797 3.7508258 5.54074837 5 9 C4.01 9.33 3.02 9.66 2 10 C1.01 7.03 0.02 4.06 -1 1 C-0.67 0.67 -0.34 0.34 0 0 Z " fill="#EBE6EF" transform="translate(129,270)"/>
<path d="M0 0 C-1.26418246 0.69965443 -2.53665402 1.38434763 -3.8125 2.0625 C-4.52019531 2.44535156 -5.22789062 2.82820313 -5.95703125 3.22265625 C-8 4 -8 4 -11 3 C-10 1 -10 1 -6.625 -0.1875 C-3 -1 -3 -1 0 0 Z " fill="#EAE2EF" transform="translate(235,275)"/>
<path d="M0 0 C2.33944736 0.28730055 4.6739143 0.61936779 7 1 C7 1.66 7 2.32 7 3 C7.66 3.33 8.32 3.66 9 4 C9 4.66 9 5.32 9 6 C1.42857143 4.14285714 1.42857143 4.14285714 -1 1 C-0.67 0.67 -0.34 0.34 0 0 Z " fill="#E7DBEA" transform="translate(350,232)"/>
<path d="M0 0 C1.67542976 0.28604898 3.34385343 0.61781233 5 1 C5 1.99 5 2.98 5 4 C3.02 4.99 3.02 4.99 1 6 C0.34 4.35 -0.32 2.7 -1 1 C-0.67 0.67 -0.34 0.34 0 0 Z " fill="#EEE5ED" transform="translate(146,264)"/>
<path d="M0 0 C2.64 0 5.28 0 8 0 C8.33 0.99 8.66 1.98 9 3 C5.625 3.1875 5.625 3.1875 2 3 C1.34 2.01 0.68 1.02 0 0 Z " fill="#221237" transform="translate(130,202)"/>
<path d="M0 0 C1.27875 -0.061875 2.5575 -0.12375 3.875 -0.1875 C4.95394531 -0.23970703 4.95394531 -0.23970703 6.0546875 -0.29296875 C6.69664062 -0.19628906 7.33859375 -0.09960938 8 0 C8.66 0.99 9.32 1.98 10 3 C5.82412255 4.39195915 3.86525224 2.82323219 0 1 C0 0.67 0 0.34 0 0 Z " fill="#25183D" transform="translate(335,288)"/>
<path d="M0 0 C1.485 0.99 1.485 0.99 3 2 C2.01 2 1.02 2 0 2 C0 1.34 0 0.68 0 0 Z M-3 1 C-2.01 1.66 -1.02 2.32 0 3 C-1.75 5.0625 -1.75 5.0625 -4 7 C-6.25 6.75 -6.25 6.75 -8 6 C-6.35 4.35 -4.7 2.7 -3 1 Z " fill="#241341" transform="translate(240,270)"/>
<path d="M0 0 C3.3125 0.75 3.3125 0.75 6 2 C5.67 2.66 5.34 3.32 5 4 C1.7 4 -1.6 4 -5 4 C-2.875 1.875 -2.875 1.875 0 0 Z " fill="#241341" transform="translate(370,242)"/>
<path d="M0 0 C-0.99 1.485 -0.99 1.485 -2 3 C-5.125 3.1875 -5.125 3.1875 -8 3 C-8 2.01 -8 1.02 -8 0 C-2.25 -1.125 -2.25 -1.125 0 0 Z " fill="#25094C" transform="translate(360,239)"/>
<path d="M0 0 C0.99 0.33 1.98 0.66 3 1 C3 1.66 3 2.32 3 3 C6.3 3 9.6 3 13 3 C13 3.33 13 3.66 13 4 C8.38 4 3.76 4 -1 4 C-0.67 2.68 -0.34 1.36 0 0 Z " fill="#24163B" transform="translate(213,112)"/>
<path d="M0 0 C1.9375 0.125 1.9375 0.125 4 1 C5.25 3.5625 5.25 3.5625 6 6 C5.01 5.67 4.02 5.34 3 5 C3 4.34 3 3.68 3 3 C2.01 3.33 1.02 3.66 0 4 C-0.66 3.67 -1.32 3.34 -2 3 C-1 1 -1 1 0 0 Z " fill="#281744" transform="translate(138,259)"/>
<path d="M0 0 C0.66 0.66 1.32 1.32 2 2 C1.9765625 5.0390625 1.9765625 5.0390625 1.625 8.625 C1.51414062 9.81351563 1.40328125 11.00203125 1.2890625 12.2265625 C1.19367188 13.14179688 1.09828125 14.05703125 1 15 C0.67 15 0.34 15 0 15 C0 10.71 0 6.42 0 2 C-0.66 1.67 -1.32 1.34 -2 1 C-1.34 0.67 -0.68 0.34 0 0 Z " fill="#E5DEED" transform="translate(382,202)"/>
<path d="M0 0 C0.33 0.66 0.66 1.32 1 2 C-0.21480305 5.42353587 -2.01771223 7.01180815 -5 9 C-5 4.61031544 -2.87194899 3.23094261 0 0 Z " fill="#291E41" transform="translate(338,206)"/>
<path d="M0 0 C-0.99 0.495 -0.99 0.495 -2 1 C-2 1.66 -2 2.32 -2 3 C-4.875 3.125 -4.875 3.125 -8 3 C-8.66 2.34 -9.32 1.68 -10 1 C-3.71428571 -1.42857143 -3.71428571 -1.42857143 0 0 Z " fill="#3F2F53" transform="translate(354,201)"/>
<path d="M0 0 C-0.33 1.65 -0.66 3.3 -1 5 C-1.99 5.33 -2.98 5.66 -4 6 C-4.66 4.02 -5.32 2.04 -6 0 C-3 -1 -3 -1 0 0 Z " fill="#F4F0F6" transform="translate(320,6)"/>
<path d="M0 0 C0.33 0 0.66 0 1 0 C1.49230769 7.38461538 1.49230769 7.38461538 -1 10.5 C-1.66 10.995 -2.32 11.49 -3 12 C-3.33 11.01 -3.66 10.02 -4 9 C-2.68 8.34 -1.36 7.68 0 7 C0 4.69 0 2.38 0 0 Z " fill="#CAC2D4" transform="translate(373,264)"/>
<path d="M0 0 C2.88437779 1.29299694 4.87219421 2.65941363 7 5 C6.01 5.495 6.01 5.495 5 6 C2.375 4.75 2.375 4.75 0 3 C0 2.01 0 1.02 0 0 Z " fill="#1B0E30" transform="translate(339,243)"/>
<path d="M0 0 C1.32 1.65 2.64 3.3 4 5 C3.34 6.32 2.68 7.64 2 9 C-0.29013653 5.5647952 -0.17842973 4.014669 0 0 Z " fill="#291D43" transform="translate(154,213)"/>
<path d="M0 0 C0.66 0.33 1.32 0.66 2 1 C0.25 6.75 0.25 6.75 -2 9 C-2 5.20442119 -1.49821059 3.37097383 0 0 Z " fill="#261337" transform="translate(314,146)"/>
<path d="M0 0 C2.5 1.3125 2.5 1.3125 5 3 C5 3.99 5 4.98 5 6 C1.83884224 4.63016497 1.0072908 4.0109362 -1 1 C-0.67 0.67 -0.34 0.34 0 0 Z " fill="#17062E" transform="translate(194,280)"/>
<path d="M0 0 C2.46800047 1.15173355 4.04783565 2.04783565 6 4 C5.67 4.99 5.34 5.98 5 7 C3.29115995 5.37660195 1.62553283 3.70680947 0 2 C0 1.34 0 0.68 0 0 Z " fill="#E4D9EA" transform="translate(148,270)"/>
<path d="M0 0 C1.485 0.99 1.485 0.99 3 2 C2.67 4.31 2.34 6.62 2 9 C1.34 9 0.68 9 0 9 C0 6.03 0 3.06 0 0 Z " fill="#110429" transform="translate(330,224)"/>
<path d="M0 0 C1.32 0.66 2.64 1.32 4 2 C4 2.66 4 3.32 4 4 C1.69 4 -0.62 4 -3 4 C-2.01 2.68 -1.02 1.36 0 0 Z " fill="#1C0B37" transform="translate(142,204)"/>
<path d="M0 0 C0.66 0.66 1.32 1.32 2 2 C-1.465 3.485 -1.465 3.485 -5 5 C-4.67 3.68 -4.34 2.36 -4 1 C-2.125 0.375 -2.125 0.375 0 0 Z " fill="#201333" transform="translate(376,287)"/>
<path d="M0 0 C1.32 0.66 2.64 1.32 4 2 C4 2.66 4 3.32 4 4 C2.35 4.66 0.7 5.32 -1 6 C-0.67 4.02 -0.34 2.04 0 0 Z " fill="#1D0B31" transform="translate(241,282)"/>
<path d="M0 0 C-3.99560608 2.83022097 -7.42737323 1.76210446 -12 1 C-12 0.67 -12 0.34 -12 0 C-3.42857143 -1.28571429 -3.42857143 -1.28571429 0 0 Z " fill="#1C062A" transform="translate(228,280)"/>
<path d="M0 0 C0.66 0.33 1.32 0.66 2 1 C1.25 2.9375 1.25 2.9375 0 5 C-2.125 5.75 -2.125 5.75 -4 6 C-4 4 -4 4 -2 1.875 C-1.34 1.25625 -0.68 0.6375 0 0 Z " fill="#150630" transform="translate(249,276)"/>
<path d="M0 0 C2.475 0.495 2.475 0.495 5 1 C4.34 2.32 3.68 3.64 3 5 C1.5 3.625 1.5 3.625 0 2 C0 1.34 0 0.68 0 0 Z " fill="#F0EEE7" transform="translate(152,208)"/>
<path d="M0 0 C1.65 0.33 3.3 0.66 5 1 C4.67 2.32 4.34 3.64 4 5 C1.525 4.01 1.525 4.01 -1 3 C-0.67 2.01 -0.34 1.02 0 0 Z " fill="#EBE6F4" transform="translate(142,201)"/>
<path d="M0 0 C1.98 0 3.96 0 6 0 C6 0.66 6 1.32 6 2 C4.35 2.66 2.7 3.32 1 4 C0.67 2.68 0.34 1.36 0 0 Z " fill="#E3DCE3" transform="translate(160,0)"/>
</svg>
