<?xml version="1.0" encoding="UTF-8"?>
<svg version="1.1" xmlns="http://www.w3.org/2000/svg" width="3000" height="2000">
<path d="M0 0 C440.22 0 880.44 0 1334 0 C1334 440.22 1334 880.44 1334 1334 C893.78 1334 453.56 1334 0 1334 C0 893.78 0 453.56 0 0 Z " fill="#DD1E25" transform="translate(833,333)"/>
<path d="M0 0 C32.34 0 64.68 0 98 0 C98 8.58 98 17.16 98 26 C88.76 26 79.52 26 70 26 C71.32 29.96 72.64 33.92 74 38 C74.97315839 41.57955312 75.91439948 45.15246592 76.8125 48.75 C78.88594863 56.88347634 81.11268788 64.95316835 83.5 73 C86.16811035 81.99918233 88.61104204 91.03686351 90.94140625 100.12890625 C92.44137974 105.951384 94.09888458 111.68731337 95.93359375 117.4140625 C97.74758286 123.51385006 99.27186716 129.69379228 100.80664062 135.86914062 C102.14921286 141.16384238 103.67782678 146.0524618 106 151 C106.1858667 150.27635254 106.3717334 149.55270508 106.56323242 148.80712891 C110.73914796 132.56931619 114.93923428 116.35057179 119.6875 100.26953125 C122.76390915 89.84582511 125.72013581 79.42980523 128.29907227 68.87109375 C129.70124572 63.13971697 131.25344218 57.46955303 132.90625 51.8046875 C134.2973288 46.96572054 135.61794866 42.10887756 136.9375 37.25 C137.45307088 35.3567561 137.96869574 33.46352689 138.484375 31.5703125 C139.22738513 28.84121548 139.96968695 26.11194116 140.70898438 23.38183594 C141.36494893 20.96190941 142.02570133 18.54333648 142.6875 16.125 C142.87755615 15.41891602 143.0676123 14.71283203 143.26342773 13.98535156 C144.58919982 9.16247323 146.22707379 4.72780322 148 0 C162.52 0 177.04 0 192 0 C198.87683824 24.06893382 198.87683824 24.06893382 201.4375 33.25 C202.02993209 35.36979609 202.62238049 37.48958762 203.21484375 39.609375 C203.50987793 40.66576172 203.80491211 41.72214844 204.10888672 42.81054688 C205.57024841 48.04102059 207.0352874 53.27046387 208.5 58.5 C209.08335145 60.58332826 209.66668477 62.6666616 210.25 64.75 C210.683125 66.296875 210.683125 66.296875 211.125 67.875 C214.33333333 79.33333333 217.54166667 90.79166667 220.75 102.25 C221.0392334 103.28286133 221.3284668 104.31572266 221.62646484 105.37988281 C222.20515723 107.4468724 222.78361085 109.51392886 223.36181641 111.58105469 C224.88912544 117.04004179 226.42152006 122.49753901 227.9609375 127.953125 C228.28126953 129.09072266 228.60160156 130.22832031 228.93164062 131.40039062 C229.54599973 133.58181064 230.16181144 135.76282225 230.77929688 137.94335938 C231.05580078 138.92626953 231.33230469 139.90917969 231.6171875 140.921875 C231.86065918 141.78393555 232.10413086 142.64599609 232.35498047 143.53417969 C233.00246699 146.00943098 233.52376411 148.48668897 234 151 C235.47631217 148.23171858 236.48974272 145.59930415 237.296875 142.5703125 C237.53019531 141.7040625 237.76351563 140.8378125 238.00390625 139.9453125 C238.25011719 139.01460937 238.49632812 138.08390625 238.75 137.125 C239.28634588 135.12757397 239.8228074 133.13017898 240.359375 131.1328125 C240.76833008 129.60188965 240.76833008 129.60188965 241.18554688 128.04003906 C242.44057021 123.35552149 243.72074868 118.67794734 245 114 C245.50013794 112.16670429 246.0001375 110.33337083 246.5 108.5 C249.5 97.5 249.5 97.5 250.24975586 94.75097656 C250.75062473 92.91440304 251.25143838 91.07781445 251.75219727 89.24121094 C252.98845515 84.70732849 254.22561649 80.17369681 255.46484375 75.640625 C258.5505028 64.34805539 261.60908731 53.0485094 264.64038086 41.74121094 C264.91889893 40.70383789 265.19741699 39.66646484 265.484375 38.59765625 C265.72897461 37.68508057 265.97357422 36.77250488 266.22558594 35.83227539 C267.12373926 32.54744666 268.06446346 29.27437789 269 26 C259.43 26 249.86 26 240 26 C240 17.42 240 8.84 240 0 C324.48 0 408.96 0 496 0 C496 22.44 496 44.88 496 68 C489.07 68 482.14 68 475 68 C472 59 472 59 470.859375 55.2265625 C467.86201319 45.49569071 464.65184802 35.29933638 455.375 29.875 C450.4359768 27.43223401 445.6661084 26.87951831 440.19995117 26.79467773 C438.46497375 26.76440491 438.46497375 26.76440491 436.69494629 26.73352051 C435.4897937 26.71704468 434.28464111 26.70056885 433.04296875 26.68359375 C431.36974548 26.65561707 431.36974548 26.65561707 429.66271973 26.6270752 C425.50439207 26.55888737 421.34593683 26.49866862 417.1875 26.4375 C407.885625 26.293125 398.58375 26.14875 389 26 C389 47.12 389 68.24 389 90 C409.13 90 429.26 90 450 90 C452.25392297 95.63480742 452.25392297 95.63480742 452.265625 99.1796875 C452.26820313 99.94410156 452.27078125 100.70851563 452.2734375 101.49609375 C452.26570313 102.28113281 452.25796875 103.06617188 452.25 103.875 C452.25773437 104.65230469 452.26546875 105.42960938 452.2734375 106.23046875 C452.26957031 107.38095703 452.26957031 107.38095703 452.265625 108.5546875 C452.26336914 109.24030762 452.26111328 109.92592773 452.25878906 110.63232422 C451.90978749 113.82535933 450.88241843 116.91153549 450 120 C429.87 120 409.74 120 389 120 C389 141.45 389 162.9 389 185 C399.02375 184.938125 409.0475 184.87625 419.375 184.8125 C422.5207959 184.80581299 425.6665918 184.79912598 428.90771484 184.79223633 C431.42547683 184.76577099 433.94322065 184.73748953 436.4609375 184.70703125 C437.74846924 184.71101929 439.03600098 184.71500732 440.36254883 184.71911621 C449.80795532 184.57116299 457.3546313 182.83617714 464.25 176.0625 C471.44921366 166.58556902 473.97660497 154.95732727 476.23828125 143.54296875 C477 140 477 140 478 139 C485.26 139 492.52 139 500 139 C500 163.09 500 187.18 500 212 C439.61 212 379.22 212 317 212 C317 203.09 317 194.18 317 185 C325.58 185 334.16 185 343 185 C343 132.53 343 80.06 343 26 C329.14 26 315.28 26 301 26 C300.67 28.31 300.34 30.62 300 33 C299.57347287 34.86238342 299.11292829 36.71733375 298.6171875 38.5625 C298.20243164 40.1103418 298.20243164 40.1103418 297.77929688 41.68945312 C297.48087891 42.78193359 297.18246094 43.87441406 296.875 45 C296.56369141 46.14919922 296.25238281 47.29839844 295.93164062 48.48242188 C293.65371285 56.81037916 291.18716159 65.06788665 288.62646484 73.3125 C286.4116058 80.49876132 284.42250611 87.73052378 282.5 95 C280.07370558 104.17442577 277.44034148 113.25452585 274.625 122.31640625 C272.41115371 129.50152345 270.42228435 136.73189864 268.5 144 C266.06989269 153.18274087 263.44666922 162.27859234 260.63598633 171.3515625 C257.47358815 181.6024018 254.60893515 191.93417101 251.75854492 202.27539062 C250.85484733 205.52137231 249.92565393 208.76021124 249 212 C234.81 212 220.62 212 206 212 C204.989375 208.225625 203.97875 204.45125 202.9375 200.5625 C199.63721921 188.27634477 196.22783955 176.02284111 192.78027344 163.77734375 C191.67803883 159.85399552 190.58804491 155.92730259 189.5 152 C186.35554241 140.66046225 183.17548951 129.33087781 180 118 C179.08930845 114.75044285 178.1786838 111.50086704 177.26831055 108.2512207 C176.67622025 106.13772209 176.08393737 104.02427743 175.49145508 101.91088867 C174.18246416 97.2384617 172.87747495 92.56508143 171.58984375 87.88671875 C168.87874772 73.43252366 168.87874772 73.43252366 163 61 C162.82984375 61.65145996 162.6596875 62.30291992 162.484375 62.97412109 C159.27686373 75.20062515 155.9643304 87.37339361 152.1875 99.4375 C148.96297328 109.75312844 145.90325331 120.10762903 142.9375 130.5 C142.72380768 131.24852234 142.51011536 131.99704468 142.28994751 132.76824951 C139.26723977 143.37529169 136.37333952 154.01170333 133.55151367 164.67407227 C131.17501978 173.55761602 128.50935609 182.34154318 125.75146484 191.11352539 C123.89688701 197.01734388 122.17237246 202.92855912 120.62207031 208.92016602 C120 211 120 211 119 212 C115.89748799 212.08874135 112.8173188 212.11518455 109.71484375 212.09765625 C108.78402481 212.0962413 107.85320587 212.09482635 106.8941803 212.09336853 C103.90858809 212.08775172 100.92306971 212.0751964 97.9375 212.0625 C95.91862087 212.05748716 93.89974057 212.05292388 91.88085938 212.04882812 C86.92054428 212.03777683 81.96028468 212.02050095 77 212 C76.69147095 210.90836548 76.69147095 210.90836548 76.37670898 209.79467773 C71.49813446 192.50816281 71.49813446 192.50816281 66.34266663 175.302948 C63.63721162 166.55159622 61.09706573 157.78138737 58.75390625 148.92578125 C55.46312306 136.60277898 51.99664423 124.33610626 48.44775391 112.08520508 C47.49728266 108.8031167 46.5511297 105.51980534 45.60546875 102.23632812 C42.57015296 91.72053032 39.47860646 81.22587886 36.26953125 70.76171875 C33.75001851 62.54442937 31.36651907 54.31509456 29.1875 46 C28.61892618 43.85405094 28.04992859 41.70821411 27.48046875 39.5625 C27.24223389 38.65628906 27.00399902 37.75007812 26.75854492 36.81640625 C25.87462049 33.53447761 24.93374385 30.26810349 24 27 C16.08 26.67 8.16 26.34 0 26 C0 17.42 0 8.84 0 0 Z " fill="#FEFCFC" transform="translate(947,727)"/>
<path d="M0 0 C13.53 0 27.06 0 41 0 C48.82626381 18.69185338 56.6030835 37.39651494 64.1875 56.1875 C64.53629211 57.05162506 64.88508423 57.91575012 65.2444458 58.80606079 C65.59770935 59.68128387 65.9509729 60.55650696 66.31494141 61.45825195 C71.78350299 75.00557711 77.28770055 88.53801343 82.8125 102.0625 C83.22421448 103.07039581 83.63592896 104.07829163 84.06011963 105.11672974 C85.73858629 109.2254583 87.41716687 113.33414027 89.09603882 117.44270325 C92.27043041 125.2117682 95.44060133 132.98254843 98.609375 140.75390625 C99.98315304 144.12239862 101.3569746 147.49087324 102.73080444 150.85934448 C103.61090305 153.01756964 104.49080966 155.1758731 105.37051392 157.33425903 C106.59149632 160.32984098 107.81324511 163.32510929 109.03515625 166.3203125 C109.39361633 167.20034439 109.75207642 168.08037628 110.12139893 168.98707581 C110.4578241 169.81134567 110.79424927 170.63561554 111.14086914 171.48486328 C111.45500763 172.25558167 111.76914612 173.02630005 112.09280396 173.82037354 C112.94537074 175.8687479 113.84204508 177.8922311 114.74780273 179.91748047 C116 183 116 183 116 186 C129.86 186 143.72 186 158 186 C158 133.53 158 81.06 158 27 C149.42 27 140.84 27 132 27 C132 18.09 132 9.18 132 0 C149.23914698 -0.11342692 166.47796911 -0.20529503 183.7173872 -0.25906086 C191.72424488 -0.28470297 199.73085208 -0.31958089 207.73754883 -0.37719727 C214.72659871 -0.42746611 221.71546698 -0.45939229 228.70469266 -0.47044247 C232.39609736 -0.47688885 236.08698307 -0.49173554 239.77821922 -0.52865028 C265.90688481 -0.77946207 292.83524653 0.87447889 312.58984375 20.15234375 C324.26624348 33.94828444 326.27993863 48.47695265 325 66 C322.74272047 79.63829368 315.14243446 90.95437294 304 99 C293.26482434 105.40125323 282.60837613 109.62008407 270 109 C270 109.66 270 110.32 270 111 C270.66644531 111.02578125 271.33289062 111.0515625 272.01953125 111.078125 C282.51495422 111.72399718 292.36436914 114.41460355 300 122 C308.35242945 132.57341637 311.20708575 143.81464728 312.71484375 156.96875 C312.83601563 158.02336426 312.9571875 159.07797852 313.08203125 160.16455078 C313.31464964 162.26546553 313.53268833 164.36805852 313.734375 166.47216797 C314.55403512 174.02810105 316.03689251 179.78612867 321.26171875 185.453125 C324.7532594 187.42552171 327.89455078 187.66751686 331.8125 187.75 C332.50537109 187.77964844 333.19824219 187.80929687 333.91210938 187.83984375 C335.60746213 187.90999628 337.30373312 187.95732662 339 188 C341.06054573 192.25191977 341.26878779 195.80305214 341.25 200.5 C341.25515625 201.7890625 341.2603125 203.078125 341.265625 204.40625 C340.83989398 210.16614031 340.83989398 210.16614031 339 213 C332.62245258 214.48959009 326.04869753 214.25890296 319.53466797 214.29516602 C318.1055304 214.3066366 316.67643399 214.32701004 315.24755859 214.35668945 C302.19252404 214.62697064 290.24509303 212.79896658 280 204 C270.10702724 193.73078443 268.05239242 179.43702522 266.32421875 165.82421875 C264.06551053 146.73884703 264.06551053 146.73884703 254.1484375 130.6484375 C239.90939576 119.72320911 219.37129814 121.56452752 203 121 C203 142.45 203 163.9 203 186 C212.57 186 222.14 186 232 186 C232 194.58 232 203.16 232 212 C169.3 212 106.6 212 42 212 C42 203.42 42 194.84 42 186 C49.92 186 57.84 186 66 186 C65.0615625 183.42445313 64.123125 180.84890625 63.15625 178.1953125 C62.25199949 175.70682068 61.34884683 173.21793303 60.44580078 170.72900391 C59.81641577 168.99616433 59.18588584 167.26374016 58.55419922 165.53173828 C57.6477179 163.04567413 56.74533134 160.55815716 55.84375 158.0703125 C55.55939087 157.29317902 55.27503174 156.51604553 54.98205566 155.71536255 C53 150.22774341 53 150.22774341 53 148 C26.6 148 0.2 148 -27 148 C-27.33 149.65 -27.66 151.3 -28 153 C-28.87396973 155.58714005 -29.77617362 158.14691824 -30.72265625 160.70703125 C-30.98759384 161.43242599 -31.25253143 162.15782074 -31.52549744 162.90519714 C-32.36776423 165.20889344 -33.21505266 167.51070506 -34.0625 169.8125 C-34.63640079 171.37943534 -35.20997213 172.94649138 -35.78320312 174.51367188 C-37.1843801 178.34409635 -38.59233978 182.17192854 -40 186 C-31.75 186 -23.5 186 -15 186 C-15 194.58 -15 203.16 -15 212 C-41.4 212 -67.8 212 -95 212 C-95 203.42 -95 194.84 -95 186 C-88.07 185.67 -81.14 185.34 -74 185 C-72.95440918 182.31166016 -71.90881836 179.62332031 -70.83154297 176.85351562 C-59.26289325 147.15150004 -47.44163673 117.55497961 -35.53033447 87.98895264 C-33.17244333 82.13513585 -30.81671646 76.28044831 -28.4609375 70.42578125 C-25.73685733 63.65580086 -23.01270908 56.88584845 -20.28717041 50.11645508 C-16.53130546 40.78686549 -12.77765611 31.45645076 -9.04589844 22.1171875 C-8.60901483 21.02383465 -8.60901483 21.02383465 -8.16330528 19.90839386 C-6.86666261 16.66220144 -5.57160443 13.41539151 -4.27835083 10.16784668 C-3.84988861 9.09345337 -3.42142639 8.01906006 -2.97998047 6.91210938 C-2.61693817 5.99989624 -2.25389587 5.08768311 -1.87985229 4.14782715 C-1 2 -1 2 0 0 Z " fill="#FEFDFD" transform="translate(1228,1048)"/>
<path d="M0 0 C1.06250977 0.29801514 1.06250977 0.29801514 2.14648438 0.60205078 C30.96984349 8.85938649 53.31851148 26.2456189 68.18017578 52.50390625 C82.03687366 78.10700309 85.18935553 109.91135515 78 138 C77.79503906 138.9384375 77.59007812 139.876875 77.37890625 140.84375 C71.17947631 167.02767772 53.66651552 190.59359406 30.93359375 204.74609375 C24.578264 208.50072007 17.86838436 211.33421412 11 214 C10.01902344 214.39960937 9.03804687 214.79921875 8.02734375 215.2109375 C-20.38685294 225.84128394 -54.62225763 223.3417593 -82 211 C-108.85936728 198.3745799 -128.20948248 176.44437984 -138.3125 148.6875 C-148.46997438 118.87788654 -146.73919983 84.3920903 -133 56 C-120.03101618 30.47729538 -97.91870953 10.95050647 -70.68359375 1.8046875 C-49.02285072 -4.69038246 -21.99580577 -6.30832092 0 0 Z " fill="#FEFDFD" transform="translate(1951,1045)"/>
<path d="M0 0 C2.32969165 0.01073141 4.65861258 0.00002977 6.98828125 -0.01269531 C20.04274865 -0.02676672 32.47899874 1.40481847 45.08203125 4.94824219 C46.47421875 5.33363159 46.47421875 5.33363159 47.89453125 5.72680664 C59.12065633 8.92728748 69.8946181 13.04203561 80.33203125 18.26074219 C80.33203125 36.08074219 80.33203125 53.90074219 80.33203125 72.26074219 C73.07203125 72.26074219 65.81203125 72.26074219 58.33203125 72.26074219 C56.59953125 68.14605469 56.59953125 68.14605469 54.83203125 63.94824219 C47.87390541 48.03966382 38.88420933 37.07067412 22.6640625 30.38964844 C8.91738991 25.73221775 -10.46967768 26.05543212 -23.66796875 32.26074219 C-27.20254116 34.02548553 -30.44552281 35.97725032 -33.66796875 38.26074219 C-34.35375 38.73898437 -35.03953125 39.21722656 -35.74609375 39.70996094 C-51.57990656 52.08402331 -57.43142599 73.66306301 -59.99145508 92.66137695 C-63.40069321 123.18665698 -59.40318224 153.14638809 -41.35546875 178.51074219 C-29.60358159 190.53592905 -13.65791352 196.11495252 2.91967773 196.61376953 C16.05428618 196.73994252 27.72990477 194.04138013 40.33203125 190.26074219 C40.33203125 172.44074219 40.33203125 154.62074219 40.33203125 136.26074219 C28.45203125 136.26074219 16.57203125 136.26074219 4.33203125 136.26074219 C0.95113921 129.4989581 0.95113921 129.4989581 0.93359375 126.16699219 C0.92972656 125.44640625 0.92585938 124.72582031 0.921875 123.98339844 C0.93347656 123.24992187 0.94507813 122.51644531 0.95703125 121.76074219 C0.94542969 121.02726562 0.93382812 120.29378906 0.921875 119.53808594 C0.92574219 118.8175 0.92960937 118.09691406 0.93359375 117.35449219 C0.93697754 116.71189453 0.94036133 116.06929687 0.94384766 115.40722656 C1.33203125 113.26074219 1.33203125 113.26074219 4.33203125 107.26074219 C31.06203125 107.26074219 57.79203125 107.26074219 85.33203125 107.26074219 C85.33203125 138.61074219 85.33203125 169.96074219 85.33203125 202.26074219 C44.08601215 220.19379397 -0.40798505 233.76484864 -44.66796875 217.26074219 C-49.12664936 215.47133822 -53.40506794 213.47417145 -57.66796875 211.26074219 C-58.6734375 210.74898437 -59.67890625 210.23722656 -60.71484375 209.70996094 C-85.80710484 196.09123374 -99.49382151 172.11560383 -107.80859375 145.74902344 C-110.44671928 135.04063206 -111.03560601 124.60714979 -110.98046875 113.63574219 C-110.97864594 112.88473236 -110.97682312 112.13372253 -110.97494507 111.35995483 C-110.8482803 80.37494671 -102.14404891 52.22000428 -80.35546875 29.44824219 C-58.12101171 8.21028742 -30.20900339 -0.16500716 0 0 Z " fill="#FEFDFD" transform="translate(1690.66796875,1041.7392578125)"/>
<path d="M0 0 C0 17.49 0 34.98 0 53 C-7.26 53 -14.52 53 -22 53 C-22.556875 50.73125 -23.11375 48.4625 -23.6875 46.125 C-26.71049171 34.57699698 -31.38891433 23.99409346 -41.7265625 17.2109375 C-56.98928446 9.03591756 -75.94458073 7.40303093 -92.8125 11.1875 C-102.91221396 14.31187194 -109.51866805 19.08173568 -114.875 28.1875 C-117.02118208 35.46067261 -117.12472736 42.37603298 -114 49.375 C-108.68320749 58.63125437 -98.84592609 62.84013298 -88.86764526 65.58700562 C-83.98361076 66.79745134 -79.06456458 67.84472616 -74.14086914 68.87991333 C-69.67041337 69.82379446 -65.21031325 70.81415353 -60.75 71.8046875 C-59.45503601 72.09180351 -59.45503601 72.09180351 -58.13391113 72.38471985 C-38.4677143 76.77457234 -19.31453546 82.02029096 -5 97 C-4.36835937 97.61230469 -3.73671875 98.22460938 -3.0859375 98.85546875 C7.60240833 109.89695376 11.95543992 124.96296664 12.375 140 C11.92014636 156.30195452 6.78949002 171.01116741 -4.69921875 182.828125 C-26.66512839 203.563347 -55.68211125 206.903998 -84.6875 206.35546875 C-95.63672596 205.95471088 -106.28258661 204.18848312 -117 202 C-117.8142041 201.83983398 -118.6284082 201.67966797 -119.46728516 201.51464844 C-134.73776422 198.46379133 -148.01057427 192.99471287 -162 186 C-162 166.53 -162 147.06 -162 127 C-154.41 127 -146.82 127 -139 127 C-138.13375 129.8875 -137.2675 132.775 -136.375 135.75 C-131.29810495 152.07635773 -125.44047609 163.74733174 -110 172 C-93.01347691 179.45694847 -69.48409137 180.15287682 -51.8984375 174.25 C-43.78966331 170.75295453 -39.50255429 167.46931543 -35.875 159.26953125 C-33.07148596 151.99791671 -32.60341295 143.56900855 -35.4375 136.1875 C-39.57194818 128.43008176 -45.8997184 124.05327139 -54.015625 121.046875 C-55.04901001 120.66276207 -55.04901001 120.66276207 -56.10327148 120.27088928 C-65.17136646 117.0512866 -74.58052132 115.29998016 -84 113.4375 C-136.50399014 102.95268063 -136.50399014 102.95268063 -152 81 C-161.30986146 65.14688686 -164.27435294 46.77069675 -160.19140625 28.65234375 C-154.70876872 11.82500988 -142.77096214 -0.06834771 -127.453125 -8.25 C-122.69112772 -10.66331989 -118.14685114 -12.57315018 -113 -14 C-112.37609375 -14.18046875 -111.7521875 -14.3609375 -111.109375 -14.546875 C-73.65387108 -24.96682722 -34.3492473 -15.85349875 0 0 Z " fill="#FEFDFD" transform="translate(2013,739)"/>
<path d="M0 0 C60.39 0 120.78 0 183 0 C183 22.77 183 45.54 183 69 C175.74 69 168.48 69 161 69 C160.154375 65.98875 159.30875 62.9775 158.4375 59.875 C153.60211458 42.54027761 153.60211458 42.54027761 141.50390625 30.015625 C133.43451519 26.74254906 125.70594791 26.66391849 117.09375 26.5859375 C115.92231445 26.56829346 114.75087891 26.55064941 113.54394531 26.5324707 C109.19609947 26.46972351 104.84803015 26.42331653 100.5 26.375 C90.765 26.25125 81.03 26.1275 71 26 C71 48.44 71 70.88 71 94 C91.79 94 112.58 94 134 94 C137.41493268 104.24479804 137.41493268 104.24479804 137.375 109.5625 C137.38273437 110.59503906 137.39046875 111.62757812 137.3984375 112.69140625 C137 116 137 116 134 124 C113.21 124 92.42 124 71 124 C71 144.46 71 164.92 71 186 C80.9 186 90.8 186 101 186 C101 194.58 101 203.16 101 212 C67.67 212 34.34 212 0 212 C0 203.09 0 194.18 0 185 C8.58 185 17.16 185 26 185 C26 132.86 26 80.72 26 27 C17.42 27 8.84 27 0 27 C0 18.09 0 9.18 0 0 Z " fill="#FEFDFD" transform="translate(980,1048)"/>
<path d="M0 0 C8.45576966 5.9884703 15.07540443 13.60175081 19.6640625 22.88671875 C20.17582031 23.89992188 20.68757813 24.913125 21.21484375 25.95703125 C28.29405597 41.09916755 30.33691248 56.89873117 30.13061523 73.47607422 C30.10148406 76.01856443 30.11011184 78.55897349 30.12304688 81.1015625 C30.10663273 95.1376865 28.89247836 109.18057135 23.4140625 122.26171875 C23.11105225 123.0079248 22.80804199 123.75413086 22.49584961 124.52294922 C15.82557136 140.43443188 6.07010207 150.76657025 -9.671875 157.953125 C-22.7768582 163.14992868 -42.92011244 163.62364002 -55.984375 158.07421875 C-56.76039062 157.68234375 -57.53640625 157.29046875 -58.3359375 156.88671875 C-59.11195312 156.53609375 -59.88796875 156.18546875 -60.6875 155.82421875 C-75.9932466 148.25024105 -84.69615942 134.35612235 -90.4609375 118.86328125 C-95.04593128 105.20943947 -95.67486306 91.17605145 -95.59667969 76.90307617 C-95.58586349 74.55817309 -95.59670392 72.21402222 -95.609375 69.86914062 C-95.61732285 61.65738501 -95.23424075 53.91886071 -93.3359375 45.88671875 C-93.06394531 44.61183594 -92.79195312 43.33695313 -92.51171875 42.0234375 C-88.34778258 25.38653416 -80.72503996 9.95291553 -65.9453125 0.3828125 C-45.52703733 -11.32407281 -20.57962586 -12.0503119 0 0 Z " fill="#DD1E25" transform="translate(1952.3359375,1077.11328125)"/>
<path d="M0 0 C32.67 0 65.34 0 99 0 C99 8.58 99 17.16 99 26 C89.76 26 80.52 26 71 26 C71 78.47 71 130.94 71 185 C107.07764817 188.39619944 107.07764817 188.39619944 136.25 176.1875 C144.0365153 166.00344185 146.35815046 151.19315174 149 139 C156.59 139 164.18 139 172 139 C172 163.09 172 187.18 172 212 C114.91 212 57.82 212 -1 212 C-1 203.09 -1 194.18 -1 185 C7.58 185 16.16 185 25 185 C25 132.53 25 80.06 25 26 C16.75 26 8.5 26 0 26 C0 17.42 0 8.84 0 0 Z " fill="#FEFAFA" transform="translate(1469,727)"/>
<path d="M0 0 C32.67 0 65.34 0 99 0 C99 8.58 99 17.16 99 26 C89.43 26 79.86 26 70 26 C70 78.8 70 131.6 70 186 C101.95758615 188.02445754 101.95758615 188.02445754 133.59375 178.6171875 C143.37733516 167.97595039 145.73385793 152.54254029 149 139 C156.26 139 163.52 139 171 139 C171 163.09 171 187.18 171 212 C114.24 212 57.48 212 -1 212 C-1 203.09 -1 194.18 -1 185 C7.58 185 16.16 185 25 185 C25 132.53 25 80.06 25 26 C16.75 26 8.5 26 0 26 C0 17.42 0 8.84 0 0 Z " fill="#FEFDFD" transform="translate(1660,727)"/>
<path d="M0 0 C10.2403125 -0.0928125 10.2403125 -0.0928125 20.6875 -0.1875 C22.81405029 -0.21481201 24.94060059 -0.24212402 27.1315918 -0.27026367 C41.43864595 -0.37770727 56.50921446 -0.01241318 68.03125 9.71484375 C74.6281918 16.54938727 77.16658972 24.49817764 77.5625 33.875 C77.28546117 43.20197411 74.36873448 52.06075732 68 59 C65.59765625 60.73046875 65.59765625 60.73046875 63.0625 62.1875 C61.81146484 62.92033203 61.81146484 62.92033203 60.53515625 63.66796875 C47.86840228 70.32338185 33.63882262 69.2494992 19.75 69.125 C9.97375 69.063125 9.97375 69.063125 0 69 C0 46.23 0 23.46 0 0 Z " fill="#DD2128" transform="translate(1431,1074)"/>
<path d="M0 0 C0.66 0 1.32 0 2 0 C7.96068997 15.9900633 13.91835663 31.98125048 19.87298584 47.97357178 C20.8754721 50.66559893 21.87831787 53.35749173 22.88134766 56.04931641 C24.31871132 59.90714376 25.75349324 63.7659236 27.1875 67.625 C27.5901709 68.70499268 27.9928418 69.78498535 28.40771484 70.89770508 C28.76172363 71.85185303 29.11573242 72.80600098 29.48046875 73.7890625 C29.77848389 74.59037598 30.07649902 75.39168945 30.38354492 76.21728516 C31 78 31 78 31 79 C11.53 79 -7.94 79 -28 79 C-26.74999208 73.37496437 -25.67483491 68.67384769 -23.70922852 63.41381836 C-23.25858536 62.19903305 -22.8079422 60.98424774 -22.34364319 59.73265076 C-21.85552452 58.43500065 -21.3672757 57.1373995 -20.87890625 55.83984375 C-20.37277137 54.4820083 -19.86716061 53.12397738 -19.36204529 51.76576233 C-18.03846046 48.21103322 -16.70781353 44.65898952 -15.37561035 41.10748291 C-14.02667328 37.50751597 -12.68454029 33.90501497 -11.34179688 30.30273438 C-8.56836526 22.8657983 -5.78639455 15.43209023 -3 8 C-2.67256805 7.12658966 -2.34513611 6.25317932 -2.00778198 5.353302 C-1.33867942 3.56880871 -0.66937353 1.78439166 0 0 Z " fill="#DD2027" transform="translate(1240,1091)"/>
</svg>
