<?xml version="1.0" encoding="UTF-8"?>
<svg version="1.1" xmlns="http://www.w3.org/2000/svg" width="1536" height="864">
<path d="M0 0 C21.9965625 -0.0309375 21.9965625 -0.0309375 44.4375 -0.0625 C51.39348267 -0.07615601 51.39348267 -0.07615601 58.48999023 -0.09008789 C64.1348877 -0.09460449 64.1348877 -0.09460449 66.77406311 -0.09544373 C68.62485494 -0.09698344 70.47564574 -0.10050893 72.32643127 -0.10557556 C75.12315627 -0.11285172 77.91981975 -0.11390746 80.71655273 -0.11352539 C81.96183196 -0.11892255 81.96183196 -0.11892255 83.23226833 -0.12442875 C88.88597366 -0.11402634 88.88597366 -0.11402634 90 1 C90.0951949 3.79993307 90.12552637 6.57502816 90.11352539 9.37524414 C90.11364593 10.26746139 90.11376646 11.15967863 90.11389065 12.07893276 C90.11314135 14.98103219 90.10551237 17.88306823 90.09765625 20.78515625 C90.09618688 22.57124806 90.09516614 24.35734029 90.09460449 26.14343262 C90.08935101 32.78312829 90.07538993 39.42281476 90.0625 46.0625 C90.041875 60.891875 90.02125 75.72125 90 91 C136.2 91 182.4 91 230 91 C230.20625 103.2925 230.4125 115.585 230.625 128.25 C230.71604004 132.10848633 230.80708008 135.96697266 230.90087891 139.94238281 C230.94604492 144.71240234 230.94604492 144.71240234 230.95443726 146.95672607 C230.96963557 148.49982683 231.0044792 150.04282058 231.05575562 151.58514404 C231.3359282 160.46881361 231.18122984 166.9866052 225.11474609 173.88989258 C223.43463809 175.61773515 221.73279547 177.32500069 220 179 C219.03557501 180.16441238 218.09154686 181.34670637 217.1875 182.55859375 C215.62199639 184.61890832 214.05412605 186.67730453 212.484375 188.734375 C212.07123047 189.27771484 211.65808594 189.82105469 211.23242188 190.38085938 C209.24676156 192.98959536 207.24828277 195.58842633 205.25 198.1875 C204.85216309 198.70570313 204.45432617 199.22390625 204.04443359 199.7578125 C201.51064432 203.05341395 198.95963282 206.33502042 196.3984375 209.609375 C195.77420898 210.40835205 195.14998047 211.2073291 194.50683594 212.03051758 C193.28016358 213.59950601 192.05173188 215.16712102 190.82128906 216.7331543 C188.32035096 219.93317632 185.88723595 223.10391931 183.7109375 226.53515625 C183.14632813 227.34855469 182.58171875 228.16195312 182 229 C181.34 229 180.68 229 180 229 C179.6596875 229.76570313 179.6596875 229.76570313 179.3125 230.546875 C177.47690643 233.97768678 175.25316042 237.08270021 173 240.25 C172.32324219 241.22453125 172.32324219 241.22453125 171.6328125 242.21875 C170.47395032 243.85075709 169.24218497 245.4304825 168 247 C167.34 247 166.68 247 166 247 C165.76410156 247.70769531 165.52820313 248.41539062 165.28515625 249.14453125 C163.77339735 252.50348493 161.82026492 254.88402217 159.4375 257.6875 C156.40830054 261.13816051 156.40830054 261.13816051 154 265 C153.34 265 152.68 265 152 265 C151.76410156 265.70769531 151.52820313 266.41539062 151.28515625 267.14453125 C149.77339735 270.50348493 147.82026492 272.88402217 145.4375 275.6875 C142.40830054 279.13816051 142.40830054 279.13816051 140 283 C139.34 283 138.68 283 138 283 C137.74863281 283.72703125 137.49726563 284.4540625 137.23828125 285.203125 C135.89724922 288.23208063 134.3421088 290.23962092 132.1875 292.75 C128.21501931 297.48641929 124.42098412 302.32324332 120.6875 307.25 C116.00297898 313.4236811 111.21412016 319.49532694 106.33129883 325.51293945 C102.36328945 330.44558446 98.67550543 335.54829459 95.12036133 340.78588867 C94.12715455 342.22414579 93.06939643 343.61745362 92 345 C91.34 345 90.68 345 90 345 C89.773125 345.51046875 89.54625 346.0209375 89.3125 346.546875 C87.47690643 349.97768678 85.25316042 353.08270021 83 356.25 C82.54882812 356.8996875 82.09765625 357.549375 81.6328125 358.21875 C80.47395032 359.85075709 79.24218497 361.4304825 78 363 C77.34 363 76.68 363 76 363 C75.76410156 363.70769531 75.52820313 364.41539062 75.28515625 365.14453125 C73.77339735 368.50348493 71.82026492 370.88402217 69.4375 373.6875 C66.40830054 377.13816051 66.40830054 377.13816051 64 381 C63.34 381 62.68 381 62 381 C61.76410156 381.70769531 61.52820313 382.41539062 61.28515625 383.14453125 C59.77339735 386.50348493 57.82026492 388.88402217 55.4375 391.6875 C52.40830054 395.13816051 52.40830054 395.13816051 50 399 C49.34 399 48.68 399 48 399 C47.76410156 399.70769531 47.52820313 400.41539062 47.28515625 401.14453125 C45.77339735 404.50348493 43.82026492 406.88402217 41.4375 409.6875 C38.40830054 413.13816051 38.40830054 413.13816051 36 417 C35.34 417 34.68 417 34 417 C33.74863281 417.72703125 33.49726563 418.4540625 33.23828125 419.203125 C31.89724922 422.23208063 30.3421088 424.23962092 28.1875 426.75 C24.21501401 431.48642561 20.42109482 436.32332039 16.6875 441.25 C11.90353685 447.55213418 7.0349998 453.77404842 2.0456543 459.91503906 C-0.27988972 462.79019769 -2.52575116 465.69393004 -4.66601562 468.71044922 C-5.32615662 469.63940506 -5.32615662 469.63940506 -5.99963379 470.58712769 C-6.32975464 471.05337555 -6.65987549 471.51962341 -7 472 C19.66407596 472.64047202 46.32482755 473.09048602 72.99609375 473.28125 C73.65536629 473.28601852 74.31463883 473.29078705 74.99388933 473.29570007 C86.52560769 473.37904705 98.05738013 473.45375057 109.58917236 473.52606201 C117.78301524 473.57754595 125.97682087 473.63247994 134.17061043 473.69187927 C137.91552175 473.7177612 141.66043862 473.73894597 145.40538025 473.7598877 C160.95338094 473.86327057 176.4673561 474.30195332 192 475 C192.64806849 476.28334175 193.29468152 477.56741856 193.94067383 478.85180664 C194.30091141 479.56679825 194.66114899 480.28178986 195.03230286 481.01844788 C196.0586447 483.12008666 196.90082474 485.23564173 197.6875 487.4375 C202.0421608 498.54702833 208.13261022 509.11532811 214.78515625 518.99609375 C216 521 216 521 216 523 C216.66 523 217.32 523 218 523 C219.55078125 524.9765625 219.55078125 524.9765625 221.3125 527.625 C223.40408275 530.71424146 225.48736432 533.68584416 227.9375 536.5 C230 539 230 539 230 541 C230.66 541 231.32 541 232 541 C238.85105292 549.1760207 241.86379275 556.33316399 241 567 C240 568 240 568 237.53434658 568.12304783 C236.42911679 568.12212604 235.323887 568.12120424 234.18516541 568.12025452 C232.92166763 568.12162918 231.65816986 568.12300385 230.35638428 568.12442017 C228.94323707 568.12088055 227.5300901 568.11724574 226.11694336 568.11352539 C224.63898216 568.11324353 223.16102081 568.11340124 221.68305969 568.1139679 C217.65844172 568.1142559 213.63385328 568.1083587 209.6092422 568.10139394 C205.40783635 568.09516088 201.2064299 568.09455664 197.00502014 568.09336853 C189.04353743 568.09025507 181.08206838 568.08204149 173.1205917 568.07201904 C164.05907411 568.06085836 154.99755588 568.05534757 145.93603313 568.05032361 C127.290681 568.03985888 108.64534159 568.02225916 90 568 C90.00222061 569.11277817 90.00444122 570.22555634 90.00672913 571.37205505 C90.02695955 581.8349213 90.04197166 592.29778361 90.05181217 602.76066494 C90.05704125 608.14033762 90.06413935 613.51999458 90.07543945 618.8996582 C90.08626745 624.08674843 90.09227665 629.27382349 90.09487724 634.46092415 C90.09673165 636.4445628 90.10035256 638.42820058 90.10573006 640.41183281 C90.11293932 643.18009136 90.11399099 645.94828638 90.11352539 648.71655273 C90.11712067 649.54517319 90.12071594 650.37379364 90.12442017 651.2275238 C90.11405216 656.88594784 90.11405216 656.88594784 89 658 C86.23057407 658.09517928 83.48626234 658.12552958 80.71655273 658.11352539 C79.83424767 658.11364593 78.95194262 658.11376646 78.04290104 658.11389065 C75.17310672 658.11314137 72.30337652 658.10551245 69.43359375 658.09765625 C67.66735872 658.09618688 65.90112325 658.09516614 64.1348877 658.09460449 C57.56908518 658.08935106 51.00329197 658.07538998 44.4375 658.0625 C29.773125 658.041875 15.10875 658.02125 0 658 C0 628.3 0 598.6 0 568 C-48.84 568 -97.68 568 -148 568 C-148.165 555.026875 -148.33 542.05375 -148.5 528.6875 C-148.57283203 524.61108154 -148.64566406 520.53466309 -148.72070312 516.3347168 C-148.75683594 511.30627441 -148.75683594 511.30627441 -148.7635498 508.94245911 C-148.77573012 507.31276405 -148.80364969 505.6831352 -148.84460449 504.0539093 C-149.0916552 493.69635827 -148.77230233 486.96548385 -141.91784668 478.75325012 C-140 477 -140 477 -138 477 C-137.7628125 476.46246094 -137.525625 475.92492187 -137.28125 475.37109375 C-135.65314277 472.35810262 -133.60914549 469.74587788 -131.5 467.0625 C-130.59109381 465.89326961 -129.68224108 464.72399765 -128.7734375 463.5546875 C-128.3103418 462.96139648 -127.84724609 462.36810547 -127.37011719 461.75683594 C-125.27839106 459.07471526 -123.20110788 456.38173708 -121.125 453.6875 C-120.52365234 452.90995361 -120.52365234 452.90995361 -119.91015625 452.11669922 C-117.49270698 448.98026719 -115.11915069 445.81550286 -112.7734375 442.625 C-112.22929199 441.88805908 -111.68514648 441.15111816 -111.12451172 440.3918457 C-110.05552164 438.94130297 -108.99188271 437.48679881 -107.93408203 436.02807617 C-106.67024171 434.31593261 -105.34075372 432.65260625 -104 431 C-103.34 431 -102.68 431 -102 431 C-101.76410156 430.29230469 -101.52820313 429.58460938 -101.28515625 428.85546875 C-99.77339735 425.49651507 -97.82026492 423.11597783 -95.4375 420.3125 C-92.40830054 416.86183949 -92.40830054 416.86183949 -90 413 C-89.34 413 -88.68 413 -88 413 C-87.76410156 412.29230469 -87.52820313 411.58460938 -87.28515625 410.85546875 C-85.77339735 407.49651507 -83.82026492 405.11597783 -81.4375 402.3125 C-78.40830054 398.86183949 -78.40830054 398.86183949 -76 395 C-75.34 395 -74.68 395 -74 395 C-73.7628125 394.46246094 -73.525625 393.92492187 -73.28125 393.37109375 C-71.65315232 390.35812031 -69.60924555 387.74578583 -67.5 385.0625 C-66.58843885 383.89070497 -65.67698329 382.71882781 -64.765625 381.546875 C-64.07049805 380.65645508 -64.07049805 380.65645508 -63.36132812 379.74804688 C-61.30989151 377.11384922 -59.28112357 374.46237645 -57.25 371.8125 C-54.40769357 368.11102377 -51.55145143 364.42086625 -48.6796875 360.7421875 C-48.09832031 359.99718994 -47.51695313 359.25219238 -46.91796875 358.48461914 C-45.7258525 356.95730135 -44.53314716 355.43044317 -43.33984375 353.90405273 C-40.34938663 350.06659934 -37.3963984 346.20782725 -34.5078125 342.29296875 C-33.95851074 341.54958252 -33.40920898 340.80619629 -32.84326172 340.0402832 C-31.8000242 338.62249688 -30.76235656 337.20059116 -29.73095703 335.77416992 C-28.53415143 334.1472558 -27.27312615 332.56791039 -26 331 C-25.34 331 -24.68 331 -24 331 C-23.76410156 330.29230469 -23.52820313 329.58460938 -23.28515625 328.85546875 C-21.77339735 325.49651507 -19.82026492 323.11597783 -17.4375 320.3125 C-14.40830054 316.86183949 -14.40830054 316.86183949 -12 313 C-11.34 313 -10.68 313 -10 313 C-9.76410156 312.29230469 -9.52820313 311.58460938 -9.28515625 310.85546875 C-7.77339735 307.49651507 -5.82026492 305.11597783 -3.4375 302.3125 C-0.40830054 298.86183949 -0.40830054 298.86183949 2 295 C2.66 295 3.32 295 4 295 C4.35578125 294.19369141 4.35578125 294.19369141 4.71875 293.37109375 C6.34685723 290.35810262 8.39085451 287.74587788 10.5 285.0625 C11.40890619 283.89326961 12.31775892 282.72399765 13.2265625 281.5546875 C13.6896582 280.96139648 14.15275391 280.36810547 14.62988281 279.75683594 C16.72160894 277.07471526 18.79889212 274.38173708 20.875 271.6875 C21.27589844 271.16913574 21.67679688 270.65077148 22.08984375 270.11669922 C24.50729302 266.98026719 26.88084931 263.81550286 29.2265625 260.625 C29.77070801 259.88805908 30.31485352 259.15111816 30.87548828 258.3918457 C31.94447836 256.94130297 33.00811729 255.48679881 34.06591797 254.02807617 C35.32975829 252.31593261 36.65924628 250.65260625 38 249 C38.66 249 39.32 249 40 249 C40.23589844 248.29230469 40.47179687 247.58460938 40.71484375 246.85546875 C42.22660265 243.49651507 44.17973508 241.11597783 46.5625 238.3125 C49.59169946 234.86183949 49.59169946 234.86183949 52 231 C52.66 231 53.32 231 54 231 C54.23589844 230.29230469 54.47179687 229.58460938 54.71484375 228.85546875 C56.22660265 225.49651507 58.17973508 223.11597783 60.5625 220.3125 C63.59169946 216.86183949 63.59169946 216.86183949 66 213 C66.66 213 67.32 213 68 213 C68.3403125 212.23429687 68.3403125 212.23429687 68.6875 211.453125 C70.52309357 208.02231322 72.74683958 204.91729979 75 201.75 C75.67675781 200.77546875 75.67675781 200.77546875 76.3671875 199.78125 C77.52604968 198.14924291 78.75781503 196.5695175 80 195 C80.66 195 81.32 195 82 195 C82.3403125 194.2265625 82.3403125 194.2265625 82.6875 193.4375 C84.48181499 190.10520073 86.80020081 187.07971886 89 184 C13.76 183.67 -61.48 183.34 -139 183 C-139 152.31 -139 121.62 -139 90 C-92.65632173 89.84654411 -46.34255822 90.44748068 0 91 C0 60.97 0 30.94 0 0 Z " fill="#7E17D8" transform="translate(156,103)"/>
<path d="M0 0 C0 0.66 0 1.32 0 2 C0.56460937 2.24878906 1.12921875 2.49757813 1.7109375 2.75390625 C16.36942691 10.73352762 26.92036803 27.4722655 36 41 C36.57492187 41.84949219 37.14984375 42.69898438 37.7421875 43.57421875 C52.39706812 66.63288685 59.97764784 92.25089364 64 119 C64.12149414 119.78487793 64.24298828 120.56975586 64.36816406 121.37841797 C66.18924204 133.68836147 66.23022725 146.08199379 66.3125 158.5 C66.32212769 159.32428497 66.33175537 160.14856995 66.3416748 160.99783325 C66.56835442 183.64746837 66.56835442 183.64746837 61 192 C59.03959119 192.37259549 59.03959119 192.37259549 56.58406639 192.36914349 C55.65001768 192.37511663 54.71596896 192.38108978 53.75361574 192.38724393 C52.20402947 192.37413614 52.20402947 192.37413614 50.62313843 192.36076355 C48.98511243 192.36460846 48.98511243 192.36460846 47.313995 192.36853105 C43.63024415 192.37349885 39.94689711 192.35692643 36.26318359 192.34057617 C33.63238027 192.33973055 31.00157623 192.34020377 28.37077332 192.34190369 C22.69421532 192.34347906 17.01776052 192.3340424 11.34122849 192.31719017 C3.13386754 192.29284035 -5.07344335 192.28499903 -13.28083651 192.2812262 C-26.5957813 192.27465539 -39.91067105 192.25467719 -53.22558594 192.22631836 C-66.16210657 192.19879405 -79.09861226 192.17755252 -92.03515625 192.16479492 C-93.23065981 192.16361267 -93.23065981 192.16361267 -94.45031495 192.16240653 C-98.44852062 192.1584915 -102.44672638 192.15470036 -106.44493222 192.15097082 C-139.62999489 192.11985531 -172.81499009 192.06700243 -206 192 C-205.23125075 194.84509069 -204.45702653 197.68850532 -203.6796875 200.53125 C-203.46530029 201.32692383 -203.25091309 202.12259766 -203.0300293 202.94238281 C-200.09732728 213.62462703 -196.10072548 223.24493898 -189.3203125 232.109375 C-188 234 -188 234 -188 236 C-187.34 236 -186.68 236 -186 236 C-184.5625 237.49609375 -184.5625 237.49609375 -183 239.4375 C-180.85474956 242.15188238 -180.85474956 242.15188238 -178 244 C-178 244.66 -178 245.32 -178 246 C-177.18402344 246.39058594 -177.18402344 246.39058594 -176.3515625 246.7890625 C-173.61349281 248.19903194 -171.01094236 249.78230659 -168.375 251.375 C-139.22379015 268.33889682 -100.01401196 268.63154535 -68.03515625 260.1953125 C-53.83188901 256.15092274 -41.04477445 249.58939911 -29.3125 240.63671875 C-27 239 -27 239 -24 238 C-24 237.34 -24 236.68 -24 236 C-21.953125 234.125 -21.953125 234.125 -19.25 232 C-18.36828125 231.29875 -17.4865625 230.5975 -16.578125 229.875 C-12.04672653 226.57943748 -8.88720688 225.47347379 -3.30078125 225.62890625 C3.73932536 226.76440732 8.97128462 233.56009618 13 239 C13.33 239.99 13.66 240.98 14 242 C14.66 242 15.32 242 16 242 C16 242.66 16 243.32 16 244 C16.66 244 17.32 244 18 244 C18 244.66 18 245.32 18 246 C18.66 246 19.32 246 20 246 C20 246.66 20 247.32 20 248 C20.66 248 21.32 248 22 248 C22 248.66 22 249.32 22 250 C22.66 250 23.32 250 24 250 C24 250.66 24 251.32 24 252 C24.66 252 25.32 252 26 252 C26 252.66 26 253.32 26 254 C26.55429688 254.23589844 27.10859375 254.47179687 27.6796875 254.71484375 C30.56447242 256.3126455 32.71172032 258.31851009 35.125 260.5625 C38.31507509 263.63719186 38.31507509 263.63719186 42 266 C42 266.66 42 267.32 42 268 C42.58394531 268.2578125 43.16789062 268.515625 43.76953125 268.78125 C46.17749249 270.09698364 47.77472693 271.54158592 49.6875 273.5 C50.28949219 274.1084375 50.89148437 274.716875 51.51171875 275.34375 C53.58648329 277.65267432 53.99159608 278.94852598 54.5 282.0625 C53.49484823 289.97807015 46.04642176 297.03842436 40 302 C39.34 302 38.68 302 38 302 C38 302.66 38 303.32 38 304 C37.34 304 36.68 304 36 304 C36 304.66 36 305.32 36 306 C34.61401367 307.30932617 34.61401367 307.30932617 32.66796875 308.79296875 C31.95745361 309.33735596 31.24693848 309.88174316 30.51489258 310.44262695 C29.74685303 311.01843506 28.97881348 311.59424316 28.1875 312.1875 C27.01707153 313.07151489 27.01707153 313.07151489 25.82299805 313.97338867 C20.05620467 318.29177813 14.20831192 322.33754261 8 326 C6.42412109 326.94746094 6.42412109 326.94746094 4.81640625 327.9140625 C1.24562421 330.01356885 -2.35351343 332.0358481 -6 334 C-6.59393555 334.32081543 -7.18787109 334.64163086 -7.79980469 334.97216797 C-27.39616106 345.33896692 -49.94004693 352.78564354 -72 355 C-73.04546997 355.12725464 -73.04546997 355.12725464 -74.11206055 355.25708008 C-99.13264334 358.28575597 -127.17649455 359.65405037 -152 355 C-152.86157715 354.84934082 -153.7231543 354.69868164 -154.61083984 354.54345703 C-188.76840868 348.49308624 -221.63361285 335.02139773 -248 312 C-248 311.34 -248 310.68 -248 310 C-248.82757812 309.6596875 -248.82757812 309.6596875 -249.671875 309.3125 C-252.68692417 307.61274074 -254.81230369 305.45195184 -257.25 303 C-258.14203125 302.113125 -259.0340625 301.22625 -259.953125 300.3125 C-262 298 -262 298 -262 296 C-262.66 296 -263.32 296 -264 296 C-265.59901338 294.20418498 -267.05468901 292.41510615 -268.5 290.5 C-268.94069824 289.91976074 -269.38139648 289.33952148 -269.83544922 288.74169922 C-275.02680575 281.78487603 -279.59469263 274.47276133 -284 267 C-284.35835937 266.39994141 -284.71671875 265.79988281 -285.0859375 265.18164062 C-291.64816401 254.0677946 -295.91551231 242.20770525 -300 230 C-300.4125 228.78699219 -300.825 227.57398438 -301.25 226.32421875 C-307.48184265 206.3871909 -309.18728918 185.26464221 -309.18530273 164.49633789 C-309.18747485 161.96678456 -309.20565 159.43767893 -309.22460938 156.90820312 C-309.2749655 142.49898167 -308.19361838 128.25938933 -305.25 114.125 C-305.08081055 113.30386719 -304.91162109 112.48273438 -304.73730469 111.63671875 C-299.14964357 85.55435032 -289.20757643 60.74582161 -274.5625 38.4375 C-274.13727051 37.78740967 -273.71204102 37.13731934 -273.27392578 36.4675293 C-272.23902557 34.93861385 -271.12639237 33.46281958 -270 32 C-269.34 32 -268.68 32 -268 32 C-267.731875 31.42765625 -267.46375 30.8553125 -267.1875 30.265625 C-265.95867364 27.92115366 -264.57477824 25.87595062 -263 23.75 C-262.484375 23.04359375 -261.96875 22.3371875 -261.4375 21.609375 C-260.963125 21.07828125 -260.48875 20.5471875 -260 20 C-259.34 20 -258.68 20 -258 20 C-257.79375 19.46375 -257.5875 18.9275 -257.375 18.375 C-255.46749574 15.08021991 -252.95180616 12.40636372 -250 10 C-249.34 10 -248.68 10 -248 10 C-248 9.34 -248 8.68 -248 8 C-245.8828125 6.0546875 -245.8828125 6.0546875 -243.125 3.875 C-242.22007813 3.15054688 -241.31515625 2.42609375 -240.3828125 1.6796875 C-238 0 -238 0 -236 0 C-236 -0.66 -236 -1.32 -236 -2 C-233.76135271 -3.67974075 -231.53117977 -5.22906263 -229.1875 -6.75 C-228.49825439 -7.20101074 -227.80900879 -7.65202148 -227.09887695 -8.11669922 C-202.16854276 -24.26907348 -173.25326063 -35.20176569 -143.4375 -36.5625 C-142.06646118 -36.6251001 -142.06646118 -36.6251001 -140.66772461 -36.68896484 C-92.73669999 -38.69171082 -37.46515759 -34.2187622 0 0 Z M-188 76 C-196.47930919 85.70190726 -204 99.92735366 -204 113 C-147.9 113 -91.8 113 -34 113 C-34 96.27105336 -45.99901201 78.15902764 -57.375 66.3125 C-59.66706542 63.77965649 -59.66706542 63.77965649 -62 64 C-62 63.34 -62 62.68 -62 62 C-74.81987388 52.4013086 -89.34674043 47.48229205 -105 45 C-105.76957031 44.86851562 -106.53914063 44.73703125 -107.33203125 44.6015625 C-137.99958142 39.97956919 -167.58578731 53.74450538 -188 76 Z " fill="#7E17D8" transform="translate(1462,320)"/>
<path d="M0 0 C0.85817322 0.00093658 1.71634644 0.00187317 2.6005249 0.00283813 C52.3333328 0.12035915 98.00945864 15.53121757 134.28320312 50.67285156 C141.19101703 57.62250283 147.02670325 65.27287109 152.51586914 73.36767578 C153.39546112 74.66470419 154.28655915 75.95396092 155.18530273 77.23779297 C159.08233439 82.89560344 162.24001155 88.73687732 165.1875 94.9375 C165.66195557 95.93467041 166.13641113 96.93184082 166.62524414 97.95922852 C171.19123106 107.78071524 174.72452677 117.79752967 177.75 128.1875 C177.95705566 128.88891113 178.16411133 129.59032227 178.37744141 130.31298828 C181.45473988 140.95001913 183.01969197 151.7552997 184.42456055 162.71899414 C184.67673573 164.63177977 184.96820625 166.53940577 185.27563477 168.4440918 C185.80102831 172.59018507 185.92980424 176.62334401 185.953125 180.796875 C185.95882507 181.60433167 185.96452515 182.41178833 185.97039795 183.24371338 C185.97979606 184.94468904 185.98636114 186.64568248 185.99023438 188.34667969 C185.99992027 190.91634745 186.03098472 193.48520749 186.0625 196.0546875 C186.12719906 206.08109581 186.16526249 216.32748832 180.75 225.1875 C178.01454421 226.0993186 176.13328897 226.37089526 173.29534054 226.49991512 C172.39543111 226.54130613 171.49552168 226.58269714 170.56834227 226.62534243 C169.59155577 226.66413797 168.61476927 226.7029335 167.60838318 226.74290466 C166.58345086 226.78505897 165.55851853 226.82721328 164.50252765 226.87064499 C153.00691094 227.30633186 141.51809152 227.32055751 130.01586914 227.30102539 C127.63812257 227.30074243 125.26037591 227.30090337 122.88262939 227.3014679 C116.50608774 227.30175164 110.12956538 227.29592411 103.75302815 227.28889394 C97.74057365 227.28323028 91.72811974 227.28226643 85.71566313 227.28124207 C73.82663317 227.27906696 61.93761017 227.27244923 50.04858398 227.26293945 C38.51668329 227.25372507 26.9847845 227.24666407 15.45288086 227.24243164 C14.38214592 227.24203756 14.38214592 227.24203756 13.28977997 227.24163551 C9.7078434 227.24033023 6.12590682 227.23906658 2.54397023 227.23782361 C-27.05402445 227.22749912 -56.65201189 227.20984776 -86.25 227.1875 C-85.62038668 229.75895391 -84.98743417 232.32950804 -84.35253906 234.8996582 C-84.17550446 235.62419441 -83.99846985 236.34873062 -83.81607056 237.09522247 C-78.99808511 256.54062006 -67.95623613 276.4049275 -50.98828125 287.59375 C-45.92111926 290.54296839 -40.65856606 292.93737137 -35.25 295.1875 C-34.52554688 295.49558594 -33.80109375 295.80367187 -33.0546875 296.12109375 C-2.70572688 307.60609257 37.6239167 304.32803408 67.11328125 291.88671875 C76.10241136 287.7923961 84.50774646 282.81255562 92.078125 276.4375 C93.75 275.1875 93.75 275.1875 95.75 275.1875 C95.75 274.5275 95.75 273.8675 95.75 273.1875 C97.63450676 271.59929934 99.51186767 270.13467539 101.5 268.6875 C102.03882813 268.28402344 102.57765625 267.88054687 103.1328125 267.46484375 C110.40179409 262.09288906 110.40179409 262.09288906 115.3125 262.4375 C118.75 263.1875 118.75 263.1875 121.75 265.1875 C121.75 265.8475 121.75 266.5075 121.75 267.1875 C122.3387793 267.45175781 122.92755859 267.71601562 123.53417969 267.98828125 C125.83072584 269.23118944 127.35833166 270.53756481 129.203125 272.375 C129.821875 272.99117187 130.440625 273.60734375 131.078125 274.2421875 C131.71234375 274.88414062 132.3465625 275.52609375 133 276.1875 C133.6496875 276.82945312 134.299375 277.47140625 134.96875 278.1328125 C135.58234375 278.74898437 136.1959375 279.36515625 136.828125 280 C137.38918945 280.56332031 137.95025391 281.12664062 138.52832031 281.70703125 C139.75 283.1875 139.75 283.1875 139.75 285.1875 C140.41 285.1875 141.07 285.1875 141.75 285.1875 C141.75 285.8475 141.75 286.5075 141.75 287.1875 C142.41 287.1875 143.07 287.1875 143.75 287.1875 C143.75 287.8475 143.75 288.5075 143.75 289.1875 C144.34167969 289.44917969 144.93335938 289.71085937 145.54296875 289.98046875 C147.86699378 291.25148421 149.26697812 292.56734996 151.0625 294.5 C153.45834652 296.98919119 155.83070541 299.05691704 158.6875 301 C160.2034375 302.0828125 160.2034375 302.0828125 161.75 303.1875 C161.75 303.8475 161.75 304.5075 161.75 305.1875 C162.5853125 305.55875 162.5853125 305.55875 163.4375 305.9375 C168.09567706 308.45543355 171.58465512 311.28698264 173.75 316.1875 C174.44879475 319.82123269 174.39391696 322.09223937 172.49609375 325.3203125 C168.19410561 331.04964242 163.17958158 336.50987677 157.75 341.1875 C157.09 341.1875 156.43 341.1875 155.75 341.1875 C155.75 341.8475 155.75 342.5075 155.75 343.1875 C154.31298828 344.51611328 154.31298828 344.51611328 152.3203125 346.0078125 C151.60746094 346.54277344 150.89460938 347.07773437 150.16015625 347.62890625 C149.40605469 348.18449219 148.65195312 348.74007813 147.875 349.3125 C147.12863281 349.87582031 146.38226562 350.43914062 145.61328125 351.01953125 C140.01225787 355.1875 140.01225787 355.1875 137.75 355.1875 C137.75 355.8475 137.75 356.5075 137.75 357.1875 C135.80078125 358.58862305 135.80078125 358.58862305 133.0625 360.19921875 C132.0612207 360.78904541 131.05994141 361.37887207 130.02832031 361.98657227 C128.94647461 362.60975342 127.86462891 363.23293457 126.75 363.875 C125.65526367 364.50913818 124.56052734 365.14327637 123.43261719 365.79663086 C115.07514768 370.57153832 106.67709739 374.62475818 97.75 378.1875 C96.75742187 378.620625 95.76484375 379.05375 94.7421875 379.5 C80.84811916 385.55735949 66.74522251 389.95587695 51.75 392.1875 C50.14112915 392.44551392 50.14112915 392.44551392 48.49975586 392.70874023 C41.74001601 393.53878785 34.9057847 393.37324965 28.10546875 393.390625 C27.35320826 393.39345238 26.60094776 393.39627975 25.82589149 393.39919281 C21.83582849 393.41413166 17.84580106 393.42339159 13.85571289 393.42773438 C10.59648324 393.43210028 7.33752111 393.44592543 4.07836914 393.46875 C-30.96737969 393.70920622 -30.96737969 393.70920622 -46.25 390.1875 C-47.23315186 389.96304199 -48.21630371 389.73858398 -49.22924805 389.50732422 C-51.58136365 388.91281613 -53.87816693 388.24175747 -56.1875 387.5 C-57.0019458 387.24581299 -57.8163916 386.99162598 -58.65551758 386.72973633 C-80.72185359 379.66470244 -100.54650418 369.83871931 -119.25 356.1875 C-120.24 355.46691406 -121.23 354.74632812 -122.25 354.00390625 C-126.72411562 350.64132873 -126.72411562 350.64132873 -128.25 349.1875 C-128.25 348.5275 -128.25 347.8675 -128.25 347.1875 C-128.91 347.1875 -129.57 347.1875 -130.25 347.1875 C-130.25 346.5275 -130.25 345.8675 -130.25 345.1875 C-131.054375 344.878125 -131.054375 344.878125 -131.875 344.5625 C-135.16978009 342.65499574 -137.84363628 340.13930616 -140.25 337.1875 C-140.25 336.5275 -140.25 335.8675 -140.25 335.1875 C-140.91 335.1875 -141.57 335.1875 -142.25 335.1875 C-142.25 334.5275 -142.25 333.8675 -142.25 333.1875 C-142.91 333.1875 -143.57 333.1875 -144.25 333.1875 C-145.82753858 331.41238321 -147.26220062 329.64315624 -148.6875 327.75 C-149.12562012 327.17161377 -149.56374023 326.59322754 -150.01513672 325.99731445 C-159.12502676 313.78683706 -166.87818067 301.02225569 -173.25 287.1875 C-173.93835938 285.71990234 -173.93835938 285.71990234 -174.640625 284.22265625 C-180.42081061 271.18065518 -184.0948546 257.32905041 -186.5625 243.3125 C-186.72177979 242.41104248 -186.88105957 241.50958496 -187.04516602 240.58081055 C-189.27885314 226.98054808 -189.45734959 213.3077446 -189.4375 199.5625 C-189.43656342 198.72167877 -189.43562683 197.88085754 -189.43466187 197.01455688 C-189.40480968 184.64001733 -189.2402841 172.42799418 -187.25 160.1875 C-187.1046582 159.25856934 -186.95931641 158.32963867 -186.80957031 157.37255859 C-183.16245019 134.88198449 -176.38423457 113.12104265 -165.25 93.1875 C-164.84652344 92.45692383 -164.44304687 91.72634766 -164.02734375 90.97363281 C-161.47337032 86.35578331 -158.87861474 81.76323676 -156.25 77.1875 C-155.59 77.1875 -154.93 77.1875 -154.25 77.1875 C-154.01152344 76.47722656 -153.77304687 75.76695312 -153.52734375 75.03515625 C-152.04350863 71.72715686 -150.15341776 69.38874363 -147.8125 66.625 C-144.59208741 62.82091645 -144.59208741 62.82091645 -141.58984375 58.84765625 C-141.14769531 58.29980469 -140.70554687 57.75195312 -140.25 57.1875 C-139.59 57.1875 -138.93 57.1875 -138.25 57.1875 C-138.25 56.5275 -138.25 55.8675 -138.25 55.1875 C-137.59 55.1875 -136.93 55.1875 -136.25 55.1875 C-136.25 54.5275 -136.25 53.8675 -136.25 53.1875 C-135.59 53.1875 -134.93 53.1875 -134.25 53.1875 C-134.25 52.5275 -134.25 51.8675 -134.25 51.1875 C-133.59 51.1875 -132.93 51.1875 -132.25 51.1875 C-132.25 50.5275 -132.25 49.8675 -132.25 49.1875 C-131.59 49.1875 -130.93 49.1875 -130.25 49.1875 C-130.25 48.5275 -130.25 47.8675 -130.25 47.1875 C-106.37706263 24.60499167 -76.98828695 11.20019674 -45.4375 3.3125 C-44.65149414 3.10923096 -43.86548828 2.90596191 -43.05566406 2.6965332 C-29.11308046 -0.5952281 -14.24920169 -0.02020551 0 0 Z M-68.125 113.25 C-77.28969195 124.21648818 -81.71552525 136.24788885 -84.25 150.1875 C-28.15 150.1875 27.95 150.1875 85.75 150.1875 C83.72236477 131.93878292 74.21469685 112.58553439 59.78125 100.75390625 C18.94378413 71.36480763 -34.25599586 76.39694263 -68.125 113.25 Z " fill="#7E17D8" transform="translate(564.25,282.8125)"/>
<path d="M0 0 C1.55505993 -0.00389983 3.11011882 -0.00823708 4.66517639 -0.01298523 C7.89473967 -0.02037683 11.12419344 -0.02020498 14.35375977 -0.01489258 C18.47813068 -0.00905997 22.60205804 -0.02615368 26.72635555 -0.04923725 C29.92550746 -0.06399678 33.12455245 -0.06484409 36.32373238 -0.06172752 C37.8446803 -0.06223807 39.36563462 -0.06742527 40.886549 -0.07753944 C43.01051531 -0.08995195 45.13361474 -0.08308821 47.25756836 -0.0715332 C49.0628727 -0.07247734 49.0628727 -0.07247734 50.90464783 -0.07344055 C55.01751867 0.37358883 57.67600933 1.41546812 61.34765625 3.30078125 C67.0855333 14.77653534 63.51692073 36.07043317 63.53710938 48.54125977 C63.54453116 51.27927458 63.55340945 54.01728422 63.5622406 56.7552948 C63.58050398 62.64035608 63.59539053 68.5254179 63.60801697 74.41049385 C63.62655206 83.0137315 63.65122365 91.61694388 63.67739087 100.22016131 C63.72014784 114.30830532 63.75921532 128.39645681 63.79541016 142.48461914 C63.79865436 143.74670486 63.79865436 143.74670486 63.8019641 145.03428727 C63.81069931 148.43585206 63.81941792 151.8374169 63.82811698 155.23898179 C63.90165989 183.99006712 63.9785943 212.74114185 64.06640625 241.4921875 C64.0700282 242.68155752 64.0700282 242.68155752 64.07372332 243.89495522 C64.19417531 283.32258702 64.33772279 322.74927373 64.78569984 362.17484164 C64.81577775 364.83503867 64.8446679 367.49524657 64.87339783 370.15545845 C62.44824776 402.49025366 62.44824776 402.49025366 69.34765625 432.30078125 C75.59832418 435.90150791 82.81882405 435.4258366 89.77880859 435.20654297 C104.98133794 434.82271176 104.98133794 434.82271176 109.31835938 437.53173828 C112.66119106 441.19069057 113.90360216 445.64503495 115.34765625 450.30078125 C116.32046078 452.20114359 117.33848127 454.07936894 118.41015625 455.92578125 C118.88839844 456.80621094 119.36664062 457.68664062 119.859375 458.59375 C123.7547318 465.67900528 127.82132112 472.59865954 132.34765625 479.30078125 C144.48663309 497.37910153 144.48663309 497.37910153 144.34765625 505.30078125 C143.30118455 509.90525674 141.07231228 511.56057109 137.34765625 514.30078125 C117.9297692 525.75465011 98.3614173 527.5158268 76.09765625 527.42578125 C74.83348877 527.42094727 73.56932129 527.41611328 72.2668457 527.41113281 C42.56980966 527.22141176 20.39806876 522.62814942 -3.65234375 504.30078125 C-4.64234375 503.64078125 -5.63234375 502.98078125 -6.65234375 502.30078125 C-6.65234375 501.64078125 -6.65234375 500.98078125 -6.65234375 500.30078125 C-7.97234375 499.64078125 -9.29234375 498.98078125 -10.65234375 498.30078125 C-10.65234375 497.64078125 -10.65234375 496.98078125 -10.65234375 496.30078125 C-11.31234375 496.30078125 -11.97234375 496.30078125 -12.65234375 496.30078125 C-33.26855923 473.1307553 -32.94116013 442.13790584 -33.24548236 413.02798656 C-33.26939838 410.82814875 -33.29665112 408.62837645 -33.32499671 406.42859149 C-33.71826005 375.90070269 -33.80188069 345.37313515 -33.78764511 314.84307376 C-33.78529455 309.66957563 -33.78509937 304.49608077 -33.78615952 299.32258224 C-33.78631275 298.56568914 -33.78646598 297.80879604 -33.78662386 297.02896678 C-33.78694382 295.48780287 -33.78726804 293.94663897 -33.78759645 292.40547507 C-33.79040147 278.18380152 -33.78724556 263.96213457 -33.78179608 249.74046211 C-33.77734201 237.74933467 -33.77815658 225.7582171 -33.78271484 213.76708984 C-33.82763146 91.69032927 -33.82763146 91.69032927 -33.29672003 45.99238157 C-33.26999986 43.61589642 -33.24641635 41.23939894 -33.22363663 38.86287308 C-33.1821671 34.643218 -33.12389382 30.42399536 -33.06201172 26.20458984 C-33.04527216 24.44356745 -33.04527216 24.44356745 -33.02819443 22.64696884 C-32.90339255 15.68105801 -32.12804401 9.11115539 -30.65234375 2.30078125 C-20.37417627 0.52932528 -10.40105872 -0.01104023 0 0 Z " fill="#7E17D8" transform="translate(1020.65234375,149.69921875)"/>
<path d="M0 0 C0.79850183 -0.00282738 1.59700367 -0.00565475 2.41970253 -0.00856781 C6.63584335 -0.02346068 10.85195076 -0.03275569 15.06811523 -0.03710938 C19.40555539 -0.04261594 23.74268514 -0.06671791 28.08002758 -0.09508133 C31.4352966 -0.11373983 34.79049075 -0.11891476 38.14580727 -0.12044525 C39.74491405 -0.12345909 41.34401992 -0.13144448 42.94307518 -0.14463043 C45.17998265 -0.16177826 47.41612878 -0.15979124 49.65307617 -0.15332031 C50.92197189 -0.15696594 52.19086761 -0.16061157 53.49821472 -0.16436768 C57.87895197 0.28484306 60.32227874 0.87894197 64.08203125 3.203125 C65.02047505 7.67659967 65.24310471 12.13041242 65.39177704 16.69083118 C65.43276787 17.93585319 65.47375871 19.18087519 65.51599169 20.46362513 C65.55538089 21.81393678 65.59426526 23.16426324 65.63269043 24.51460266 C65.65359456 25.2137763 65.67449869 25.91294994 65.69603628 26.63331065 C66.16183543 42.38769641 66.24837987 58.13831249 66.26798081 73.89855707 C66.27408186 77.9401771 66.28570867 81.98178231 66.2966156 86.02339172 C66.3147412 92.99089845 66.32967433 99.95840569 66.34239197 106.9259243 C66.3609244 117.0306742 66.38557953 127.13540271 66.41176587 137.24013535 C66.45431143 153.68636909 66.49347815 170.13260877 66.52978516 186.57885742 C66.53302936 188.04757269 66.53302936 188.04757269 66.5363391 189.54595897 C66.55385724 197.48860841 66.5712079 205.43125821 66.58854198 213.37390804 C66.60371102 220.32210748 66.6189439 227.27030678 66.63427734 234.21850586 C66.63751565 235.68674586 66.63751565 235.68674586 66.64081937 237.18464728 C66.67710173 253.58341897 66.71706046 269.98217978 66.75958014 286.38093644 C66.78550065 296.44492884 66.80821414 306.50891823 66.82656372 316.57292733 C66.83936642 323.47831273 66.85553984 330.38368523 66.87421286 337.28905722 C66.88481372 341.25226895 66.89399216 345.21546866 66.89890862 349.17869186 C66.92410453 368.54015708 67.27168522 387.85707262 68.08203125 407.203125 C68.11726615 408.0656442 68.15250105 408.9281634 68.18880367 409.81681955 C68.58594105 421.32756528 68.58594105 421.32756528 72.08203125 432.203125 C79.06252826 436.85678968 89.26258326 435.47121674 97.36523438 435.54492188 C103.3408673 435.7054167 107.55234697 435.87637057 112.08203125 440.203125 C115.44754141 445.22865031 116.20434573 450.92673084 117.33203125 456.765625 C120.26945563 471.05354085 124.10550187 485.37603779 131.08203125 498.2734375 C133.52636883 502.99024518 134.75538452 507.92852439 134.08203125 513.203125 C131.57487267 519.0531617 127.54769299 520.8596158 121.9375 523.171875 C108.98337362 527.85024622 94.89138748 527.38982143 81.28198242 527.38842773 C78.9150164 527.39060615 76.54852437 527.40881896 74.18164062 527.42773438 C66.21337233 527.4575833 58.35853772 527.18166825 50.43359375 526.31640625 C49.36097038 526.19980904 49.36097038 526.19980904 48.26667786 526.08085632 C28.51232389 523.69740075 9.57422311 514.83011137 -4.91796875 501.203125 C-5.72621094 500.46191406 -6.53445313 499.72070312 -7.3671875 498.95703125 C-24.21019197 482.89353773 -28.10490375 463.1056333 -29.09028625 440.76835632 C-29.12975092 439.95074342 -29.16921559 439.13313052 -29.20987616 438.29074147 C-30.08341153 420.13154282 -30.20035544 401.9850605 -30.16475904 383.80846059 C-30.15801169 379.19029797 -30.16316625 374.57214367 -30.16664124 369.95397949 C-30.17161396 360.96909269 -30.16613141 351.98424348 -30.15679093 342.99936137 C-30.14627077 332.4922368 -30.14648064 321.98511979 -30.14696351 311.47799095 C-30.14746113 292.71342822 -30.13838267 273.9488827 -30.1237793 255.18432617 C-30.10967579 237.05216153 -30.10260975 218.920012 -30.10327148 200.7878418 C-30.10331144 199.66907187 -30.1033514 198.55030194 -30.10339256 197.39762989 C-30.1034531 195.72212212 -30.1034531 195.72212212 -30.10351485 194.01276571 C-30.10420746 173.24460545 -30.09830181 152.47645149 -30.08936163 131.70829329 C-30.08636746 124.414327 -30.08528477 117.12036188 -30.08482933 109.82639503 C-30.08414192 100.92530185 -30.07960431 92.02421933 -30.07049652 83.12313066 C-30.06593209 78.59709745 -30.06281284 74.0710777 -30.06409073 69.54504204 C-30.06752251 53.64036343 -30.04362522 37.74822504 -29.47138977 21.85185242 C-29.43271386 20.7749467 -29.39403796 19.69804098 -29.35419005 18.58850175 C-28.70924146 2.99439771 -28.70924146 2.99439771 -26.91796875 1.203125 C-18.11538534 -0.40735658 -8.91796982 0.02144397 0 0 Z " fill="#7E17D8" transform="translate(823.91796875,149.796875)"/>
</svg>
